%TF.GenerationSoftware,KiCad,Pcbnew,(5.0.0)*%
%TF.CreationDate,2018-10-21T12:48:55-07:00*%
%TF.ProjectId,USB_Host_Midi_Adapter,5553425F486F73745F4D6964695F4164,rev?*%
%TF.SameCoordinates,Original*%
%TF.FileFunction,Soldermask,Top*%
%TF.FilePolarity,Negative*%
%FSLAX46Y46*%
G04 Gerber Fmt 4.6, Leading zero omitted, Abs format (unit mm)*
G04 Created by KiCad (PCBNEW (5.0.0)) date 10/21/18 12:48:55*
%MOMM*%
%LPD*%
G01*
G04 APERTURE LIST*
%ADD10C,2.600000*%
%ADD11R,1.900000X1.650000*%
%ADD12R,2.400000X2.000000*%
%ADD13R,2.000000X2.400000*%
%ADD14R,1.650000X1.900000*%
%ADD15C,2.900000*%
%ADD16C,3.400000*%
%ADD17C,1.900000*%
%ADD18C,1.300000*%
%ADD19R,2.900000X2.400000*%
%ADD20R,2.700000X0.900000*%
%ADD21O,2.100000X2.100000*%
%ADD22R,2.100000X2.100000*%
%ADD23R,1.900000X1.700000*%
%ADD24R,1.700000X1.900000*%
%ADD25C,2.100000*%
%ADD26R,0.950000X2.000000*%
%ADD27R,2.000000X0.950000*%
%ADD28R,2.400000X1.900000*%
%ADD29R,2.400000X4.200000*%
%ADD30R,1.543000X0.654000*%
%ADD31R,0.654000X1.543000*%
%ADD32R,2.381200X0.958800*%
%ADD33C,2.200000*%
%ADD34R,2.200000X2.200000*%
%ADD35R,2.500000X2.200000*%
%ADD36R,2.200000X2.500000*%
G04 APERTURE END LIST*
D10*
X185738000Y-73660000D03*
X185738000Y-104140000D03*
X217170000Y-104140000D03*
X217170000Y-73660000D03*
X154305000Y-104140000D03*
D11*
X155150500Y-85217000D03*
X157650500Y-85217000D03*
X158095000Y-100330000D03*
X155595000Y-100330000D03*
D12*
X153829000Y-97155000D03*
X157829000Y-97155000D03*
D13*
X184467500Y-82835500D03*
X184467500Y-78835500D03*
X203263500Y-97186500D03*
X203263500Y-93186500D03*
D14*
X189293500Y-78569500D03*
X189293500Y-81069500D03*
X197866000Y-83165000D03*
X197866000Y-80665000D03*
D13*
X196659500Y-95091000D03*
X196659500Y-91091000D03*
D11*
X177272000Y-80645000D03*
X174772000Y-80645000D03*
X160103500Y-93599000D03*
X162603500Y-93599000D03*
D14*
X152654000Y-92537600D03*
X152654000Y-90037600D03*
D15*
X144732000Y-74923000D03*
X147232000Y-87423000D03*
X144732000Y-82423000D03*
X144732000Y-89923000D03*
X147232000Y-77423000D03*
X134732000Y-87423000D03*
X134732000Y-77423000D03*
D16*
X208854500Y-96714500D03*
X208854500Y-82994500D03*
D17*
X206184500Y-93154500D03*
X206184500Y-90614500D03*
X206184500Y-88584500D03*
X206184500Y-86044500D03*
D18*
X137360000Y-101260000D03*
X137360000Y-96860000D03*
D19*
X134360000Y-103510000D03*
X139860000Y-103510000D03*
X134360000Y-94610000D03*
X139860000Y-94610000D03*
D20*
X139960000Y-100660000D03*
X139960000Y-99860000D03*
X139960000Y-99060000D03*
X139960000Y-98260000D03*
X139960000Y-97460000D03*
D21*
X173545500Y-100012500D03*
X173545500Y-97472500D03*
X176085500Y-100012500D03*
X176085500Y-97472500D03*
X178625500Y-100012500D03*
D22*
X178625500Y-97472500D03*
D21*
X189801500Y-98869500D03*
X187261500Y-98869500D03*
D22*
X184721500Y-98869500D03*
D21*
X146685000Y-100330000D03*
D22*
X146685000Y-97790000D03*
D23*
X203407000Y-88582500D03*
X200707000Y-88582500D03*
X200770500Y-90614500D03*
X203470500Y-90614500D03*
D24*
X159194500Y-78947000D03*
X159194500Y-76247000D03*
X194437000Y-90852000D03*
X194437000Y-93552000D03*
D23*
X153018500Y-80010000D03*
X155718500Y-80010000D03*
X152955000Y-77533500D03*
X155655000Y-77533500D03*
X192896500Y-98869500D03*
X195596500Y-98869500D03*
D25*
X161544000Y-74485500D03*
X168044000Y-74485500D03*
X161544000Y-78985500D03*
X168044000Y-78985500D03*
D26*
X161538000Y-82808500D03*
X162338000Y-82808500D03*
X163138000Y-82808500D03*
X163938000Y-82808500D03*
X164738000Y-82808500D03*
X165538000Y-82808500D03*
X166338000Y-82808500D03*
X167138000Y-82808500D03*
D27*
X168588000Y-84258500D03*
X168588000Y-85058500D03*
X168588000Y-85858500D03*
X168588000Y-86658500D03*
X168588000Y-87458500D03*
X168588000Y-88258500D03*
X168588000Y-89058500D03*
X168588000Y-89858500D03*
D26*
X167138000Y-91308500D03*
X166338000Y-91308500D03*
X165538000Y-91308500D03*
X164738000Y-91308500D03*
X163938000Y-91308500D03*
X163138000Y-91308500D03*
X162338000Y-91308500D03*
X161538000Y-91308500D03*
D27*
X160088000Y-89858500D03*
X160088000Y-89058500D03*
X160088000Y-88258500D03*
X160088000Y-87458500D03*
X160088000Y-86658500D03*
X160088000Y-85858500D03*
X160088000Y-85058500D03*
X160088000Y-84258500D03*
D28*
X160680000Y-96442500D03*
X160680000Y-101042500D03*
X160680000Y-98742500D03*
D29*
X166980000Y-98742500D03*
D30*
X184460000Y-85245000D03*
X184460000Y-85745000D03*
X184460000Y-86245000D03*
X184460000Y-86745000D03*
X184460000Y-87245000D03*
X184460000Y-87745000D03*
X184460000Y-88245000D03*
X184460000Y-88745000D03*
D31*
X186210000Y-90495000D03*
X186710000Y-90495000D03*
X187210000Y-90495000D03*
X187710000Y-90495000D03*
X188210000Y-90495000D03*
X188710000Y-90495000D03*
X189210000Y-90495000D03*
X189710000Y-90495000D03*
D30*
X191460000Y-88745000D03*
X191460000Y-88245000D03*
X191460000Y-87745000D03*
X191460000Y-87245000D03*
X191460000Y-86745000D03*
X191460000Y-86245000D03*
X191460000Y-85745000D03*
X191460000Y-85245000D03*
D31*
X189710000Y-83495000D03*
X189210000Y-83495000D03*
X188710000Y-83495000D03*
X188210000Y-83495000D03*
X187710000Y-83495000D03*
X187210000Y-83495000D03*
X186710000Y-83495000D03*
X186210000Y-83495000D03*
D32*
X174701200Y-82804000D03*
X174701200Y-84074000D03*
X174701200Y-85344000D03*
X174701200Y-86614000D03*
X174701200Y-87884000D03*
X174701200Y-89154000D03*
X174701200Y-90424000D03*
X174701200Y-91694000D03*
X179628800Y-91694000D03*
X179628800Y-90424000D03*
X179628800Y-89154000D03*
X179628800Y-87884000D03*
X179628800Y-86614000D03*
X179628800Y-85344000D03*
X179628800Y-84074000D03*
X179628800Y-82804000D03*
D10*
X154305000Y-73660000D03*
D33*
X202444501Y-76300001D03*
D34*
X199904501Y-76300001D03*
D23*
X193976000Y-76263500D03*
X196676000Y-76263500D03*
D35*
X192161500Y-80701500D03*
X195061500Y-80701500D03*
X195061500Y-83001500D03*
X192161500Y-83001500D03*
D36*
X157487000Y-92255000D03*
X157487000Y-89355000D03*
X155187000Y-89355000D03*
X155187000Y-92255000D03*
M02*
