M48
;DRILL file {KiCad (5.0.0)} date 10/21/18 12:48:57
;FORMAT={-:-/ absolute / inch / decimal}
FMAT,2
INCH,TZ
T1C0.0157
T2C0.0354
T3C0.0394
T4C0.0551
T5C0.0906
%
G90
G05
M72
T1
X6.1925Y-3.0075
X6.2325Y-3.18
X6.38Y-3.375
X6.4575Y-3.34
X6.5125Y-3.4925
X6.5475Y-3.5225
X6.55Y-3.3875
X6.645Y-3.585
X6.6675Y-3.9575
X6.71Y-3.5475
X6.7175Y-3.48
X6.73Y-3.8325
X6.82Y-3.6125
X6.945Y-3.5175
X7.08Y-3.665
X7.185Y-3.3975
X7.5175Y-3.56
X7.6298Y-3.4652
X7.63Y-3.37
X7.6975Y-3.9825
X7.725Y-3.5025
X7.845Y-3.6875
T2
X7.8703Y-3.0039
X7.9703Y-3.0039
T3
X8.1175Y-3.3876
X8.1175Y-3.4876
X8.1175Y-3.5675
X8.1175Y-3.6675
X5.775Y-3.85
X5.775Y-3.95
X6.36Y-2.9325
X6.36Y-3.1097
X6.6159Y-2.9325
X6.6159Y-3.1097
X7.2725Y-3.8925
X7.3725Y-3.8925
X7.4725Y-3.8925
X6.8325Y-3.8375
X6.8325Y-3.9375
X6.9325Y-3.8375
X6.9325Y-3.9375
X7.0325Y-3.8375
X7.0325Y-3.9375
T4
X5.3044Y-3.0481
X5.3044Y-3.4419
X5.6981Y-2.9497
X5.6981Y-3.245
X5.6981Y-3.5403
X5.7965Y-3.0481
X5.7965Y-3.4419
T5
X8.2226Y-3.2675
X8.2226Y-3.8077
T0
M30
