%TF.GenerationSoftware,KiCad,Pcbnew,(5.0.0)*%
%TF.CreationDate,2018-10-21T12:48:55-07:00*%
%TF.ProjectId,USB_Host_Midi_Adapter,5553425F486F73745F4D6964695F4164,rev?*%
%TF.SameCoordinates,Original*%
%TF.FileFunction,Copper,L1,Top,Signal*%
%TF.FilePolarity,Positive*%
%FSLAX46Y46*%
G04 Gerber Fmt 4.6, Leading zero omitted, Abs format (unit mm)*
G04 Created by KiCad (PCBNEW (5.0.0)) date 10/21/18 12:48:55*
%MOMM*%
%LPD*%
G01*
G04 APERTURE LIST*
%ADD10R,1.500000X1.250000*%
%ADD11R,2.000000X1.600000*%
%ADD12R,1.600000X2.000000*%
%ADD13R,1.250000X1.500000*%
%ADD14C,2.500000*%
%ADD15C,3.000000*%
%ADD16C,1.500000*%
%ADD17R,2.500000X2.000000*%
%ADD18R,2.300000X0.500000*%
%ADD19O,1.700000X1.700000*%
%ADD20R,1.700000X1.700000*%
%ADD21R,1.500000X1.300000*%
%ADD22R,1.300000X1.500000*%
%ADD23C,1.700000*%
%ADD24R,0.550000X1.600000*%
%ADD25R,1.600000X0.550000*%
%ADD26R,2.000000X1.500000*%
%ADD27R,2.000000X3.800000*%
%ADD28R,1.143000X0.254000*%
%ADD29R,0.254000X1.143000*%
%ADD30R,1.981200X0.558800*%
%ADD31C,1.800000*%
%ADD32R,1.800000X1.800000*%
%ADD33R,2.100000X1.800000*%
%ADD34R,1.800000X2.100000*%
%ADD35C,0.800000*%
%ADD36C,0.250000*%
%ADD37C,0.350000*%
%ADD38C,0.254000*%
G04 APERTURE END LIST*
D10*
X155150500Y-85217000D03*
X157650500Y-85217000D03*
X158095000Y-100330000D03*
X155595000Y-100330000D03*
D11*
X153829000Y-97155000D03*
X157829000Y-97155000D03*
D12*
X184467500Y-82835500D03*
X184467500Y-78835500D03*
X203263500Y-97186500D03*
X203263500Y-93186500D03*
D13*
X189293500Y-78569500D03*
X189293500Y-81069500D03*
X197866000Y-83165000D03*
X197866000Y-80665000D03*
D12*
X196659500Y-95091000D03*
X196659500Y-91091000D03*
D10*
X177272000Y-80645000D03*
X174772000Y-80645000D03*
X160103500Y-93599000D03*
X162603500Y-93599000D03*
D13*
X152654000Y-92537600D03*
X152654000Y-90037600D03*
D14*
X144732000Y-74923000D03*
X147232000Y-87423000D03*
X144732000Y-82423000D03*
X144732000Y-89923000D03*
X147232000Y-77423000D03*
X134732000Y-87423000D03*
X134732000Y-77423000D03*
D15*
X208854500Y-96714500D03*
X208854500Y-82994500D03*
D16*
X206184500Y-93154500D03*
X206184500Y-90614500D03*
X206184500Y-88584500D03*
X206184500Y-86044500D03*
D17*
X134360000Y-103510000D03*
X139860000Y-103510000D03*
X134360000Y-94610000D03*
X139860000Y-94610000D03*
D18*
X139960000Y-100660000D03*
X139960000Y-99860000D03*
X139960000Y-99060000D03*
X139960000Y-98260000D03*
X139960000Y-97460000D03*
D19*
X173545500Y-100012500D03*
X173545500Y-97472500D03*
X176085500Y-100012500D03*
X176085500Y-97472500D03*
X178625500Y-100012500D03*
D20*
X178625500Y-97472500D03*
D19*
X189801500Y-98869500D03*
X187261500Y-98869500D03*
D20*
X184721500Y-98869500D03*
D19*
X146685000Y-100330000D03*
D20*
X146685000Y-97790000D03*
D21*
X203407000Y-88582500D03*
X200707000Y-88582500D03*
X200770500Y-90614500D03*
X203470500Y-90614500D03*
D22*
X159194500Y-78947000D03*
X159194500Y-76247000D03*
X194437000Y-90852000D03*
X194437000Y-93552000D03*
D21*
X153018500Y-80010000D03*
X155718500Y-80010000D03*
X152955000Y-77533500D03*
X155655000Y-77533500D03*
X192896500Y-98869500D03*
X195596500Y-98869500D03*
D23*
X161544000Y-74485500D03*
X168044000Y-74485500D03*
X161544000Y-78985500D03*
X168044000Y-78985500D03*
D24*
X161538000Y-82808500D03*
X162338000Y-82808500D03*
X163138000Y-82808500D03*
X163938000Y-82808500D03*
X164738000Y-82808500D03*
X165538000Y-82808500D03*
X166338000Y-82808500D03*
X167138000Y-82808500D03*
D25*
X168588000Y-84258500D03*
X168588000Y-85058500D03*
X168588000Y-85858500D03*
X168588000Y-86658500D03*
X168588000Y-87458500D03*
X168588000Y-88258500D03*
X168588000Y-89058500D03*
X168588000Y-89858500D03*
D24*
X167138000Y-91308500D03*
X166338000Y-91308500D03*
X165538000Y-91308500D03*
X164738000Y-91308500D03*
X163938000Y-91308500D03*
X163138000Y-91308500D03*
X162338000Y-91308500D03*
X161538000Y-91308500D03*
D25*
X160088000Y-89858500D03*
X160088000Y-89058500D03*
X160088000Y-88258500D03*
X160088000Y-87458500D03*
X160088000Y-86658500D03*
X160088000Y-85858500D03*
X160088000Y-85058500D03*
X160088000Y-84258500D03*
D26*
X160680000Y-96442500D03*
X160680000Y-101042500D03*
X160680000Y-98742500D03*
D27*
X166980000Y-98742500D03*
D28*
X184460000Y-85245000D03*
X184460000Y-85745000D03*
X184460000Y-86245000D03*
X184460000Y-86745000D03*
X184460000Y-87245000D03*
X184460000Y-87745000D03*
X184460000Y-88245000D03*
X184460000Y-88745000D03*
D29*
X186210000Y-90495000D03*
X186710000Y-90495000D03*
X187210000Y-90495000D03*
X187710000Y-90495000D03*
X188210000Y-90495000D03*
X188710000Y-90495000D03*
X189210000Y-90495000D03*
X189710000Y-90495000D03*
D28*
X191460000Y-88745000D03*
X191460000Y-88245000D03*
X191460000Y-87745000D03*
X191460000Y-87245000D03*
X191460000Y-86745000D03*
X191460000Y-86245000D03*
X191460000Y-85745000D03*
X191460000Y-85245000D03*
D29*
X189710000Y-83495000D03*
X189210000Y-83495000D03*
X188710000Y-83495000D03*
X188210000Y-83495000D03*
X187710000Y-83495000D03*
X187210000Y-83495000D03*
X186710000Y-83495000D03*
X186210000Y-83495000D03*
D30*
X174701200Y-82804000D03*
X174701200Y-84074000D03*
X174701200Y-85344000D03*
X174701200Y-86614000D03*
X174701200Y-87884000D03*
X174701200Y-89154000D03*
X174701200Y-90424000D03*
X174701200Y-91694000D03*
X179628800Y-91694000D03*
X179628800Y-90424000D03*
X179628800Y-89154000D03*
X179628800Y-87884000D03*
X179628800Y-86614000D03*
X179628800Y-85344000D03*
X179628800Y-84074000D03*
X179628800Y-82804000D03*
D31*
X202444501Y-76300001D03*
D32*
X199904501Y-76300001D03*
D21*
X193976000Y-76263500D03*
X196676000Y-76263500D03*
D33*
X192161500Y-80701500D03*
X195061500Y-80701500D03*
X195061500Y-83001500D03*
X192161500Y-83001500D03*
D34*
X157487000Y-92255000D03*
X157487000Y-89355000D03*
X155187000Y-89355000D03*
X155187000Y-92255000D03*
D35*
X162052000Y-85725000D03*
X166370000Y-86042500D03*
X173228000Y-91757500D03*
X182499000Y-86296500D03*
X193797347Y-88015653D03*
X199263000Y-93662500D03*
X169354500Y-100520500D03*
X195516500Y-101155500D03*
X193802000Y-85598000D03*
X196215000Y-88963500D03*
X168783000Y-91059000D03*
X166306500Y-89471500D03*
X179832000Y-93091000D03*
X170434000Y-90106500D03*
X170942000Y-97345500D03*
X164020500Y-84836000D03*
X158305500Y-80772000D03*
X157289500Y-76390500D03*
X170624500Y-88392000D03*
X165417500Y-88709500D03*
X176403000Y-89344500D03*
X190944500Y-90424000D03*
D36*
X159038000Y-87458500D02*
X158866500Y-87630000D01*
X160088000Y-87458500D02*
X159038000Y-87458500D01*
X155275500Y-85217000D02*
X155150500Y-85217000D01*
X157688500Y-87630000D02*
X155275500Y-85217000D01*
X158866500Y-87630000D02*
X157688500Y-87630000D01*
X160088000Y-85858500D02*
X161918500Y-85858500D01*
X161918500Y-85858500D02*
X162052000Y-85725000D01*
X167538000Y-86658500D02*
X166922000Y-86042500D01*
X168588000Y-86658500D02*
X167538000Y-86658500D01*
X166922000Y-86042500D02*
X166370000Y-86042500D01*
X174701200Y-91694000D02*
X173291500Y-91694000D01*
X173291500Y-91694000D02*
X173228000Y-91757500D01*
X184460000Y-86245000D02*
X182550500Y-86245000D01*
X182550500Y-86245000D02*
X182499000Y-86296500D01*
X191460000Y-87745000D02*
X193526694Y-87745000D01*
X193526694Y-87745000D02*
X193797347Y-88015653D01*
X196659500Y-95091000D02*
X197834500Y-95091000D01*
X197834500Y-95091000D02*
X199263000Y-93662500D01*
D37*
X146355000Y-97460000D02*
X146685000Y-97790000D01*
X139960000Y-97460000D02*
X146355000Y-97460000D01*
X159967500Y-100330000D02*
X160680000Y-101042500D01*
X158095000Y-100330000D02*
X159967500Y-100330000D01*
X158938000Y-86658500D02*
X160088000Y-86658500D01*
X158117000Y-86658500D02*
X158938000Y-86658500D01*
X157650500Y-86192000D02*
X158117000Y-86658500D01*
X157650500Y-85217000D02*
X157650500Y-86192000D01*
X161238000Y-88258500D02*
X160088000Y-88258500D01*
X161263001Y-88233499D02*
X161238000Y-88258500D01*
X161263001Y-86683501D02*
X161263001Y-88233499D01*
X161238000Y-86658500D02*
X161263001Y-86683501D01*
X160088000Y-86658500D02*
X161238000Y-86658500D01*
X162038000Y-87458500D02*
X168588000Y-87458500D01*
X161238000Y-86658500D02*
X162038000Y-87458500D01*
X167438000Y-87458500D02*
X168588000Y-87458500D01*
X167412999Y-87483501D02*
X167438000Y-87458500D01*
X167412999Y-89033499D02*
X167412999Y-87483501D01*
X167438000Y-89058500D02*
X167412999Y-89033499D01*
X168588000Y-89058500D02*
X167438000Y-89058500D01*
X155718500Y-79823000D02*
X155718500Y-80010000D01*
X159194500Y-76347000D02*
X155718500Y-79823000D01*
X159194500Y-76247000D02*
X159194500Y-76347000D01*
X160930000Y-101042500D02*
X160680000Y-101042500D01*
X162030000Y-102142500D02*
X160930000Y-101042500D01*
X177697581Y-102142500D02*
X162030000Y-102142500D01*
X178625500Y-101214581D02*
X177697581Y-102142500D01*
X178625500Y-100012500D02*
X178625500Y-101214581D01*
X157525500Y-85217000D02*
X157650500Y-85217000D01*
X155718500Y-83410000D02*
X157525500Y-85217000D01*
X155718500Y-80010000D02*
X155718500Y-83410000D01*
X157970000Y-100330000D02*
X158095000Y-100330000D01*
X156969999Y-99329999D02*
X157970000Y-100330000D01*
X149424999Y-99329999D02*
X156969999Y-99329999D01*
X147885000Y-97790000D02*
X149424999Y-99329999D01*
X146685000Y-97790000D02*
X147885000Y-97790000D01*
X155718500Y-81010000D02*
X155718500Y-80010000D01*
X155718500Y-82598998D02*
X155718500Y-81010000D01*
X146685000Y-91632498D02*
X155718500Y-82598998D01*
X146685000Y-97790000D02*
X146685000Y-91632498D01*
X179475499Y-100862499D02*
X178625500Y-100012500D01*
X180543501Y-101930501D02*
X179475499Y-100862499D01*
X195888501Y-101930501D02*
X180543501Y-101930501D01*
X203263500Y-94555502D02*
X195888501Y-101930501D01*
X203263500Y-93186500D02*
X203263500Y-94555502D01*
X206152500Y-93186500D02*
X206184500Y-93154500D01*
X203263500Y-93186500D02*
X206152500Y-93186500D01*
X207245160Y-93154500D02*
X213042500Y-87357160D01*
X206184500Y-93154500D02*
X207245160Y-93154500D01*
X213042500Y-87357160D02*
X213042500Y-82486500D01*
X206856001Y-76300001D02*
X202444501Y-76300001D01*
X213042500Y-82486500D02*
X206856001Y-76300001D01*
X159616500Y-98742500D02*
X160680000Y-98742500D01*
X158029000Y-97155000D02*
X159616500Y-98742500D01*
X157829000Y-97155000D02*
X158029000Y-97155000D01*
X174701200Y-80715800D02*
X174772000Y-80645000D01*
X174701200Y-82804000D02*
X174701200Y-80715800D01*
D36*
X184467500Y-83035500D02*
X184467500Y-82835500D01*
X183417500Y-84085500D02*
X184467500Y-83035500D01*
X183417500Y-85524000D02*
X183417500Y-84085500D01*
X183638500Y-85745000D02*
X183417500Y-85524000D01*
X184460000Y-85745000D02*
X183638500Y-85745000D01*
X174897000Y-80645000D02*
X174772000Y-80645000D01*
X175847001Y-79694999D02*
X174897000Y-80645000D01*
X180276999Y-79694999D02*
X175847001Y-79694999D01*
X183417500Y-82835500D02*
X180276999Y-79694999D01*
X184467500Y-82835500D02*
X183417500Y-82835500D01*
X195496500Y-98869500D02*
X195596500Y-98869500D01*
X194437000Y-97810000D02*
X195496500Y-98869500D01*
X194437000Y-93552000D02*
X194437000Y-97810000D01*
X169354500Y-99867000D02*
X169354500Y-100520500D01*
X166980000Y-98742500D02*
X168230000Y-98742500D01*
X168230000Y-98742500D02*
X169354500Y-99867000D01*
X195516500Y-98949500D02*
X195596500Y-98869500D01*
X195516500Y-101155500D02*
X195516500Y-98949500D01*
X191460000Y-85745000D02*
X190638500Y-85745000D01*
X161930000Y-98742500D02*
X166980000Y-98742500D01*
X160680000Y-98742500D02*
X161930000Y-98742500D01*
X188087000Y-86655502D02*
X188087000Y-85745000D01*
X190628499Y-89197001D02*
X188087000Y-86655502D01*
X190790503Y-89197001D02*
X190628499Y-89197001D01*
X194437000Y-92843498D02*
X190790503Y-89197001D01*
X194437000Y-93552000D02*
X194437000Y-92843498D01*
X188087000Y-85745000D02*
X184460000Y-85745000D01*
X190638500Y-85745000D02*
X188087000Y-85745000D01*
X191668000Y-83495000D02*
X192161500Y-83001500D01*
X189710000Y-83495000D02*
X191668000Y-83495000D01*
X190861500Y-83001500D02*
X192161500Y-83001500D01*
X189293500Y-81433500D02*
X190861500Y-83001500D01*
X189293500Y-81069500D02*
X189293500Y-81433500D01*
X193761500Y-80701500D02*
X195061500Y-80701500D01*
X193686499Y-80776501D02*
X193761500Y-80701500D01*
X193686499Y-84011503D02*
X193686499Y-80776501D01*
X192453002Y-85245000D02*
X193686499Y-84011503D01*
X191460000Y-85245000D02*
X192453002Y-85245000D01*
X197829500Y-80701500D02*
X197866000Y-80665000D01*
X195061500Y-80701500D02*
X197829500Y-80701500D01*
X191460000Y-86245000D02*
X193155000Y-86245000D01*
X193155000Y-86245000D02*
X193802000Y-85598000D01*
X196215000Y-90646500D02*
X196659500Y-91091000D01*
X196215000Y-88963500D02*
X196215000Y-90646500D01*
X160013000Y-89858500D02*
X160088000Y-89858500D01*
X160088000Y-90383500D02*
X160088000Y-89858500D01*
X160088000Y-90804000D02*
X160088000Y-90383500D01*
X158637000Y-92255000D02*
X160088000Y-90804000D01*
X157487000Y-92255000D02*
X158637000Y-92255000D01*
X160103500Y-92724000D02*
X160103500Y-93599000D01*
X159634500Y-92255000D02*
X160103500Y-92724000D01*
X157487000Y-92255000D02*
X159634500Y-92255000D01*
X159038000Y-89058500D02*
X160088000Y-89058500D01*
X158962999Y-89133501D02*
X159038000Y-89058500D01*
X158647001Y-90730001D02*
X158962999Y-90414003D01*
X158962999Y-90414003D02*
X158962999Y-89133501D01*
X155262001Y-90730001D02*
X158647001Y-90730001D01*
X155187000Y-90655000D02*
X155262001Y-90730001D01*
X155187000Y-89355000D02*
X155187000Y-90655000D01*
X154504400Y-90037600D02*
X155187000Y-89355000D01*
X152654000Y-90037600D02*
X154504400Y-90037600D01*
X153018500Y-81636500D02*
X147232000Y-87423000D01*
X153018500Y-80010000D02*
X153018500Y-81636500D01*
X147342500Y-77533500D02*
X147232000Y-77423000D01*
X152955000Y-77533500D02*
X147342500Y-77533500D01*
X204470500Y-90614500D02*
X206184500Y-90614500D01*
X203470500Y-90614500D02*
X204470500Y-90614500D01*
X206182500Y-88582500D02*
X206184500Y-88584500D01*
X203407000Y-88582500D02*
X206182500Y-88582500D01*
X166338000Y-92358500D02*
X166338000Y-91308500D01*
X173766012Y-93414010D02*
X167393510Y-93414010D01*
X177260501Y-98036501D02*
X177260501Y-96908499D01*
X177260501Y-96908499D02*
X173766012Y-93414010D01*
X176085500Y-99211502D02*
X177260501Y-98036501D01*
X167393510Y-93414010D02*
X166338000Y-92358500D01*
X176085500Y-100012500D02*
X176085500Y-99211502D01*
X170524001Y-91059000D02*
X168783000Y-91059000D01*
X172825600Y-91059000D02*
X170524001Y-91059000D01*
X174701200Y-90424000D02*
X173460600Y-90424000D01*
X173460600Y-90424000D02*
X172825600Y-91059000D01*
X166306500Y-91277000D02*
X166338000Y-91308500D01*
X166306500Y-89471500D02*
X166306500Y-91277000D01*
X179832000Y-91897200D02*
X179628800Y-91694000D01*
X179832000Y-93091000D02*
X179832000Y-91897200D01*
X168836000Y-90106500D02*
X168588000Y-89858500D01*
X170434000Y-90106500D02*
X168836000Y-90106500D01*
X179725500Y-97472500D02*
X178625500Y-97472500D01*
X182297501Y-100044501D02*
X179725500Y-97472500D01*
X187825501Y-100044501D02*
X182297501Y-100044501D01*
X188436501Y-98330909D02*
X188436501Y-99433501D01*
X188436501Y-99433501D02*
X187825501Y-100044501D01*
X189210000Y-97557410D02*
X188436501Y-98330909D01*
X189210000Y-90495000D02*
X189210000Y-97557410D01*
X178625500Y-96372500D02*
X175217000Y-92964000D01*
X178625500Y-97472500D02*
X178625500Y-96372500D01*
X167663000Y-91308500D02*
X167138000Y-91308500D01*
X169318500Y-92964000D02*
X167663000Y-91308500D01*
X175217000Y-92964000D02*
X169318500Y-92964000D01*
X191003581Y-98869500D02*
X192896500Y-98869500D01*
X189801500Y-98869500D02*
X191003581Y-98869500D01*
X188111499Y-98019501D02*
X187261500Y-98869500D01*
X188660010Y-97470990D02*
X188111499Y-98019501D01*
X188660010Y-91366490D02*
X188660010Y-97470990D01*
X188710000Y-91316500D02*
X188660010Y-91366490D01*
X188710000Y-90495000D02*
X188710000Y-91316500D01*
X183621500Y-98869500D02*
X184721500Y-98869500D01*
X177540490Y-92788490D02*
X183621500Y-98869500D01*
X177540490Y-88212690D02*
X177540490Y-92788490D01*
X175941800Y-86614000D02*
X177540490Y-88212690D01*
X174701200Y-86614000D02*
X175941800Y-86614000D01*
X191507999Y-86697001D02*
X191462001Y-86742999D01*
X200707000Y-87682500D02*
X200210000Y-87185500D01*
X200707000Y-88582500D02*
X200707000Y-87682500D01*
X200210000Y-87185500D02*
X194754500Y-87185500D01*
X194266001Y-86697001D02*
X191507999Y-86697001D01*
X194754500Y-87185500D02*
X194266001Y-86697001D01*
X199770500Y-90614500D02*
X198818500Y-89662500D01*
X200770500Y-90614500D02*
X199770500Y-90614500D01*
X198818500Y-89662500D02*
X198818500Y-88773000D01*
X198818500Y-88773000D02*
X197739000Y-87693500D01*
X194500500Y-87693500D02*
X194004011Y-87197011D01*
X197739000Y-87693500D02*
X194500500Y-87693500D01*
X192331501Y-87247001D02*
X191460000Y-87247001D01*
X192381491Y-87197011D02*
X192331501Y-87247001D01*
X194004011Y-87197011D02*
X192381491Y-87197011D01*
X163938000Y-81379500D02*
X163938000Y-82808500D01*
X161544000Y-78985500D02*
X163938000Y-81379500D01*
X161505500Y-78947000D02*
X161544000Y-78985500D01*
X159194500Y-78947000D02*
X161505500Y-78947000D01*
X173460600Y-85344000D02*
X169269600Y-81153000D01*
X174701200Y-85344000D02*
X173460600Y-85344000D01*
X163938000Y-81758500D02*
X163938000Y-82808500D01*
X164543500Y-81153000D02*
X163938000Y-81758500D01*
X169269600Y-81153000D02*
X164543500Y-81153000D01*
X173545500Y-97472500D02*
X171069000Y-97472500D01*
X171069000Y-97472500D02*
X170942000Y-97345500D01*
X164020500Y-82891000D02*
X163938000Y-82808500D01*
X164020500Y-84836000D02*
X164020500Y-82891000D01*
X194437000Y-89852000D02*
X194437000Y-90852000D01*
X192830000Y-88245000D02*
X194437000Y-89852000D01*
X191460000Y-88245000D02*
X192830000Y-88245000D01*
X162338000Y-81758500D02*
X162338000Y-82808500D01*
X162262999Y-81683499D02*
X162338000Y-81758500D01*
X155655000Y-77533500D02*
X155555000Y-77533500D01*
X162262999Y-81683499D02*
X159216999Y-81683499D01*
X159216999Y-81683499D02*
X158305500Y-80772000D01*
X156798000Y-76390500D02*
X155655000Y-77533500D01*
X157289500Y-76390500D02*
X156798000Y-76390500D01*
X174701200Y-87884000D02*
X171132500Y-87884000D01*
X171132500Y-87884000D02*
X170624500Y-88392000D01*
X165417500Y-91188000D02*
X165538000Y-91308500D01*
X165417500Y-88709500D02*
X165417500Y-91188000D01*
X178378199Y-89758401D02*
X177990500Y-89370702D01*
X180840211Y-89758401D02*
X178378199Y-89758401D01*
X182473311Y-91391501D02*
X180840211Y-89758401D01*
X187634999Y-91391501D02*
X182473311Y-91391501D01*
X187710000Y-90495000D02*
X187710000Y-91316500D01*
X187710000Y-91316500D02*
X187634999Y-91391501D01*
X175412400Y-84074000D02*
X174701200Y-84074000D01*
X177990500Y-86652100D02*
X175412400Y-84074000D01*
X177990500Y-89370702D02*
X177990500Y-86652100D01*
X180869400Y-90424000D02*
X182774400Y-92329000D01*
X179628800Y-90424000D02*
X180869400Y-90424000D01*
X188210000Y-91316500D02*
X188210000Y-90495000D01*
X188210000Y-91761500D02*
X188210000Y-91316500D01*
X187642500Y-92329000D02*
X188210000Y-91761500D01*
X182774400Y-92329000D02*
X187642500Y-92329000D01*
X174701200Y-89154000D02*
X176212500Y-89154000D01*
X176212500Y-89154000D02*
X176403000Y-89344500D01*
X190944500Y-90424000D02*
X189928500Y-90424000D01*
X189857500Y-90495000D02*
X189710000Y-90495000D01*
X189928500Y-90424000D02*
X189857500Y-90495000D01*
X199868000Y-76263500D02*
X199904501Y-76300001D01*
X196676000Y-76263500D02*
X199868000Y-76263500D01*
D38*
G36*
X218138364Y-71884985D02*
X218444928Y-72024372D01*
X218700050Y-72244199D01*
X218883218Y-72526792D01*
X218986743Y-72872959D01*
X219000001Y-73051363D01*
X219000000Y-104724420D01*
X218945015Y-105108364D01*
X218805628Y-105414928D01*
X218585804Y-105670047D01*
X218303207Y-105853218D01*
X217957043Y-105956743D01*
X217778649Y-105970000D01*
X133400580Y-105970000D01*
X133016636Y-105915015D01*
X132710072Y-105775628D01*
X132454953Y-105555804D01*
X132271782Y-105273207D01*
X132168257Y-104927043D01*
X132155000Y-104748649D01*
X132155000Y-103795750D01*
X132475000Y-103795750D01*
X132475000Y-104636310D01*
X132571673Y-104869699D01*
X132750302Y-105048327D01*
X132983691Y-105145000D01*
X134074250Y-105145000D01*
X134233000Y-104986250D01*
X134233000Y-103637000D01*
X134487000Y-103637000D01*
X134487000Y-104986250D01*
X134645750Y-105145000D01*
X135736309Y-105145000D01*
X135969698Y-105048327D01*
X136148327Y-104869699D01*
X136245000Y-104636310D01*
X136245000Y-103795750D01*
X137975000Y-103795750D01*
X137975000Y-104636310D01*
X138071673Y-104869699D01*
X138250302Y-105048327D01*
X138483691Y-105145000D01*
X139574250Y-105145000D01*
X139733000Y-104986250D01*
X139733000Y-103637000D01*
X139987000Y-103637000D01*
X139987000Y-104986250D01*
X140145750Y-105145000D01*
X141236309Y-105145000D01*
X141469698Y-105048327D01*
X141648327Y-104869699D01*
X141745000Y-104636310D01*
X141745000Y-103795750D01*
X141744137Y-103794887D01*
X152570000Y-103794887D01*
X152570000Y-104485113D01*
X152834138Y-105122799D01*
X153322201Y-105610862D01*
X153959887Y-105875000D01*
X154650113Y-105875000D01*
X155287799Y-105610862D01*
X155775862Y-105122799D01*
X156040000Y-104485113D01*
X156040000Y-103794887D01*
X155775862Y-103157201D01*
X155287799Y-102669138D01*
X154650113Y-102405000D01*
X153959887Y-102405000D01*
X153322201Y-102669138D01*
X152834138Y-103157201D01*
X152570000Y-103794887D01*
X141744137Y-103794887D01*
X141586250Y-103637000D01*
X139987000Y-103637000D01*
X139733000Y-103637000D01*
X138133750Y-103637000D01*
X137975000Y-103795750D01*
X136245000Y-103795750D01*
X136086250Y-103637000D01*
X134487000Y-103637000D01*
X134233000Y-103637000D01*
X132633750Y-103637000D01*
X132475000Y-103795750D01*
X132155000Y-103795750D01*
X132155000Y-102383690D01*
X132475000Y-102383690D01*
X132475000Y-103224250D01*
X132633750Y-103383000D01*
X134233000Y-103383000D01*
X134233000Y-102033750D01*
X134487000Y-102033750D01*
X134487000Y-103383000D01*
X136086250Y-103383000D01*
X136245000Y-103224250D01*
X136245000Y-102383690D01*
X137975000Y-102383690D01*
X137975000Y-103224250D01*
X138133750Y-103383000D01*
X139733000Y-103383000D01*
X139733000Y-102033750D01*
X139987000Y-102033750D01*
X139987000Y-103383000D01*
X141586250Y-103383000D01*
X141745000Y-103224250D01*
X141745000Y-102383690D01*
X141648327Y-102150301D01*
X141469698Y-101971673D01*
X141236309Y-101875000D01*
X140145750Y-101875000D01*
X139987000Y-102033750D01*
X139733000Y-102033750D01*
X139574250Y-101875000D01*
X138483691Y-101875000D01*
X138250302Y-101971673D01*
X138071673Y-102150301D01*
X137975000Y-102383690D01*
X136245000Y-102383690D01*
X136148327Y-102150301D01*
X135969698Y-101971673D01*
X135736309Y-101875000D01*
X134645750Y-101875000D01*
X134487000Y-102033750D01*
X134233000Y-102033750D01*
X134074250Y-101875000D01*
X132983691Y-101875000D01*
X132750302Y-101971673D01*
X132571673Y-102150301D01*
X132475000Y-102383690D01*
X132155000Y-102383690D01*
X132155000Y-96644180D01*
X136275000Y-96644180D01*
X136275000Y-97075820D01*
X136440182Y-97474603D01*
X136745397Y-97779818D01*
X137144180Y-97945000D01*
X137575820Y-97945000D01*
X137974603Y-97779818D01*
X138162560Y-97591861D01*
X138162560Y-97710000D01*
X138192397Y-97860000D01*
X138162560Y-98010000D01*
X138162560Y-98510000D01*
X138192397Y-98660000D01*
X138162560Y-98810000D01*
X138162560Y-99310000D01*
X138192397Y-99460000D01*
X138162560Y-99610000D01*
X138162560Y-100110000D01*
X138189936Y-100247631D01*
X138175000Y-100283690D01*
X138175000Y-100376250D01*
X138323258Y-100524508D01*
X138328931Y-100532998D01*
X138175000Y-100532998D01*
X138175000Y-100540579D01*
X137974603Y-100340182D01*
X137575820Y-100175000D01*
X137144180Y-100175000D01*
X136745397Y-100340182D01*
X136440182Y-100645397D01*
X136275000Y-101044180D01*
X136275000Y-101475820D01*
X136440182Y-101874603D01*
X136745397Y-102179818D01*
X137144180Y-102345000D01*
X137575820Y-102345000D01*
X137974603Y-102179818D01*
X138279818Y-101874603D01*
X138445000Y-101475820D01*
X138445000Y-101443025D01*
X138450302Y-101448327D01*
X138683691Y-101545000D01*
X139674250Y-101545000D01*
X139833000Y-101386250D01*
X139833000Y-100785000D01*
X140087000Y-100785000D01*
X140087000Y-101386250D01*
X140245750Y-101545000D01*
X141236309Y-101545000D01*
X141469698Y-101448327D01*
X141648327Y-101269699D01*
X141745000Y-101036310D01*
X141745000Y-100943750D01*
X141586250Y-100785000D01*
X140087000Y-100785000D01*
X139833000Y-100785000D01*
X139813000Y-100785000D01*
X139813000Y-100757440D01*
X141110000Y-100757440D01*
X141357765Y-100708157D01*
X141389593Y-100686890D01*
X145243524Y-100686890D01*
X145413355Y-101096924D01*
X145803642Y-101525183D01*
X146328108Y-101771486D01*
X146558000Y-101650819D01*
X146558000Y-100457000D01*
X146812000Y-100457000D01*
X146812000Y-101650819D01*
X147041892Y-101771486D01*
X147566358Y-101525183D01*
X147956645Y-101096924D01*
X148126476Y-100686890D01*
X148088933Y-100615750D01*
X154210000Y-100615750D01*
X154210000Y-101081310D01*
X154306673Y-101314699D01*
X154485302Y-101493327D01*
X154718691Y-101590000D01*
X155309250Y-101590000D01*
X155468000Y-101431250D01*
X155468000Y-100457000D01*
X154368750Y-100457000D01*
X154210000Y-100615750D01*
X148088933Y-100615750D01*
X148005155Y-100457000D01*
X146812000Y-100457000D01*
X146558000Y-100457000D01*
X145364845Y-100457000D01*
X145243524Y-100686890D01*
X141389593Y-100686890D01*
X141567809Y-100567809D01*
X141596742Y-100524508D01*
X141745000Y-100376250D01*
X141745000Y-100283690D01*
X141730064Y-100247631D01*
X141757440Y-100110000D01*
X141757440Y-99610000D01*
X141727603Y-99460000D01*
X141757440Y-99310000D01*
X141757440Y-98810000D01*
X141727603Y-98660000D01*
X141757440Y-98510000D01*
X141757440Y-98270000D01*
X145187560Y-98270000D01*
X145187560Y-98640000D01*
X145236843Y-98887765D01*
X145377191Y-99097809D01*
X145587235Y-99238157D01*
X145690708Y-99258739D01*
X145413355Y-99563076D01*
X145243524Y-99973110D01*
X145364845Y-100203000D01*
X146558000Y-100203000D01*
X146558000Y-100183000D01*
X146812000Y-100183000D01*
X146812000Y-100203000D01*
X148005155Y-100203000D01*
X148126476Y-99973110D01*
X147956645Y-99563076D01*
X147679292Y-99258739D01*
X147782765Y-99238157D01*
X147992809Y-99097809D01*
X148014634Y-99065146D01*
X148795833Y-99846346D01*
X148841022Y-99913976D01*
X149108953Y-100093002D01*
X149345225Y-100139999D01*
X149345229Y-100139999D01*
X149424998Y-100155866D01*
X149504767Y-100139999D01*
X154305749Y-100139999D01*
X154368750Y-100203000D01*
X155468000Y-100203000D01*
X155468000Y-100183000D01*
X155722000Y-100183000D01*
X155722000Y-100203000D01*
X155742000Y-100203000D01*
X155742000Y-100457000D01*
X155722000Y-100457000D01*
X155722000Y-101431250D01*
X155880750Y-101590000D01*
X156471309Y-101590000D01*
X156704698Y-101493327D01*
X156846346Y-101351680D01*
X156887191Y-101412809D01*
X157097235Y-101553157D01*
X157345000Y-101602440D01*
X158845000Y-101602440D01*
X159032560Y-101565132D01*
X159032560Y-101792500D01*
X159081843Y-102040265D01*
X159222191Y-102250309D01*
X159432235Y-102390657D01*
X159680000Y-102439940D01*
X161181927Y-102439940D01*
X161400834Y-102658847D01*
X161446023Y-102726477D01*
X161713954Y-102905503D01*
X161950226Y-102952500D01*
X161950227Y-102952500D01*
X162030000Y-102968368D01*
X162109773Y-102952500D01*
X177617808Y-102952500D01*
X177697581Y-102968368D01*
X177777354Y-102952500D01*
X177777355Y-102952500D01*
X178013627Y-102905503D01*
X178281558Y-102726477D01*
X178326749Y-102658844D01*
X179141847Y-101843747D01*
X179209477Y-101798558D01*
X179232135Y-101764648D01*
X179914335Y-102446848D01*
X179959524Y-102514478D01*
X180227455Y-102693504D01*
X180463727Y-102740501D01*
X180463728Y-102740501D01*
X180543501Y-102756369D01*
X180623274Y-102740501D01*
X184683838Y-102740501D01*
X184267138Y-103157201D01*
X184003000Y-103794887D01*
X184003000Y-104485113D01*
X184267138Y-105122799D01*
X184755201Y-105610862D01*
X185392887Y-105875000D01*
X186083113Y-105875000D01*
X186720799Y-105610862D01*
X187208862Y-105122799D01*
X187473000Y-104485113D01*
X187473000Y-103794887D01*
X215435000Y-103794887D01*
X215435000Y-104485113D01*
X215699138Y-105122799D01*
X216187201Y-105610862D01*
X216824887Y-105875000D01*
X217515113Y-105875000D01*
X218152799Y-105610862D01*
X218640862Y-105122799D01*
X218905000Y-104485113D01*
X218905000Y-103794887D01*
X218640862Y-103157201D01*
X218152799Y-102669138D01*
X217515113Y-102405000D01*
X216824887Y-102405000D01*
X216187201Y-102669138D01*
X215699138Y-103157201D01*
X215435000Y-103794887D01*
X187473000Y-103794887D01*
X187208862Y-103157201D01*
X186792162Y-102740501D01*
X195808728Y-102740501D01*
X195888501Y-102756369D01*
X195968274Y-102740501D01*
X195968275Y-102740501D01*
X196204547Y-102693504D01*
X196472478Y-102514478D01*
X196517669Y-102446845D01*
X201492264Y-97472250D01*
X201828500Y-97472250D01*
X201828500Y-98312809D01*
X201925173Y-98546198D01*
X202103801Y-98724827D01*
X202337190Y-98821500D01*
X202977750Y-98821500D01*
X203136500Y-98662750D01*
X203136500Y-97313500D01*
X203390500Y-97313500D01*
X203390500Y-98662750D01*
X203549250Y-98821500D01*
X204189810Y-98821500D01*
X204423199Y-98724827D01*
X204601827Y-98546198D01*
X204698500Y-98312809D01*
X204698500Y-98228470D01*
X207520135Y-98228470D01*
X207679918Y-98547239D01*
X208470687Y-98857223D01*
X209319887Y-98840997D01*
X210029082Y-98547239D01*
X210188865Y-98228470D01*
X208854500Y-96894105D01*
X207520135Y-98228470D01*
X204698500Y-98228470D01*
X204698500Y-97472250D01*
X204539750Y-97313500D01*
X203390500Y-97313500D01*
X203136500Y-97313500D01*
X201987250Y-97313500D01*
X201828500Y-97472250D01*
X201492264Y-97472250D01*
X201946132Y-97018382D01*
X201987250Y-97059500D01*
X203136500Y-97059500D01*
X203136500Y-97039500D01*
X203390500Y-97039500D01*
X203390500Y-97059500D01*
X204539750Y-97059500D01*
X204698500Y-96900750D01*
X204698500Y-96330687D01*
X206711777Y-96330687D01*
X206728003Y-97179887D01*
X207021761Y-97889082D01*
X207340530Y-98048865D01*
X208674895Y-96714500D01*
X209034105Y-96714500D01*
X210368470Y-98048865D01*
X210687239Y-97889082D01*
X210997223Y-97098313D01*
X210980997Y-96249113D01*
X210687239Y-95539918D01*
X210368470Y-95380135D01*
X209034105Y-96714500D01*
X208674895Y-96714500D01*
X207340530Y-95380135D01*
X207021761Y-95539918D01*
X206711777Y-96330687D01*
X204698500Y-96330687D01*
X204698500Y-96060191D01*
X204601827Y-95826802D01*
X204423199Y-95648173D01*
X204189810Y-95551500D01*
X203549250Y-95551500D01*
X203390502Y-95710248D01*
X203390502Y-95574013D01*
X203763985Y-95200530D01*
X207520135Y-95200530D01*
X208854500Y-96534895D01*
X210188865Y-95200530D01*
X210029082Y-94881761D01*
X209238313Y-94571777D01*
X208389113Y-94588003D01*
X207679918Y-94881761D01*
X207520135Y-95200530D01*
X203763985Y-95200530D01*
X203779847Y-95184668D01*
X203847477Y-95139479D01*
X203935173Y-95008232D01*
X204026503Y-94871549D01*
X204033984Y-94833940D01*
X204063500Y-94833940D01*
X204311265Y-94784657D01*
X204521309Y-94644309D01*
X204661657Y-94434265D01*
X204710940Y-94186500D01*
X204710940Y-93996500D01*
X205067813Y-93996500D01*
X205399960Y-94328647D01*
X205909006Y-94539500D01*
X206459994Y-94539500D01*
X206969040Y-94328647D01*
X207335236Y-93962451D01*
X207561206Y-93917503D01*
X207829137Y-93738477D01*
X207874328Y-93670844D01*
X213558848Y-87986325D01*
X213626477Y-87941137D01*
X213805503Y-87673206D01*
X213852500Y-87436934D01*
X213852500Y-87436933D01*
X213868368Y-87357160D01*
X213852500Y-87277387D01*
X213852500Y-82566274D01*
X213868368Y-82486500D01*
X213805503Y-82170453D01*
X213714068Y-82033612D01*
X213626477Y-81902523D01*
X213558847Y-81857334D01*
X207485169Y-75783657D01*
X207439978Y-75716024D01*
X207172047Y-75536998D01*
X206935775Y-75490001D01*
X206935774Y-75490001D01*
X206856001Y-75474133D01*
X206776228Y-75490001D01*
X203770460Y-75490001D01*
X203745811Y-75430494D01*
X203314008Y-74998691D01*
X202749831Y-74765001D01*
X202139171Y-74765001D01*
X201574994Y-74998691D01*
X201405776Y-75167909D01*
X201402658Y-75152236D01*
X201262310Y-74942192D01*
X201052266Y-74801844D01*
X200804501Y-74752561D01*
X199004501Y-74752561D01*
X198756736Y-74801844D01*
X198546692Y-74942192D01*
X198406344Y-75152236D01*
X198357061Y-75400001D01*
X198357061Y-75503500D01*
X198051560Y-75503500D01*
X198024157Y-75365735D01*
X197883809Y-75155691D01*
X197673765Y-75015343D01*
X197426000Y-74966060D01*
X195926000Y-74966060D01*
X195678235Y-75015343D01*
X195468191Y-75155691D01*
X195327843Y-75365735D01*
X195322279Y-75393709D01*
X195264327Y-75253801D01*
X195085698Y-75075173D01*
X194852309Y-74978500D01*
X194261750Y-74978500D01*
X194103000Y-75137250D01*
X194103000Y-76136500D01*
X194123000Y-76136500D01*
X194123000Y-76390500D01*
X194103000Y-76390500D01*
X194103000Y-77389750D01*
X194261750Y-77548500D01*
X194852309Y-77548500D01*
X195085698Y-77451827D01*
X195264327Y-77273199D01*
X195322279Y-77133291D01*
X195327843Y-77161265D01*
X195468191Y-77371309D01*
X195678235Y-77511657D01*
X195926000Y-77560940D01*
X197426000Y-77560940D01*
X197673765Y-77511657D01*
X197883809Y-77371309D01*
X198024157Y-77161265D01*
X198051560Y-77023500D01*
X198357061Y-77023500D01*
X198357061Y-77200001D01*
X198406344Y-77447766D01*
X198546692Y-77657810D01*
X198756736Y-77798158D01*
X199004501Y-77847441D01*
X200804501Y-77847441D01*
X201052266Y-77798158D01*
X201262310Y-77657810D01*
X201402658Y-77447766D01*
X201405776Y-77432093D01*
X201574994Y-77601311D01*
X202139171Y-77835001D01*
X202749831Y-77835001D01*
X203314008Y-77601311D01*
X203745811Y-77169508D01*
X203770460Y-77110001D01*
X206520489Y-77110001D01*
X212232501Y-82822014D01*
X212232500Y-87021647D01*
X207121417Y-92132730D01*
X206969040Y-91980353D01*
X206737630Y-91884500D01*
X206969040Y-91788647D01*
X207358647Y-91399040D01*
X207569500Y-90889994D01*
X207569500Y-90339006D01*
X207358647Y-89829960D01*
X207128187Y-89599500D01*
X207358647Y-89369040D01*
X207569500Y-88859994D01*
X207569500Y-88309006D01*
X207358647Y-87799960D01*
X206969040Y-87410353D01*
X206753570Y-87321103D01*
X206908423Y-87256960D01*
X206976412Y-87016017D01*
X206184500Y-86224105D01*
X205392588Y-87016017D01*
X205460577Y-87256960D01*
X205627158Y-87316245D01*
X205399960Y-87410353D01*
X205010353Y-87799960D01*
X205001017Y-87822500D01*
X204782560Y-87822500D01*
X204755157Y-87684735D01*
X204614809Y-87474691D01*
X204404765Y-87334343D01*
X204157000Y-87285060D01*
X202657000Y-87285060D01*
X202409235Y-87334343D01*
X202199191Y-87474691D01*
X202058843Y-87684735D01*
X202057000Y-87694000D01*
X202055157Y-87684735D01*
X201914809Y-87474691D01*
X201704765Y-87334343D01*
X201457000Y-87285060D01*
X201355483Y-87285060D01*
X201254929Y-87134571D01*
X201191472Y-87092171D01*
X200800331Y-86701029D01*
X200757929Y-86637571D01*
X200506537Y-86469596D01*
X200284852Y-86425500D01*
X200284847Y-86425500D01*
X200210000Y-86410612D01*
X200135153Y-86425500D01*
X195069302Y-86425500D01*
X194856332Y-86212530D01*
X194813930Y-86149072D01*
X194720009Y-86086316D01*
X194822172Y-85839671D01*
X204787299Y-85839671D01*
X204815270Y-86389948D01*
X204972040Y-86768423D01*
X205212983Y-86836412D01*
X206004895Y-86044500D01*
X206364105Y-86044500D01*
X207156017Y-86836412D01*
X207396960Y-86768423D01*
X207581701Y-86249329D01*
X207553730Y-85699052D01*
X207396960Y-85320577D01*
X207156017Y-85252588D01*
X206364105Y-86044500D01*
X206004895Y-86044500D01*
X205212983Y-85252588D01*
X204972040Y-85320577D01*
X204787299Y-85839671D01*
X194822172Y-85839671D01*
X194837000Y-85803874D01*
X194837000Y-85392126D01*
X194704807Y-85072983D01*
X205392588Y-85072983D01*
X206184500Y-85864895D01*
X206976412Y-85072983D01*
X206908423Y-84832040D01*
X206389329Y-84647299D01*
X205839052Y-84675270D01*
X205460577Y-84832040D01*
X205392588Y-85072983D01*
X194704807Y-85072983D01*
X194679431Y-85011720D01*
X194388280Y-84720569D01*
X194150660Y-84622144D01*
X194170972Y-84601832D01*
X194234428Y-84559432D01*
X194249751Y-84536500D01*
X194775750Y-84536500D01*
X194934500Y-84377750D01*
X194934500Y-83128500D01*
X194914500Y-83128500D01*
X194914500Y-82874500D01*
X194934500Y-82874500D01*
X194934500Y-82854500D01*
X195188500Y-82854500D01*
X195188500Y-82874500D01*
X195208500Y-82874500D01*
X195208500Y-83128500D01*
X195188500Y-83128500D01*
X195188500Y-84377750D01*
X195347250Y-84536500D01*
X196237809Y-84536500D01*
X196471198Y-84439827D01*
X196649827Y-84261199D01*
X196673454Y-84204158D01*
X196702673Y-84274698D01*
X196881301Y-84453327D01*
X197114690Y-84550000D01*
X197580250Y-84550000D01*
X197739000Y-84391250D01*
X197739000Y-83292000D01*
X197993000Y-83292000D01*
X197993000Y-84391250D01*
X198151750Y-84550000D01*
X198617310Y-84550000D01*
X198717572Y-84508470D01*
X207520135Y-84508470D01*
X207679918Y-84827239D01*
X208470687Y-85137223D01*
X209319887Y-85120997D01*
X210029082Y-84827239D01*
X210188865Y-84508470D01*
X208854500Y-83174105D01*
X207520135Y-84508470D01*
X198717572Y-84508470D01*
X198850699Y-84453327D01*
X199029327Y-84274698D01*
X199126000Y-84041309D01*
X199126000Y-83450750D01*
X198967250Y-83292000D01*
X197993000Y-83292000D01*
X197739000Y-83292000D01*
X197719000Y-83292000D01*
X197719000Y-83038000D01*
X197739000Y-83038000D01*
X197739000Y-83018000D01*
X197993000Y-83018000D01*
X197993000Y-83038000D01*
X198967250Y-83038000D01*
X199126000Y-82879250D01*
X199126000Y-82610687D01*
X206711777Y-82610687D01*
X206728003Y-83459887D01*
X207021761Y-84169082D01*
X207340530Y-84328865D01*
X208674895Y-82994500D01*
X209034105Y-82994500D01*
X210368470Y-84328865D01*
X210687239Y-84169082D01*
X210997223Y-83378313D01*
X210980997Y-82529113D01*
X210687239Y-81819918D01*
X210368470Y-81660135D01*
X209034105Y-82994500D01*
X208674895Y-82994500D01*
X207340530Y-81660135D01*
X207021761Y-81819918D01*
X206711777Y-82610687D01*
X199126000Y-82610687D01*
X199126000Y-82288691D01*
X199029327Y-82055302D01*
X198887680Y-81913654D01*
X198948809Y-81872809D01*
X199089157Y-81662765D01*
X199125405Y-81480530D01*
X207520135Y-81480530D01*
X208854500Y-82814895D01*
X210188865Y-81480530D01*
X210029082Y-81161761D01*
X209238313Y-80851777D01*
X208389113Y-80868003D01*
X207679918Y-81161761D01*
X207520135Y-81480530D01*
X199125405Y-81480530D01*
X199138440Y-81415000D01*
X199138440Y-79915000D01*
X199089157Y-79667235D01*
X198948809Y-79457191D01*
X198738765Y-79316843D01*
X198491000Y-79267560D01*
X197241000Y-79267560D01*
X196993235Y-79316843D01*
X196783191Y-79457191D01*
X196711727Y-79564143D01*
X196709657Y-79553735D01*
X196569309Y-79343691D01*
X196359265Y-79203343D01*
X196111500Y-79154060D01*
X194011500Y-79154060D01*
X193763735Y-79203343D01*
X193612453Y-79304427D01*
X193571198Y-79263173D01*
X193337809Y-79166500D01*
X192447250Y-79166500D01*
X192288500Y-79325250D01*
X192288500Y-80574500D01*
X192308500Y-80574500D01*
X192308500Y-80828500D01*
X192288500Y-80828500D01*
X192288500Y-80848500D01*
X192034500Y-80848500D01*
X192034500Y-80828500D01*
X192014500Y-80828500D01*
X192014500Y-80574500D01*
X192034500Y-80574500D01*
X192034500Y-79325250D01*
X191875750Y-79166500D01*
X190985191Y-79166500D01*
X190751802Y-79263173D01*
X190573173Y-79441801D01*
X190476500Y-79675190D01*
X190476500Y-80011636D01*
X190376309Y-79861691D01*
X190315180Y-79820846D01*
X190456827Y-79679198D01*
X190553500Y-79445809D01*
X190553500Y-78855250D01*
X190394750Y-78696500D01*
X189420500Y-78696500D01*
X189420500Y-78716500D01*
X189166500Y-78716500D01*
X189166500Y-78696500D01*
X188192250Y-78696500D01*
X188033500Y-78855250D01*
X188033500Y-79445809D01*
X188130173Y-79679198D01*
X188271820Y-79820846D01*
X188210691Y-79861691D01*
X188070343Y-80071735D01*
X188021060Y-80319500D01*
X188021060Y-81819500D01*
X188070343Y-82067265D01*
X188209856Y-82276060D01*
X188083000Y-82276060D01*
X187960000Y-82300526D01*
X187837000Y-82276060D01*
X187583000Y-82276060D01*
X187460000Y-82300526D01*
X187337000Y-82276060D01*
X187083000Y-82276060D01*
X186960000Y-82300526D01*
X186837000Y-82276060D01*
X186583000Y-82276060D01*
X186460000Y-82300526D01*
X186337000Y-82276060D01*
X186083000Y-82276060D01*
X185914940Y-82309489D01*
X185914940Y-81835500D01*
X185865657Y-81587735D01*
X185725309Y-81377691D01*
X185515265Y-81237343D01*
X185267500Y-81188060D01*
X183667500Y-81188060D01*
X183419735Y-81237343D01*
X183209691Y-81377691D01*
X183139516Y-81482714D01*
X180867330Y-79210529D01*
X180824928Y-79147070D01*
X180786286Y-79121250D01*
X183032500Y-79121250D01*
X183032500Y-79961809D01*
X183129173Y-80195198D01*
X183307801Y-80373827D01*
X183541190Y-80470500D01*
X184181750Y-80470500D01*
X184340500Y-80311750D01*
X184340500Y-78962500D01*
X184594500Y-78962500D01*
X184594500Y-80311750D01*
X184753250Y-80470500D01*
X185393810Y-80470500D01*
X185627199Y-80373827D01*
X185805827Y-80195198D01*
X185902500Y-79961809D01*
X185902500Y-79121250D01*
X185743750Y-78962500D01*
X184594500Y-78962500D01*
X184340500Y-78962500D01*
X183191250Y-78962500D01*
X183032500Y-79121250D01*
X180786286Y-79121250D01*
X180573536Y-78979095D01*
X180351851Y-78934999D01*
X180351846Y-78934999D01*
X180276999Y-78920111D01*
X180202152Y-78934999D01*
X175921847Y-78934999D01*
X175847000Y-78920111D01*
X175772153Y-78934999D01*
X175772149Y-78934999D01*
X175550464Y-78979095D01*
X175523470Y-78997132D01*
X175362527Y-79104670D01*
X175362525Y-79104672D01*
X175299072Y-79147070D01*
X175256674Y-79210524D01*
X175094638Y-79372560D01*
X174022000Y-79372560D01*
X173774235Y-79421843D01*
X173564191Y-79562191D01*
X173423843Y-79772235D01*
X173374560Y-80020000D01*
X173374560Y-81270000D01*
X173423843Y-81517765D01*
X173564191Y-81727809D01*
X173774235Y-81868157D01*
X173819497Y-81877160D01*
X173710600Y-81877160D01*
X173462835Y-81926443D01*
X173252791Y-82066791D01*
X173112443Y-82276835D01*
X173063160Y-82524600D01*
X173063160Y-83083400D01*
X173112443Y-83331165D01*
X173184497Y-83439000D01*
X173112443Y-83546835D01*
X173063160Y-83794600D01*
X173063160Y-83871758D01*
X169859931Y-80668530D01*
X169817529Y-80605071D01*
X169566137Y-80437096D01*
X169344452Y-80393000D01*
X169344447Y-80393000D01*
X169269600Y-80378112D01*
X169194753Y-80393000D01*
X168526486Y-80393000D01*
X168885185Y-80244422D01*
X169302922Y-79826685D01*
X169529000Y-79280885D01*
X169529000Y-78690115D01*
X169302922Y-78144315D01*
X168885185Y-77726578D01*
X168843210Y-77709191D01*
X183032500Y-77709191D01*
X183032500Y-78549750D01*
X183191250Y-78708500D01*
X184340500Y-78708500D01*
X184340500Y-77359250D01*
X184594500Y-77359250D01*
X184594500Y-78708500D01*
X185743750Y-78708500D01*
X185902500Y-78549750D01*
X185902500Y-77709191D01*
X185895873Y-77693191D01*
X188033500Y-77693191D01*
X188033500Y-78283750D01*
X188192250Y-78442500D01*
X189166500Y-78442500D01*
X189166500Y-77343250D01*
X189420500Y-77343250D01*
X189420500Y-78442500D01*
X190394750Y-78442500D01*
X190553500Y-78283750D01*
X190553500Y-77693191D01*
X190456827Y-77459802D01*
X190278199Y-77281173D01*
X190044810Y-77184500D01*
X189579250Y-77184500D01*
X189420500Y-77343250D01*
X189166500Y-77343250D01*
X189007750Y-77184500D01*
X188542190Y-77184500D01*
X188308801Y-77281173D01*
X188130173Y-77459802D01*
X188033500Y-77693191D01*
X185895873Y-77693191D01*
X185805827Y-77475802D01*
X185627199Y-77297173D01*
X185393810Y-77200500D01*
X184753250Y-77200500D01*
X184594500Y-77359250D01*
X184340500Y-77359250D01*
X184181750Y-77200500D01*
X183541190Y-77200500D01*
X183307801Y-77297173D01*
X183129173Y-77475802D01*
X183032500Y-77709191D01*
X168843210Y-77709191D01*
X168339385Y-77500500D01*
X167748615Y-77500500D01*
X167202815Y-77726578D01*
X166785078Y-78144315D01*
X166559000Y-78690115D01*
X166559000Y-79280885D01*
X166785078Y-79826685D01*
X167202815Y-80244422D01*
X167561514Y-80393000D01*
X164618346Y-80393000D01*
X164543499Y-80378112D01*
X164468652Y-80393000D01*
X164468648Y-80393000D01*
X164246963Y-80437096D01*
X164189543Y-80475463D01*
X164141120Y-80507818D01*
X162995372Y-79362070D01*
X163029000Y-79280885D01*
X163029000Y-78690115D01*
X162802922Y-78144315D01*
X162385185Y-77726578D01*
X161839385Y-77500500D01*
X161248615Y-77500500D01*
X160702815Y-77726578D01*
X160448879Y-77980514D01*
X160442657Y-77949235D01*
X160302309Y-77739191D01*
X160092265Y-77598843D01*
X160083000Y-77597000D01*
X160092265Y-77595157D01*
X160302309Y-77454809D01*
X160442657Y-77244765D01*
X160491940Y-76997000D01*
X160491940Y-76549250D01*
X192591000Y-76549250D01*
X192591000Y-77039810D01*
X192687673Y-77273199D01*
X192866302Y-77451827D01*
X193099691Y-77548500D01*
X193690250Y-77548500D01*
X193849000Y-77389750D01*
X193849000Y-76390500D01*
X192749750Y-76390500D01*
X192591000Y-76549250D01*
X160491940Y-76549250D01*
X160491940Y-75571172D01*
X160564938Y-75644170D01*
X160679648Y-75529460D01*
X160759920Y-75780759D01*
X161315279Y-75982218D01*
X161905458Y-75955815D01*
X162328080Y-75780759D01*
X162408353Y-75529458D01*
X161544000Y-74665105D01*
X161529858Y-74679248D01*
X161350253Y-74499643D01*
X161364395Y-74485500D01*
X161723605Y-74485500D01*
X162587958Y-75349853D01*
X162839259Y-75269580D01*
X163040718Y-74714221D01*
X163017271Y-74190115D01*
X166559000Y-74190115D01*
X166559000Y-74780885D01*
X166785078Y-75326685D01*
X167202815Y-75744422D01*
X167748615Y-75970500D01*
X168339385Y-75970500D01*
X168885185Y-75744422D01*
X169142417Y-75487190D01*
X192591000Y-75487190D01*
X192591000Y-75977750D01*
X192749750Y-76136500D01*
X193849000Y-76136500D01*
X193849000Y-75137250D01*
X193690250Y-74978500D01*
X193099691Y-74978500D01*
X192866302Y-75075173D01*
X192687673Y-75253801D01*
X192591000Y-75487190D01*
X169142417Y-75487190D01*
X169302922Y-75326685D01*
X169529000Y-74780885D01*
X169529000Y-74190115D01*
X169302922Y-73644315D01*
X168973494Y-73314887D01*
X184003000Y-73314887D01*
X184003000Y-74005113D01*
X184267138Y-74642799D01*
X184755201Y-75130862D01*
X185392887Y-75395000D01*
X186083113Y-75395000D01*
X186720799Y-75130862D01*
X187208862Y-74642799D01*
X187473000Y-74005113D01*
X187473000Y-73314887D01*
X215435000Y-73314887D01*
X215435000Y-74005113D01*
X215699138Y-74642799D01*
X216187201Y-75130862D01*
X216824887Y-75395000D01*
X217515113Y-75395000D01*
X218152799Y-75130862D01*
X218640862Y-74642799D01*
X218905000Y-74005113D01*
X218905000Y-73314887D01*
X218640862Y-72677201D01*
X218152799Y-72189138D01*
X217515113Y-71925000D01*
X216824887Y-71925000D01*
X216187201Y-72189138D01*
X215699138Y-72677201D01*
X215435000Y-73314887D01*
X187473000Y-73314887D01*
X187208862Y-72677201D01*
X186720799Y-72189138D01*
X186083113Y-71925000D01*
X185392887Y-71925000D01*
X184755201Y-72189138D01*
X184267138Y-72677201D01*
X184003000Y-73314887D01*
X168973494Y-73314887D01*
X168885185Y-73226578D01*
X168339385Y-73000500D01*
X167748615Y-73000500D01*
X167202815Y-73226578D01*
X166785078Y-73644315D01*
X166559000Y-74190115D01*
X163017271Y-74190115D01*
X163014315Y-74124042D01*
X162839259Y-73701420D01*
X162587958Y-73621147D01*
X161723605Y-74485500D01*
X161364395Y-74485500D01*
X160500042Y-73621147D01*
X160248741Y-73701420D01*
X160047282Y-74256779D01*
X160073685Y-74846958D01*
X160096291Y-74901533D01*
X160092265Y-74898843D01*
X159844500Y-74849560D01*
X158544500Y-74849560D01*
X158296735Y-74898843D01*
X158086691Y-75039191D01*
X157946343Y-75249235D01*
X157897060Y-75497000D01*
X157897060Y-75534349D01*
X157875780Y-75513069D01*
X157495374Y-75355500D01*
X157083626Y-75355500D01*
X156703220Y-75513069D01*
X156551682Y-75664607D01*
X156501463Y-75674596D01*
X156250071Y-75842571D01*
X156207671Y-75906027D01*
X155877638Y-76236060D01*
X154905000Y-76236060D01*
X154657235Y-76285343D01*
X154447191Y-76425691D01*
X154306843Y-76635735D01*
X154305000Y-76645000D01*
X154303157Y-76635735D01*
X154162809Y-76425691D01*
X153952765Y-76285343D01*
X153705000Y-76236060D01*
X152205000Y-76236060D01*
X151957235Y-76285343D01*
X151747191Y-76425691D01*
X151606843Y-76635735D01*
X151579440Y-76773500D01*
X149003278Y-76773500D01*
X148830026Y-76355233D01*
X148299767Y-75824974D01*
X147606950Y-75538000D01*
X146857050Y-75538000D01*
X146447259Y-75707741D01*
X146617000Y-75297950D01*
X146617000Y-74548050D01*
X146330026Y-73855233D01*
X145799767Y-73324974D01*
X145775415Y-73314887D01*
X152570000Y-73314887D01*
X152570000Y-74005113D01*
X152834138Y-74642799D01*
X153322201Y-75130862D01*
X153959887Y-75395000D01*
X154650113Y-75395000D01*
X155287799Y-75130862D01*
X155775862Y-74642799D01*
X156040000Y-74005113D01*
X156040000Y-73441542D01*
X160679647Y-73441542D01*
X161544000Y-74305895D01*
X162408353Y-73441542D01*
X162328080Y-73190241D01*
X161772721Y-72988782D01*
X161182542Y-73015185D01*
X160759920Y-73190241D01*
X160679647Y-73441542D01*
X156040000Y-73441542D01*
X156040000Y-73314887D01*
X155775862Y-72677201D01*
X155287799Y-72189138D01*
X154650113Y-71925000D01*
X153959887Y-71925000D01*
X153322201Y-72189138D01*
X152834138Y-72677201D01*
X152570000Y-73314887D01*
X145775415Y-73314887D01*
X145106950Y-73038000D01*
X144357050Y-73038000D01*
X143664233Y-73324974D01*
X143133974Y-73855233D01*
X142847000Y-74548050D01*
X142847000Y-75297950D01*
X143133974Y-75990767D01*
X143664233Y-76521026D01*
X144357050Y-76808000D01*
X145106950Y-76808000D01*
X145516741Y-76638259D01*
X145347000Y-77048050D01*
X145347000Y-77797950D01*
X145633974Y-78490767D01*
X146164233Y-79021026D01*
X146857050Y-79308000D01*
X147606950Y-79308000D01*
X148299767Y-79021026D01*
X148830026Y-78490767D01*
X148911737Y-78293500D01*
X151579440Y-78293500D01*
X151606843Y-78431265D01*
X151747191Y-78641309D01*
X151957235Y-78781657D01*
X151983317Y-78786845D01*
X151810691Y-78902191D01*
X151670343Y-79112235D01*
X151621060Y-79360000D01*
X151621060Y-80660000D01*
X151670343Y-80907765D01*
X151810691Y-81117809D01*
X152020735Y-81258157D01*
X152258501Y-81305451D01*
X152258501Y-81321697D01*
X147914717Y-85665481D01*
X147606950Y-85538000D01*
X146857050Y-85538000D01*
X146164233Y-85824974D01*
X145633974Y-86355233D01*
X145347000Y-87048050D01*
X145347000Y-87797950D01*
X145516741Y-88207741D01*
X145106950Y-88038000D01*
X144357050Y-88038000D01*
X143664233Y-88324974D01*
X143133974Y-88855233D01*
X142847000Y-89548050D01*
X142847000Y-90297950D01*
X143133974Y-90990767D01*
X143664233Y-91521026D01*
X144357050Y-91808000D01*
X145106950Y-91808000D01*
X145799767Y-91521026D01*
X145901552Y-91419241D01*
X145859132Y-91632498D01*
X145875001Y-91712276D01*
X145875000Y-96292560D01*
X145835000Y-96292560D01*
X145587235Y-96341843D01*
X145377191Y-96482191D01*
X145265064Y-96650000D01*
X141414871Y-96650000D01*
X141357765Y-96611843D01*
X141110000Y-96562560D01*
X138810000Y-96562560D01*
X138562235Y-96611843D01*
X138445000Y-96690178D01*
X138445000Y-96644180D01*
X138279818Y-96245397D01*
X137974603Y-95940182D01*
X137575820Y-95775000D01*
X137144180Y-95775000D01*
X136745397Y-95940182D01*
X136440182Y-96245397D01*
X136275000Y-96644180D01*
X132155000Y-96644180D01*
X132155000Y-94895750D01*
X132475000Y-94895750D01*
X132475000Y-95736310D01*
X132571673Y-95969699D01*
X132750302Y-96148327D01*
X132983691Y-96245000D01*
X134074250Y-96245000D01*
X134233000Y-96086250D01*
X134233000Y-94737000D01*
X134487000Y-94737000D01*
X134487000Y-96086250D01*
X134645750Y-96245000D01*
X135736309Y-96245000D01*
X135969698Y-96148327D01*
X136148327Y-95969699D01*
X136245000Y-95736310D01*
X136245000Y-94895750D01*
X137975000Y-94895750D01*
X137975000Y-95736310D01*
X138071673Y-95969699D01*
X138250302Y-96148327D01*
X138483691Y-96245000D01*
X139574250Y-96245000D01*
X139733000Y-96086250D01*
X139733000Y-94737000D01*
X139987000Y-94737000D01*
X139987000Y-96086250D01*
X140145750Y-96245000D01*
X141236309Y-96245000D01*
X141469698Y-96148327D01*
X141648327Y-95969699D01*
X141745000Y-95736310D01*
X141745000Y-94895750D01*
X141586250Y-94737000D01*
X139987000Y-94737000D01*
X139733000Y-94737000D01*
X138133750Y-94737000D01*
X137975000Y-94895750D01*
X136245000Y-94895750D01*
X136086250Y-94737000D01*
X134487000Y-94737000D01*
X134233000Y-94737000D01*
X132633750Y-94737000D01*
X132475000Y-94895750D01*
X132155000Y-94895750D01*
X132155000Y-93483690D01*
X132475000Y-93483690D01*
X132475000Y-94324250D01*
X132633750Y-94483000D01*
X134233000Y-94483000D01*
X134233000Y-93133750D01*
X134487000Y-93133750D01*
X134487000Y-94483000D01*
X136086250Y-94483000D01*
X136245000Y-94324250D01*
X136245000Y-93483690D01*
X137975000Y-93483690D01*
X137975000Y-94324250D01*
X138133750Y-94483000D01*
X139733000Y-94483000D01*
X139733000Y-93133750D01*
X139987000Y-93133750D01*
X139987000Y-94483000D01*
X141586250Y-94483000D01*
X141745000Y-94324250D01*
X141745000Y-93483690D01*
X141648327Y-93250301D01*
X141469698Y-93071673D01*
X141236309Y-92975000D01*
X140145750Y-92975000D01*
X139987000Y-93133750D01*
X139733000Y-93133750D01*
X139574250Y-92975000D01*
X138483691Y-92975000D01*
X138250302Y-93071673D01*
X138071673Y-93250301D01*
X137975000Y-93483690D01*
X136245000Y-93483690D01*
X136148327Y-93250301D01*
X135969698Y-93071673D01*
X135736309Y-92975000D01*
X134645750Y-92975000D01*
X134487000Y-93133750D01*
X134233000Y-93133750D01*
X134074250Y-92975000D01*
X132983691Y-92975000D01*
X132750302Y-93071673D01*
X132571673Y-93250301D01*
X132475000Y-93483690D01*
X132155000Y-93483690D01*
X132155000Y-87048050D01*
X132847000Y-87048050D01*
X132847000Y-87797950D01*
X133133974Y-88490767D01*
X133664233Y-89021026D01*
X134357050Y-89308000D01*
X135106950Y-89308000D01*
X135799767Y-89021026D01*
X136330026Y-88490767D01*
X136617000Y-87797950D01*
X136617000Y-87048050D01*
X136330026Y-86355233D01*
X135799767Y-85824974D01*
X135106950Y-85538000D01*
X134357050Y-85538000D01*
X133664233Y-85824974D01*
X133133974Y-86355233D01*
X132847000Y-87048050D01*
X132155000Y-87048050D01*
X132155000Y-83756320D01*
X143578285Y-83756320D01*
X143707533Y-84049123D01*
X144407806Y-84317388D01*
X145157435Y-84297250D01*
X145756467Y-84049123D01*
X145885715Y-83756320D01*
X144732000Y-82602605D01*
X143578285Y-83756320D01*
X132155000Y-83756320D01*
X132155000Y-82098806D01*
X142837612Y-82098806D01*
X142857750Y-82848435D01*
X143105877Y-83447467D01*
X143398680Y-83576715D01*
X144552395Y-82423000D01*
X144911605Y-82423000D01*
X146065320Y-83576715D01*
X146358123Y-83447467D01*
X146626388Y-82747194D01*
X146606250Y-81997565D01*
X146358123Y-81398533D01*
X146065320Y-81269285D01*
X144911605Y-82423000D01*
X144552395Y-82423000D01*
X143398680Y-81269285D01*
X143105877Y-81398533D01*
X142837612Y-82098806D01*
X132155000Y-82098806D01*
X132155000Y-81089680D01*
X143578285Y-81089680D01*
X144732000Y-82243395D01*
X145885715Y-81089680D01*
X145756467Y-80796877D01*
X145056194Y-80528612D01*
X144306565Y-80548750D01*
X143707533Y-80796877D01*
X143578285Y-81089680D01*
X132155000Y-81089680D01*
X132155000Y-77048050D01*
X132847000Y-77048050D01*
X132847000Y-77797950D01*
X133133974Y-78490767D01*
X133664233Y-79021026D01*
X134357050Y-79308000D01*
X135106950Y-79308000D01*
X135799767Y-79021026D01*
X136330026Y-78490767D01*
X136617000Y-77797950D01*
X136617000Y-77048050D01*
X136330026Y-76355233D01*
X135799767Y-75824974D01*
X135106950Y-75538000D01*
X134357050Y-75538000D01*
X133664233Y-75824974D01*
X133133974Y-76355233D01*
X132847000Y-77048050D01*
X132155000Y-77048050D01*
X132155000Y-73075580D01*
X132209985Y-72691636D01*
X132349372Y-72385072D01*
X132569199Y-72129950D01*
X132851792Y-71946782D01*
X133197959Y-71843257D01*
X133376350Y-71830000D01*
X217754420Y-71830000D01*
X218138364Y-71884985D01*
X218138364Y-71884985D01*
G37*
X218138364Y-71884985D02*
X218444928Y-72024372D01*
X218700050Y-72244199D01*
X218883218Y-72526792D01*
X218986743Y-72872959D01*
X219000001Y-73051363D01*
X219000000Y-104724420D01*
X218945015Y-105108364D01*
X218805628Y-105414928D01*
X218585804Y-105670047D01*
X218303207Y-105853218D01*
X217957043Y-105956743D01*
X217778649Y-105970000D01*
X133400580Y-105970000D01*
X133016636Y-105915015D01*
X132710072Y-105775628D01*
X132454953Y-105555804D01*
X132271782Y-105273207D01*
X132168257Y-104927043D01*
X132155000Y-104748649D01*
X132155000Y-103795750D01*
X132475000Y-103795750D01*
X132475000Y-104636310D01*
X132571673Y-104869699D01*
X132750302Y-105048327D01*
X132983691Y-105145000D01*
X134074250Y-105145000D01*
X134233000Y-104986250D01*
X134233000Y-103637000D01*
X134487000Y-103637000D01*
X134487000Y-104986250D01*
X134645750Y-105145000D01*
X135736309Y-105145000D01*
X135969698Y-105048327D01*
X136148327Y-104869699D01*
X136245000Y-104636310D01*
X136245000Y-103795750D01*
X137975000Y-103795750D01*
X137975000Y-104636310D01*
X138071673Y-104869699D01*
X138250302Y-105048327D01*
X138483691Y-105145000D01*
X139574250Y-105145000D01*
X139733000Y-104986250D01*
X139733000Y-103637000D01*
X139987000Y-103637000D01*
X139987000Y-104986250D01*
X140145750Y-105145000D01*
X141236309Y-105145000D01*
X141469698Y-105048327D01*
X141648327Y-104869699D01*
X141745000Y-104636310D01*
X141745000Y-103795750D01*
X141744137Y-103794887D01*
X152570000Y-103794887D01*
X152570000Y-104485113D01*
X152834138Y-105122799D01*
X153322201Y-105610862D01*
X153959887Y-105875000D01*
X154650113Y-105875000D01*
X155287799Y-105610862D01*
X155775862Y-105122799D01*
X156040000Y-104485113D01*
X156040000Y-103794887D01*
X155775862Y-103157201D01*
X155287799Y-102669138D01*
X154650113Y-102405000D01*
X153959887Y-102405000D01*
X153322201Y-102669138D01*
X152834138Y-103157201D01*
X152570000Y-103794887D01*
X141744137Y-103794887D01*
X141586250Y-103637000D01*
X139987000Y-103637000D01*
X139733000Y-103637000D01*
X138133750Y-103637000D01*
X137975000Y-103795750D01*
X136245000Y-103795750D01*
X136086250Y-103637000D01*
X134487000Y-103637000D01*
X134233000Y-103637000D01*
X132633750Y-103637000D01*
X132475000Y-103795750D01*
X132155000Y-103795750D01*
X132155000Y-102383690D01*
X132475000Y-102383690D01*
X132475000Y-103224250D01*
X132633750Y-103383000D01*
X134233000Y-103383000D01*
X134233000Y-102033750D01*
X134487000Y-102033750D01*
X134487000Y-103383000D01*
X136086250Y-103383000D01*
X136245000Y-103224250D01*
X136245000Y-102383690D01*
X137975000Y-102383690D01*
X137975000Y-103224250D01*
X138133750Y-103383000D01*
X139733000Y-103383000D01*
X139733000Y-102033750D01*
X139987000Y-102033750D01*
X139987000Y-103383000D01*
X141586250Y-103383000D01*
X141745000Y-103224250D01*
X141745000Y-102383690D01*
X141648327Y-102150301D01*
X141469698Y-101971673D01*
X141236309Y-101875000D01*
X140145750Y-101875000D01*
X139987000Y-102033750D01*
X139733000Y-102033750D01*
X139574250Y-101875000D01*
X138483691Y-101875000D01*
X138250302Y-101971673D01*
X138071673Y-102150301D01*
X137975000Y-102383690D01*
X136245000Y-102383690D01*
X136148327Y-102150301D01*
X135969698Y-101971673D01*
X135736309Y-101875000D01*
X134645750Y-101875000D01*
X134487000Y-102033750D01*
X134233000Y-102033750D01*
X134074250Y-101875000D01*
X132983691Y-101875000D01*
X132750302Y-101971673D01*
X132571673Y-102150301D01*
X132475000Y-102383690D01*
X132155000Y-102383690D01*
X132155000Y-96644180D01*
X136275000Y-96644180D01*
X136275000Y-97075820D01*
X136440182Y-97474603D01*
X136745397Y-97779818D01*
X137144180Y-97945000D01*
X137575820Y-97945000D01*
X137974603Y-97779818D01*
X138162560Y-97591861D01*
X138162560Y-97710000D01*
X138192397Y-97860000D01*
X138162560Y-98010000D01*
X138162560Y-98510000D01*
X138192397Y-98660000D01*
X138162560Y-98810000D01*
X138162560Y-99310000D01*
X138192397Y-99460000D01*
X138162560Y-99610000D01*
X138162560Y-100110000D01*
X138189936Y-100247631D01*
X138175000Y-100283690D01*
X138175000Y-100376250D01*
X138323258Y-100524508D01*
X138328931Y-100532998D01*
X138175000Y-100532998D01*
X138175000Y-100540579D01*
X137974603Y-100340182D01*
X137575820Y-100175000D01*
X137144180Y-100175000D01*
X136745397Y-100340182D01*
X136440182Y-100645397D01*
X136275000Y-101044180D01*
X136275000Y-101475820D01*
X136440182Y-101874603D01*
X136745397Y-102179818D01*
X137144180Y-102345000D01*
X137575820Y-102345000D01*
X137974603Y-102179818D01*
X138279818Y-101874603D01*
X138445000Y-101475820D01*
X138445000Y-101443025D01*
X138450302Y-101448327D01*
X138683691Y-101545000D01*
X139674250Y-101545000D01*
X139833000Y-101386250D01*
X139833000Y-100785000D01*
X140087000Y-100785000D01*
X140087000Y-101386250D01*
X140245750Y-101545000D01*
X141236309Y-101545000D01*
X141469698Y-101448327D01*
X141648327Y-101269699D01*
X141745000Y-101036310D01*
X141745000Y-100943750D01*
X141586250Y-100785000D01*
X140087000Y-100785000D01*
X139833000Y-100785000D01*
X139813000Y-100785000D01*
X139813000Y-100757440D01*
X141110000Y-100757440D01*
X141357765Y-100708157D01*
X141389593Y-100686890D01*
X145243524Y-100686890D01*
X145413355Y-101096924D01*
X145803642Y-101525183D01*
X146328108Y-101771486D01*
X146558000Y-101650819D01*
X146558000Y-100457000D01*
X146812000Y-100457000D01*
X146812000Y-101650819D01*
X147041892Y-101771486D01*
X147566358Y-101525183D01*
X147956645Y-101096924D01*
X148126476Y-100686890D01*
X148088933Y-100615750D01*
X154210000Y-100615750D01*
X154210000Y-101081310D01*
X154306673Y-101314699D01*
X154485302Y-101493327D01*
X154718691Y-101590000D01*
X155309250Y-101590000D01*
X155468000Y-101431250D01*
X155468000Y-100457000D01*
X154368750Y-100457000D01*
X154210000Y-100615750D01*
X148088933Y-100615750D01*
X148005155Y-100457000D01*
X146812000Y-100457000D01*
X146558000Y-100457000D01*
X145364845Y-100457000D01*
X145243524Y-100686890D01*
X141389593Y-100686890D01*
X141567809Y-100567809D01*
X141596742Y-100524508D01*
X141745000Y-100376250D01*
X141745000Y-100283690D01*
X141730064Y-100247631D01*
X141757440Y-100110000D01*
X141757440Y-99610000D01*
X141727603Y-99460000D01*
X141757440Y-99310000D01*
X141757440Y-98810000D01*
X141727603Y-98660000D01*
X141757440Y-98510000D01*
X141757440Y-98270000D01*
X145187560Y-98270000D01*
X145187560Y-98640000D01*
X145236843Y-98887765D01*
X145377191Y-99097809D01*
X145587235Y-99238157D01*
X145690708Y-99258739D01*
X145413355Y-99563076D01*
X145243524Y-99973110D01*
X145364845Y-100203000D01*
X146558000Y-100203000D01*
X146558000Y-100183000D01*
X146812000Y-100183000D01*
X146812000Y-100203000D01*
X148005155Y-100203000D01*
X148126476Y-99973110D01*
X147956645Y-99563076D01*
X147679292Y-99258739D01*
X147782765Y-99238157D01*
X147992809Y-99097809D01*
X148014634Y-99065146D01*
X148795833Y-99846346D01*
X148841022Y-99913976D01*
X149108953Y-100093002D01*
X149345225Y-100139999D01*
X149345229Y-100139999D01*
X149424998Y-100155866D01*
X149504767Y-100139999D01*
X154305749Y-100139999D01*
X154368750Y-100203000D01*
X155468000Y-100203000D01*
X155468000Y-100183000D01*
X155722000Y-100183000D01*
X155722000Y-100203000D01*
X155742000Y-100203000D01*
X155742000Y-100457000D01*
X155722000Y-100457000D01*
X155722000Y-101431250D01*
X155880750Y-101590000D01*
X156471309Y-101590000D01*
X156704698Y-101493327D01*
X156846346Y-101351680D01*
X156887191Y-101412809D01*
X157097235Y-101553157D01*
X157345000Y-101602440D01*
X158845000Y-101602440D01*
X159032560Y-101565132D01*
X159032560Y-101792500D01*
X159081843Y-102040265D01*
X159222191Y-102250309D01*
X159432235Y-102390657D01*
X159680000Y-102439940D01*
X161181927Y-102439940D01*
X161400834Y-102658847D01*
X161446023Y-102726477D01*
X161713954Y-102905503D01*
X161950226Y-102952500D01*
X161950227Y-102952500D01*
X162030000Y-102968368D01*
X162109773Y-102952500D01*
X177617808Y-102952500D01*
X177697581Y-102968368D01*
X177777354Y-102952500D01*
X177777355Y-102952500D01*
X178013627Y-102905503D01*
X178281558Y-102726477D01*
X178326749Y-102658844D01*
X179141847Y-101843747D01*
X179209477Y-101798558D01*
X179232135Y-101764648D01*
X179914335Y-102446848D01*
X179959524Y-102514478D01*
X180227455Y-102693504D01*
X180463727Y-102740501D01*
X180463728Y-102740501D01*
X180543501Y-102756369D01*
X180623274Y-102740501D01*
X184683838Y-102740501D01*
X184267138Y-103157201D01*
X184003000Y-103794887D01*
X184003000Y-104485113D01*
X184267138Y-105122799D01*
X184755201Y-105610862D01*
X185392887Y-105875000D01*
X186083113Y-105875000D01*
X186720799Y-105610862D01*
X187208862Y-105122799D01*
X187473000Y-104485113D01*
X187473000Y-103794887D01*
X215435000Y-103794887D01*
X215435000Y-104485113D01*
X215699138Y-105122799D01*
X216187201Y-105610862D01*
X216824887Y-105875000D01*
X217515113Y-105875000D01*
X218152799Y-105610862D01*
X218640862Y-105122799D01*
X218905000Y-104485113D01*
X218905000Y-103794887D01*
X218640862Y-103157201D01*
X218152799Y-102669138D01*
X217515113Y-102405000D01*
X216824887Y-102405000D01*
X216187201Y-102669138D01*
X215699138Y-103157201D01*
X215435000Y-103794887D01*
X187473000Y-103794887D01*
X187208862Y-103157201D01*
X186792162Y-102740501D01*
X195808728Y-102740501D01*
X195888501Y-102756369D01*
X195968274Y-102740501D01*
X195968275Y-102740501D01*
X196204547Y-102693504D01*
X196472478Y-102514478D01*
X196517669Y-102446845D01*
X201492264Y-97472250D01*
X201828500Y-97472250D01*
X201828500Y-98312809D01*
X201925173Y-98546198D01*
X202103801Y-98724827D01*
X202337190Y-98821500D01*
X202977750Y-98821500D01*
X203136500Y-98662750D01*
X203136500Y-97313500D01*
X203390500Y-97313500D01*
X203390500Y-98662750D01*
X203549250Y-98821500D01*
X204189810Y-98821500D01*
X204423199Y-98724827D01*
X204601827Y-98546198D01*
X204698500Y-98312809D01*
X204698500Y-98228470D01*
X207520135Y-98228470D01*
X207679918Y-98547239D01*
X208470687Y-98857223D01*
X209319887Y-98840997D01*
X210029082Y-98547239D01*
X210188865Y-98228470D01*
X208854500Y-96894105D01*
X207520135Y-98228470D01*
X204698500Y-98228470D01*
X204698500Y-97472250D01*
X204539750Y-97313500D01*
X203390500Y-97313500D01*
X203136500Y-97313500D01*
X201987250Y-97313500D01*
X201828500Y-97472250D01*
X201492264Y-97472250D01*
X201946132Y-97018382D01*
X201987250Y-97059500D01*
X203136500Y-97059500D01*
X203136500Y-97039500D01*
X203390500Y-97039500D01*
X203390500Y-97059500D01*
X204539750Y-97059500D01*
X204698500Y-96900750D01*
X204698500Y-96330687D01*
X206711777Y-96330687D01*
X206728003Y-97179887D01*
X207021761Y-97889082D01*
X207340530Y-98048865D01*
X208674895Y-96714500D01*
X209034105Y-96714500D01*
X210368470Y-98048865D01*
X210687239Y-97889082D01*
X210997223Y-97098313D01*
X210980997Y-96249113D01*
X210687239Y-95539918D01*
X210368470Y-95380135D01*
X209034105Y-96714500D01*
X208674895Y-96714500D01*
X207340530Y-95380135D01*
X207021761Y-95539918D01*
X206711777Y-96330687D01*
X204698500Y-96330687D01*
X204698500Y-96060191D01*
X204601827Y-95826802D01*
X204423199Y-95648173D01*
X204189810Y-95551500D01*
X203549250Y-95551500D01*
X203390502Y-95710248D01*
X203390502Y-95574013D01*
X203763985Y-95200530D01*
X207520135Y-95200530D01*
X208854500Y-96534895D01*
X210188865Y-95200530D01*
X210029082Y-94881761D01*
X209238313Y-94571777D01*
X208389113Y-94588003D01*
X207679918Y-94881761D01*
X207520135Y-95200530D01*
X203763985Y-95200530D01*
X203779847Y-95184668D01*
X203847477Y-95139479D01*
X203935173Y-95008232D01*
X204026503Y-94871549D01*
X204033984Y-94833940D01*
X204063500Y-94833940D01*
X204311265Y-94784657D01*
X204521309Y-94644309D01*
X204661657Y-94434265D01*
X204710940Y-94186500D01*
X204710940Y-93996500D01*
X205067813Y-93996500D01*
X205399960Y-94328647D01*
X205909006Y-94539500D01*
X206459994Y-94539500D01*
X206969040Y-94328647D01*
X207335236Y-93962451D01*
X207561206Y-93917503D01*
X207829137Y-93738477D01*
X207874328Y-93670844D01*
X213558848Y-87986325D01*
X213626477Y-87941137D01*
X213805503Y-87673206D01*
X213852500Y-87436934D01*
X213852500Y-87436933D01*
X213868368Y-87357160D01*
X213852500Y-87277387D01*
X213852500Y-82566274D01*
X213868368Y-82486500D01*
X213805503Y-82170453D01*
X213714068Y-82033612D01*
X213626477Y-81902523D01*
X213558847Y-81857334D01*
X207485169Y-75783657D01*
X207439978Y-75716024D01*
X207172047Y-75536998D01*
X206935775Y-75490001D01*
X206935774Y-75490001D01*
X206856001Y-75474133D01*
X206776228Y-75490001D01*
X203770460Y-75490001D01*
X203745811Y-75430494D01*
X203314008Y-74998691D01*
X202749831Y-74765001D01*
X202139171Y-74765001D01*
X201574994Y-74998691D01*
X201405776Y-75167909D01*
X201402658Y-75152236D01*
X201262310Y-74942192D01*
X201052266Y-74801844D01*
X200804501Y-74752561D01*
X199004501Y-74752561D01*
X198756736Y-74801844D01*
X198546692Y-74942192D01*
X198406344Y-75152236D01*
X198357061Y-75400001D01*
X198357061Y-75503500D01*
X198051560Y-75503500D01*
X198024157Y-75365735D01*
X197883809Y-75155691D01*
X197673765Y-75015343D01*
X197426000Y-74966060D01*
X195926000Y-74966060D01*
X195678235Y-75015343D01*
X195468191Y-75155691D01*
X195327843Y-75365735D01*
X195322279Y-75393709D01*
X195264327Y-75253801D01*
X195085698Y-75075173D01*
X194852309Y-74978500D01*
X194261750Y-74978500D01*
X194103000Y-75137250D01*
X194103000Y-76136500D01*
X194123000Y-76136500D01*
X194123000Y-76390500D01*
X194103000Y-76390500D01*
X194103000Y-77389750D01*
X194261750Y-77548500D01*
X194852309Y-77548500D01*
X195085698Y-77451827D01*
X195264327Y-77273199D01*
X195322279Y-77133291D01*
X195327843Y-77161265D01*
X195468191Y-77371309D01*
X195678235Y-77511657D01*
X195926000Y-77560940D01*
X197426000Y-77560940D01*
X197673765Y-77511657D01*
X197883809Y-77371309D01*
X198024157Y-77161265D01*
X198051560Y-77023500D01*
X198357061Y-77023500D01*
X198357061Y-77200001D01*
X198406344Y-77447766D01*
X198546692Y-77657810D01*
X198756736Y-77798158D01*
X199004501Y-77847441D01*
X200804501Y-77847441D01*
X201052266Y-77798158D01*
X201262310Y-77657810D01*
X201402658Y-77447766D01*
X201405776Y-77432093D01*
X201574994Y-77601311D01*
X202139171Y-77835001D01*
X202749831Y-77835001D01*
X203314008Y-77601311D01*
X203745811Y-77169508D01*
X203770460Y-77110001D01*
X206520489Y-77110001D01*
X212232501Y-82822014D01*
X212232500Y-87021647D01*
X207121417Y-92132730D01*
X206969040Y-91980353D01*
X206737630Y-91884500D01*
X206969040Y-91788647D01*
X207358647Y-91399040D01*
X207569500Y-90889994D01*
X207569500Y-90339006D01*
X207358647Y-89829960D01*
X207128187Y-89599500D01*
X207358647Y-89369040D01*
X207569500Y-88859994D01*
X207569500Y-88309006D01*
X207358647Y-87799960D01*
X206969040Y-87410353D01*
X206753570Y-87321103D01*
X206908423Y-87256960D01*
X206976412Y-87016017D01*
X206184500Y-86224105D01*
X205392588Y-87016017D01*
X205460577Y-87256960D01*
X205627158Y-87316245D01*
X205399960Y-87410353D01*
X205010353Y-87799960D01*
X205001017Y-87822500D01*
X204782560Y-87822500D01*
X204755157Y-87684735D01*
X204614809Y-87474691D01*
X204404765Y-87334343D01*
X204157000Y-87285060D01*
X202657000Y-87285060D01*
X202409235Y-87334343D01*
X202199191Y-87474691D01*
X202058843Y-87684735D01*
X202057000Y-87694000D01*
X202055157Y-87684735D01*
X201914809Y-87474691D01*
X201704765Y-87334343D01*
X201457000Y-87285060D01*
X201355483Y-87285060D01*
X201254929Y-87134571D01*
X201191472Y-87092171D01*
X200800331Y-86701029D01*
X200757929Y-86637571D01*
X200506537Y-86469596D01*
X200284852Y-86425500D01*
X200284847Y-86425500D01*
X200210000Y-86410612D01*
X200135153Y-86425500D01*
X195069302Y-86425500D01*
X194856332Y-86212530D01*
X194813930Y-86149072D01*
X194720009Y-86086316D01*
X194822172Y-85839671D01*
X204787299Y-85839671D01*
X204815270Y-86389948D01*
X204972040Y-86768423D01*
X205212983Y-86836412D01*
X206004895Y-86044500D01*
X206364105Y-86044500D01*
X207156017Y-86836412D01*
X207396960Y-86768423D01*
X207581701Y-86249329D01*
X207553730Y-85699052D01*
X207396960Y-85320577D01*
X207156017Y-85252588D01*
X206364105Y-86044500D01*
X206004895Y-86044500D01*
X205212983Y-85252588D01*
X204972040Y-85320577D01*
X204787299Y-85839671D01*
X194822172Y-85839671D01*
X194837000Y-85803874D01*
X194837000Y-85392126D01*
X194704807Y-85072983D01*
X205392588Y-85072983D01*
X206184500Y-85864895D01*
X206976412Y-85072983D01*
X206908423Y-84832040D01*
X206389329Y-84647299D01*
X205839052Y-84675270D01*
X205460577Y-84832040D01*
X205392588Y-85072983D01*
X194704807Y-85072983D01*
X194679431Y-85011720D01*
X194388280Y-84720569D01*
X194150660Y-84622144D01*
X194170972Y-84601832D01*
X194234428Y-84559432D01*
X194249751Y-84536500D01*
X194775750Y-84536500D01*
X194934500Y-84377750D01*
X194934500Y-83128500D01*
X194914500Y-83128500D01*
X194914500Y-82874500D01*
X194934500Y-82874500D01*
X194934500Y-82854500D01*
X195188500Y-82854500D01*
X195188500Y-82874500D01*
X195208500Y-82874500D01*
X195208500Y-83128500D01*
X195188500Y-83128500D01*
X195188500Y-84377750D01*
X195347250Y-84536500D01*
X196237809Y-84536500D01*
X196471198Y-84439827D01*
X196649827Y-84261199D01*
X196673454Y-84204158D01*
X196702673Y-84274698D01*
X196881301Y-84453327D01*
X197114690Y-84550000D01*
X197580250Y-84550000D01*
X197739000Y-84391250D01*
X197739000Y-83292000D01*
X197993000Y-83292000D01*
X197993000Y-84391250D01*
X198151750Y-84550000D01*
X198617310Y-84550000D01*
X198717572Y-84508470D01*
X207520135Y-84508470D01*
X207679918Y-84827239D01*
X208470687Y-85137223D01*
X209319887Y-85120997D01*
X210029082Y-84827239D01*
X210188865Y-84508470D01*
X208854500Y-83174105D01*
X207520135Y-84508470D01*
X198717572Y-84508470D01*
X198850699Y-84453327D01*
X199029327Y-84274698D01*
X199126000Y-84041309D01*
X199126000Y-83450750D01*
X198967250Y-83292000D01*
X197993000Y-83292000D01*
X197739000Y-83292000D01*
X197719000Y-83292000D01*
X197719000Y-83038000D01*
X197739000Y-83038000D01*
X197739000Y-83018000D01*
X197993000Y-83018000D01*
X197993000Y-83038000D01*
X198967250Y-83038000D01*
X199126000Y-82879250D01*
X199126000Y-82610687D01*
X206711777Y-82610687D01*
X206728003Y-83459887D01*
X207021761Y-84169082D01*
X207340530Y-84328865D01*
X208674895Y-82994500D01*
X209034105Y-82994500D01*
X210368470Y-84328865D01*
X210687239Y-84169082D01*
X210997223Y-83378313D01*
X210980997Y-82529113D01*
X210687239Y-81819918D01*
X210368470Y-81660135D01*
X209034105Y-82994500D01*
X208674895Y-82994500D01*
X207340530Y-81660135D01*
X207021761Y-81819918D01*
X206711777Y-82610687D01*
X199126000Y-82610687D01*
X199126000Y-82288691D01*
X199029327Y-82055302D01*
X198887680Y-81913654D01*
X198948809Y-81872809D01*
X199089157Y-81662765D01*
X199125405Y-81480530D01*
X207520135Y-81480530D01*
X208854500Y-82814895D01*
X210188865Y-81480530D01*
X210029082Y-81161761D01*
X209238313Y-80851777D01*
X208389113Y-80868003D01*
X207679918Y-81161761D01*
X207520135Y-81480530D01*
X199125405Y-81480530D01*
X199138440Y-81415000D01*
X199138440Y-79915000D01*
X199089157Y-79667235D01*
X198948809Y-79457191D01*
X198738765Y-79316843D01*
X198491000Y-79267560D01*
X197241000Y-79267560D01*
X196993235Y-79316843D01*
X196783191Y-79457191D01*
X196711727Y-79564143D01*
X196709657Y-79553735D01*
X196569309Y-79343691D01*
X196359265Y-79203343D01*
X196111500Y-79154060D01*
X194011500Y-79154060D01*
X193763735Y-79203343D01*
X193612453Y-79304427D01*
X193571198Y-79263173D01*
X193337809Y-79166500D01*
X192447250Y-79166500D01*
X192288500Y-79325250D01*
X192288500Y-80574500D01*
X192308500Y-80574500D01*
X192308500Y-80828500D01*
X192288500Y-80828500D01*
X192288500Y-80848500D01*
X192034500Y-80848500D01*
X192034500Y-80828500D01*
X192014500Y-80828500D01*
X192014500Y-80574500D01*
X192034500Y-80574500D01*
X192034500Y-79325250D01*
X191875750Y-79166500D01*
X190985191Y-79166500D01*
X190751802Y-79263173D01*
X190573173Y-79441801D01*
X190476500Y-79675190D01*
X190476500Y-80011636D01*
X190376309Y-79861691D01*
X190315180Y-79820846D01*
X190456827Y-79679198D01*
X190553500Y-79445809D01*
X190553500Y-78855250D01*
X190394750Y-78696500D01*
X189420500Y-78696500D01*
X189420500Y-78716500D01*
X189166500Y-78716500D01*
X189166500Y-78696500D01*
X188192250Y-78696500D01*
X188033500Y-78855250D01*
X188033500Y-79445809D01*
X188130173Y-79679198D01*
X188271820Y-79820846D01*
X188210691Y-79861691D01*
X188070343Y-80071735D01*
X188021060Y-80319500D01*
X188021060Y-81819500D01*
X188070343Y-82067265D01*
X188209856Y-82276060D01*
X188083000Y-82276060D01*
X187960000Y-82300526D01*
X187837000Y-82276060D01*
X187583000Y-82276060D01*
X187460000Y-82300526D01*
X187337000Y-82276060D01*
X187083000Y-82276060D01*
X186960000Y-82300526D01*
X186837000Y-82276060D01*
X186583000Y-82276060D01*
X186460000Y-82300526D01*
X186337000Y-82276060D01*
X186083000Y-82276060D01*
X185914940Y-82309489D01*
X185914940Y-81835500D01*
X185865657Y-81587735D01*
X185725309Y-81377691D01*
X185515265Y-81237343D01*
X185267500Y-81188060D01*
X183667500Y-81188060D01*
X183419735Y-81237343D01*
X183209691Y-81377691D01*
X183139516Y-81482714D01*
X180867330Y-79210529D01*
X180824928Y-79147070D01*
X180786286Y-79121250D01*
X183032500Y-79121250D01*
X183032500Y-79961809D01*
X183129173Y-80195198D01*
X183307801Y-80373827D01*
X183541190Y-80470500D01*
X184181750Y-80470500D01*
X184340500Y-80311750D01*
X184340500Y-78962500D01*
X184594500Y-78962500D01*
X184594500Y-80311750D01*
X184753250Y-80470500D01*
X185393810Y-80470500D01*
X185627199Y-80373827D01*
X185805827Y-80195198D01*
X185902500Y-79961809D01*
X185902500Y-79121250D01*
X185743750Y-78962500D01*
X184594500Y-78962500D01*
X184340500Y-78962500D01*
X183191250Y-78962500D01*
X183032500Y-79121250D01*
X180786286Y-79121250D01*
X180573536Y-78979095D01*
X180351851Y-78934999D01*
X180351846Y-78934999D01*
X180276999Y-78920111D01*
X180202152Y-78934999D01*
X175921847Y-78934999D01*
X175847000Y-78920111D01*
X175772153Y-78934999D01*
X175772149Y-78934999D01*
X175550464Y-78979095D01*
X175523470Y-78997132D01*
X175362527Y-79104670D01*
X175362525Y-79104672D01*
X175299072Y-79147070D01*
X175256674Y-79210524D01*
X175094638Y-79372560D01*
X174022000Y-79372560D01*
X173774235Y-79421843D01*
X173564191Y-79562191D01*
X173423843Y-79772235D01*
X173374560Y-80020000D01*
X173374560Y-81270000D01*
X173423843Y-81517765D01*
X173564191Y-81727809D01*
X173774235Y-81868157D01*
X173819497Y-81877160D01*
X173710600Y-81877160D01*
X173462835Y-81926443D01*
X173252791Y-82066791D01*
X173112443Y-82276835D01*
X173063160Y-82524600D01*
X173063160Y-83083400D01*
X173112443Y-83331165D01*
X173184497Y-83439000D01*
X173112443Y-83546835D01*
X173063160Y-83794600D01*
X173063160Y-83871758D01*
X169859931Y-80668530D01*
X169817529Y-80605071D01*
X169566137Y-80437096D01*
X169344452Y-80393000D01*
X169344447Y-80393000D01*
X169269600Y-80378112D01*
X169194753Y-80393000D01*
X168526486Y-80393000D01*
X168885185Y-80244422D01*
X169302922Y-79826685D01*
X169529000Y-79280885D01*
X169529000Y-78690115D01*
X169302922Y-78144315D01*
X168885185Y-77726578D01*
X168843210Y-77709191D01*
X183032500Y-77709191D01*
X183032500Y-78549750D01*
X183191250Y-78708500D01*
X184340500Y-78708500D01*
X184340500Y-77359250D01*
X184594500Y-77359250D01*
X184594500Y-78708500D01*
X185743750Y-78708500D01*
X185902500Y-78549750D01*
X185902500Y-77709191D01*
X185895873Y-77693191D01*
X188033500Y-77693191D01*
X188033500Y-78283750D01*
X188192250Y-78442500D01*
X189166500Y-78442500D01*
X189166500Y-77343250D01*
X189420500Y-77343250D01*
X189420500Y-78442500D01*
X190394750Y-78442500D01*
X190553500Y-78283750D01*
X190553500Y-77693191D01*
X190456827Y-77459802D01*
X190278199Y-77281173D01*
X190044810Y-77184500D01*
X189579250Y-77184500D01*
X189420500Y-77343250D01*
X189166500Y-77343250D01*
X189007750Y-77184500D01*
X188542190Y-77184500D01*
X188308801Y-77281173D01*
X188130173Y-77459802D01*
X188033500Y-77693191D01*
X185895873Y-77693191D01*
X185805827Y-77475802D01*
X185627199Y-77297173D01*
X185393810Y-77200500D01*
X184753250Y-77200500D01*
X184594500Y-77359250D01*
X184340500Y-77359250D01*
X184181750Y-77200500D01*
X183541190Y-77200500D01*
X183307801Y-77297173D01*
X183129173Y-77475802D01*
X183032500Y-77709191D01*
X168843210Y-77709191D01*
X168339385Y-77500500D01*
X167748615Y-77500500D01*
X167202815Y-77726578D01*
X166785078Y-78144315D01*
X166559000Y-78690115D01*
X166559000Y-79280885D01*
X166785078Y-79826685D01*
X167202815Y-80244422D01*
X167561514Y-80393000D01*
X164618346Y-80393000D01*
X164543499Y-80378112D01*
X164468652Y-80393000D01*
X164468648Y-80393000D01*
X164246963Y-80437096D01*
X164189543Y-80475463D01*
X164141120Y-80507818D01*
X162995372Y-79362070D01*
X163029000Y-79280885D01*
X163029000Y-78690115D01*
X162802922Y-78144315D01*
X162385185Y-77726578D01*
X161839385Y-77500500D01*
X161248615Y-77500500D01*
X160702815Y-77726578D01*
X160448879Y-77980514D01*
X160442657Y-77949235D01*
X160302309Y-77739191D01*
X160092265Y-77598843D01*
X160083000Y-77597000D01*
X160092265Y-77595157D01*
X160302309Y-77454809D01*
X160442657Y-77244765D01*
X160491940Y-76997000D01*
X160491940Y-76549250D01*
X192591000Y-76549250D01*
X192591000Y-77039810D01*
X192687673Y-77273199D01*
X192866302Y-77451827D01*
X193099691Y-77548500D01*
X193690250Y-77548500D01*
X193849000Y-77389750D01*
X193849000Y-76390500D01*
X192749750Y-76390500D01*
X192591000Y-76549250D01*
X160491940Y-76549250D01*
X160491940Y-75571172D01*
X160564938Y-75644170D01*
X160679648Y-75529460D01*
X160759920Y-75780759D01*
X161315279Y-75982218D01*
X161905458Y-75955815D01*
X162328080Y-75780759D01*
X162408353Y-75529458D01*
X161544000Y-74665105D01*
X161529858Y-74679248D01*
X161350253Y-74499643D01*
X161364395Y-74485500D01*
X161723605Y-74485500D01*
X162587958Y-75349853D01*
X162839259Y-75269580D01*
X163040718Y-74714221D01*
X163017271Y-74190115D01*
X166559000Y-74190115D01*
X166559000Y-74780885D01*
X166785078Y-75326685D01*
X167202815Y-75744422D01*
X167748615Y-75970500D01*
X168339385Y-75970500D01*
X168885185Y-75744422D01*
X169142417Y-75487190D01*
X192591000Y-75487190D01*
X192591000Y-75977750D01*
X192749750Y-76136500D01*
X193849000Y-76136500D01*
X193849000Y-75137250D01*
X193690250Y-74978500D01*
X193099691Y-74978500D01*
X192866302Y-75075173D01*
X192687673Y-75253801D01*
X192591000Y-75487190D01*
X169142417Y-75487190D01*
X169302922Y-75326685D01*
X169529000Y-74780885D01*
X169529000Y-74190115D01*
X169302922Y-73644315D01*
X168973494Y-73314887D01*
X184003000Y-73314887D01*
X184003000Y-74005113D01*
X184267138Y-74642799D01*
X184755201Y-75130862D01*
X185392887Y-75395000D01*
X186083113Y-75395000D01*
X186720799Y-75130862D01*
X187208862Y-74642799D01*
X187473000Y-74005113D01*
X187473000Y-73314887D01*
X215435000Y-73314887D01*
X215435000Y-74005113D01*
X215699138Y-74642799D01*
X216187201Y-75130862D01*
X216824887Y-75395000D01*
X217515113Y-75395000D01*
X218152799Y-75130862D01*
X218640862Y-74642799D01*
X218905000Y-74005113D01*
X218905000Y-73314887D01*
X218640862Y-72677201D01*
X218152799Y-72189138D01*
X217515113Y-71925000D01*
X216824887Y-71925000D01*
X216187201Y-72189138D01*
X215699138Y-72677201D01*
X215435000Y-73314887D01*
X187473000Y-73314887D01*
X187208862Y-72677201D01*
X186720799Y-72189138D01*
X186083113Y-71925000D01*
X185392887Y-71925000D01*
X184755201Y-72189138D01*
X184267138Y-72677201D01*
X184003000Y-73314887D01*
X168973494Y-73314887D01*
X168885185Y-73226578D01*
X168339385Y-73000500D01*
X167748615Y-73000500D01*
X167202815Y-73226578D01*
X166785078Y-73644315D01*
X166559000Y-74190115D01*
X163017271Y-74190115D01*
X163014315Y-74124042D01*
X162839259Y-73701420D01*
X162587958Y-73621147D01*
X161723605Y-74485500D01*
X161364395Y-74485500D01*
X160500042Y-73621147D01*
X160248741Y-73701420D01*
X160047282Y-74256779D01*
X160073685Y-74846958D01*
X160096291Y-74901533D01*
X160092265Y-74898843D01*
X159844500Y-74849560D01*
X158544500Y-74849560D01*
X158296735Y-74898843D01*
X158086691Y-75039191D01*
X157946343Y-75249235D01*
X157897060Y-75497000D01*
X157897060Y-75534349D01*
X157875780Y-75513069D01*
X157495374Y-75355500D01*
X157083626Y-75355500D01*
X156703220Y-75513069D01*
X156551682Y-75664607D01*
X156501463Y-75674596D01*
X156250071Y-75842571D01*
X156207671Y-75906027D01*
X155877638Y-76236060D01*
X154905000Y-76236060D01*
X154657235Y-76285343D01*
X154447191Y-76425691D01*
X154306843Y-76635735D01*
X154305000Y-76645000D01*
X154303157Y-76635735D01*
X154162809Y-76425691D01*
X153952765Y-76285343D01*
X153705000Y-76236060D01*
X152205000Y-76236060D01*
X151957235Y-76285343D01*
X151747191Y-76425691D01*
X151606843Y-76635735D01*
X151579440Y-76773500D01*
X149003278Y-76773500D01*
X148830026Y-76355233D01*
X148299767Y-75824974D01*
X147606950Y-75538000D01*
X146857050Y-75538000D01*
X146447259Y-75707741D01*
X146617000Y-75297950D01*
X146617000Y-74548050D01*
X146330026Y-73855233D01*
X145799767Y-73324974D01*
X145775415Y-73314887D01*
X152570000Y-73314887D01*
X152570000Y-74005113D01*
X152834138Y-74642799D01*
X153322201Y-75130862D01*
X153959887Y-75395000D01*
X154650113Y-75395000D01*
X155287799Y-75130862D01*
X155775862Y-74642799D01*
X156040000Y-74005113D01*
X156040000Y-73441542D01*
X160679647Y-73441542D01*
X161544000Y-74305895D01*
X162408353Y-73441542D01*
X162328080Y-73190241D01*
X161772721Y-72988782D01*
X161182542Y-73015185D01*
X160759920Y-73190241D01*
X160679647Y-73441542D01*
X156040000Y-73441542D01*
X156040000Y-73314887D01*
X155775862Y-72677201D01*
X155287799Y-72189138D01*
X154650113Y-71925000D01*
X153959887Y-71925000D01*
X153322201Y-72189138D01*
X152834138Y-72677201D01*
X152570000Y-73314887D01*
X145775415Y-73314887D01*
X145106950Y-73038000D01*
X144357050Y-73038000D01*
X143664233Y-73324974D01*
X143133974Y-73855233D01*
X142847000Y-74548050D01*
X142847000Y-75297950D01*
X143133974Y-75990767D01*
X143664233Y-76521026D01*
X144357050Y-76808000D01*
X145106950Y-76808000D01*
X145516741Y-76638259D01*
X145347000Y-77048050D01*
X145347000Y-77797950D01*
X145633974Y-78490767D01*
X146164233Y-79021026D01*
X146857050Y-79308000D01*
X147606950Y-79308000D01*
X148299767Y-79021026D01*
X148830026Y-78490767D01*
X148911737Y-78293500D01*
X151579440Y-78293500D01*
X151606843Y-78431265D01*
X151747191Y-78641309D01*
X151957235Y-78781657D01*
X151983317Y-78786845D01*
X151810691Y-78902191D01*
X151670343Y-79112235D01*
X151621060Y-79360000D01*
X151621060Y-80660000D01*
X151670343Y-80907765D01*
X151810691Y-81117809D01*
X152020735Y-81258157D01*
X152258501Y-81305451D01*
X152258501Y-81321697D01*
X147914717Y-85665481D01*
X147606950Y-85538000D01*
X146857050Y-85538000D01*
X146164233Y-85824974D01*
X145633974Y-86355233D01*
X145347000Y-87048050D01*
X145347000Y-87797950D01*
X145516741Y-88207741D01*
X145106950Y-88038000D01*
X144357050Y-88038000D01*
X143664233Y-88324974D01*
X143133974Y-88855233D01*
X142847000Y-89548050D01*
X142847000Y-90297950D01*
X143133974Y-90990767D01*
X143664233Y-91521026D01*
X144357050Y-91808000D01*
X145106950Y-91808000D01*
X145799767Y-91521026D01*
X145901552Y-91419241D01*
X145859132Y-91632498D01*
X145875001Y-91712276D01*
X145875000Y-96292560D01*
X145835000Y-96292560D01*
X145587235Y-96341843D01*
X145377191Y-96482191D01*
X145265064Y-96650000D01*
X141414871Y-96650000D01*
X141357765Y-96611843D01*
X141110000Y-96562560D01*
X138810000Y-96562560D01*
X138562235Y-96611843D01*
X138445000Y-96690178D01*
X138445000Y-96644180D01*
X138279818Y-96245397D01*
X137974603Y-95940182D01*
X137575820Y-95775000D01*
X137144180Y-95775000D01*
X136745397Y-95940182D01*
X136440182Y-96245397D01*
X136275000Y-96644180D01*
X132155000Y-96644180D01*
X132155000Y-94895750D01*
X132475000Y-94895750D01*
X132475000Y-95736310D01*
X132571673Y-95969699D01*
X132750302Y-96148327D01*
X132983691Y-96245000D01*
X134074250Y-96245000D01*
X134233000Y-96086250D01*
X134233000Y-94737000D01*
X134487000Y-94737000D01*
X134487000Y-96086250D01*
X134645750Y-96245000D01*
X135736309Y-96245000D01*
X135969698Y-96148327D01*
X136148327Y-95969699D01*
X136245000Y-95736310D01*
X136245000Y-94895750D01*
X137975000Y-94895750D01*
X137975000Y-95736310D01*
X138071673Y-95969699D01*
X138250302Y-96148327D01*
X138483691Y-96245000D01*
X139574250Y-96245000D01*
X139733000Y-96086250D01*
X139733000Y-94737000D01*
X139987000Y-94737000D01*
X139987000Y-96086250D01*
X140145750Y-96245000D01*
X141236309Y-96245000D01*
X141469698Y-96148327D01*
X141648327Y-95969699D01*
X141745000Y-95736310D01*
X141745000Y-94895750D01*
X141586250Y-94737000D01*
X139987000Y-94737000D01*
X139733000Y-94737000D01*
X138133750Y-94737000D01*
X137975000Y-94895750D01*
X136245000Y-94895750D01*
X136086250Y-94737000D01*
X134487000Y-94737000D01*
X134233000Y-94737000D01*
X132633750Y-94737000D01*
X132475000Y-94895750D01*
X132155000Y-94895750D01*
X132155000Y-93483690D01*
X132475000Y-93483690D01*
X132475000Y-94324250D01*
X132633750Y-94483000D01*
X134233000Y-94483000D01*
X134233000Y-93133750D01*
X134487000Y-93133750D01*
X134487000Y-94483000D01*
X136086250Y-94483000D01*
X136245000Y-94324250D01*
X136245000Y-93483690D01*
X137975000Y-93483690D01*
X137975000Y-94324250D01*
X138133750Y-94483000D01*
X139733000Y-94483000D01*
X139733000Y-93133750D01*
X139987000Y-93133750D01*
X139987000Y-94483000D01*
X141586250Y-94483000D01*
X141745000Y-94324250D01*
X141745000Y-93483690D01*
X141648327Y-93250301D01*
X141469698Y-93071673D01*
X141236309Y-92975000D01*
X140145750Y-92975000D01*
X139987000Y-93133750D01*
X139733000Y-93133750D01*
X139574250Y-92975000D01*
X138483691Y-92975000D01*
X138250302Y-93071673D01*
X138071673Y-93250301D01*
X137975000Y-93483690D01*
X136245000Y-93483690D01*
X136148327Y-93250301D01*
X135969698Y-93071673D01*
X135736309Y-92975000D01*
X134645750Y-92975000D01*
X134487000Y-93133750D01*
X134233000Y-93133750D01*
X134074250Y-92975000D01*
X132983691Y-92975000D01*
X132750302Y-93071673D01*
X132571673Y-93250301D01*
X132475000Y-93483690D01*
X132155000Y-93483690D01*
X132155000Y-87048050D01*
X132847000Y-87048050D01*
X132847000Y-87797950D01*
X133133974Y-88490767D01*
X133664233Y-89021026D01*
X134357050Y-89308000D01*
X135106950Y-89308000D01*
X135799767Y-89021026D01*
X136330026Y-88490767D01*
X136617000Y-87797950D01*
X136617000Y-87048050D01*
X136330026Y-86355233D01*
X135799767Y-85824974D01*
X135106950Y-85538000D01*
X134357050Y-85538000D01*
X133664233Y-85824974D01*
X133133974Y-86355233D01*
X132847000Y-87048050D01*
X132155000Y-87048050D01*
X132155000Y-83756320D01*
X143578285Y-83756320D01*
X143707533Y-84049123D01*
X144407806Y-84317388D01*
X145157435Y-84297250D01*
X145756467Y-84049123D01*
X145885715Y-83756320D01*
X144732000Y-82602605D01*
X143578285Y-83756320D01*
X132155000Y-83756320D01*
X132155000Y-82098806D01*
X142837612Y-82098806D01*
X142857750Y-82848435D01*
X143105877Y-83447467D01*
X143398680Y-83576715D01*
X144552395Y-82423000D01*
X144911605Y-82423000D01*
X146065320Y-83576715D01*
X146358123Y-83447467D01*
X146626388Y-82747194D01*
X146606250Y-81997565D01*
X146358123Y-81398533D01*
X146065320Y-81269285D01*
X144911605Y-82423000D01*
X144552395Y-82423000D01*
X143398680Y-81269285D01*
X143105877Y-81398533D01*
X142837612Y-82098806D01*
X132155000Y-82098806D01*
X132155000Y-81089680D01*
X143578285Y-81089680D01*
X144732000Y-82243395D01*
X145885715Y-81089680D01*
X145756467Y-80796877D01*
X145056194Y-80528612D01*
X144306565Y-80548750D01*
X143707533Y-80796877D01*
X143578285Y-81089680D01*
X132155000Y-81089680D01*
X132155000Y-77048050D01*
X132847000Y-77048050D01*
X132847000Y-77797950D01*
X133133974Y-78490767D01*
X133664233Y-79021026D01*
X134357050Y-79308000D01*
X135106950Y-79308000D01*
X135799767Y-79021026D01*
X136330026Y-78490767D01*
X136617000Y-77797950D01*
X136617000Y-77048050D01*
X136330026Y-76355233D01*
X135799767Y-75824974D01*
X135106950Y-75538000D01*
X134357050Y-75538000D01*
X133664233Y-75824974D01*
X133133974Y-76355233D01*
X132847000Y-77048050D01*
X132155000Y-77048050D01*
X132155000Y-73075580D01*
X132209985Y-72691636D01*
X132349372Y-72385072D01*
X132569199Y-72129950D01*
X132851792Y-71946782D01*
X133197959Y-71843257D01*
X133376350Y-71830000D01*
X217754420Y-71830000D01*
X218138364Y-71884985D01*
G36*
X155277500Y-85090000D02*
X155297500Y-85090000D01*
X155297500Y-85344000D01*
X155277500Y-85344000D01*
X155277500Y-86318250D01*
X155436250Y-86477000D01*
X156026809Y-86477000D01*
X156260198Y-86380327D01*
X156401846Y-86238680D01*
X156442691Y-86299809D01*
X156652735Y-86440157D01*
X156883109Y-86485981D01*
X156887498Y-86508046D01*
X156903031Y-86531292D01*
X157066524Y-86775977D01*
X157134154Y-86821166D01*
X157487832Y-87174844D01*
X157533023Y-87242477D01*
X157673098Y-87336072D01*
X157800953Y-87421503D01*
X158117000Y-87484368D01*
X158196774Y-87468500D01*
X158653000Y-87468500D01*
X158653000Y-87585502D01*
X158790226Y-87585502D01*
X158746888Y-87650362D01*
X158664588Y-87732662D01*
X158513310Y-87670000D01*
X157772750Y-87670000D01*
X157614000Y-87828750D01*
X157614000Y-89228000D01*
X157634000Y-89228000D01*
X157634000Y-89482000D01*
X157614000Y-89482000D01*
X157614000Y-89502000D01*
X157360000Y-89502000D01*
X157360000Y-89482000D01*
X157340000Y-89482000D01*
X157340000Y-89228000D01*
X157360000Y-89228000D01*
X157360000Y-87828750D01*
X157201250Y-87670000D01*
X156460690Y-87670000D01*
X156348916Y-87716298D01*
X156334765Y-87706843D01*
X156087000Y-87657560D01*
X154287000Y-87657560D01*
X154039235Y-87706843D01*
X153829191Y-87847191D01*
X153688843Y-88057235D01*
X153639560Y-88305000D01*
X153639560Y-88764811D01*
X153526765Y-88689443D01*
X153279000Y-88640160D01*
X152029000Y-88640160D01*
X151781235Y-88689443D01*
X151571191Y-88829791D01*
X151430843Y-89039835D01*
X151381560Y-89287600D01*
X151381560Y-90787600D01*
X151430843Y-91035365D01*
X151571191Y-91245409D01*
X151632320Y-91286254D01*
X151490673Y-91427902D01*
X151394000Y-91661291D01*
X151394000Y-92251850D01*
X151552750Y-92410600D01*
X152527000Y-92410600D01*
X152527000Y-92390600D01*
X152781000Y-92390600D01*
X152781000Y-92410600D01*
X152801000Y-92410600D01*
X152801000Y-92664600D01*
X152781000Y-92664600D01*
X152781000Y-93763850D01*
X152939750Y-93922600D01*
X153405310Y-93922600D01*
X153638699Y-93825927D01*
X153774300Y-93690325D01*
X153927301Y-93843327D01*
X154160690Y-93940000D01*
X154901250Y-93940000D01*
X155060000Y-93781250D01*
X155060000Y-92382000D01*
X155040000Y-92382000D01*
X155040000Y-92128000D01*
X155060000Y-92128000D01*
X155060000Y-92108000D01*
X155314000Y-92108000D01*
X155314000Y-92128000D01*
X155334000Y-92128000D01*
X155334000Y-92382000D01*
X155314000Y-92382000D01*
X155314000Y-93781250D01*
X155472750Y-93940000D01*
X156213310Y-93940000D01*
X156325084Y-93893702D01*
X156339235Y-93903157D01*
X156587000Y-93952440D01*
X158387000Y-93952440D01*
X158634765Y-93903157D01*
X158706060Y-93855519D01*
X158706060Y-94224000D01*
X158755343Y-94471765D01*
X158895691Y-94681809D01*
X159105735Y-94822157D01*
X159353500Y-94871440D01*
X160853500Y-94871440D01*
X161101265Y-94822157D01*
X161311309Y-94681809D01*
X161352154Y-94620680D01*
X161493802Y-94762327D01*
X161727191Y-94859000D01*
X162317750Y-94859000D01*
X162476500Y-94700250D01*
X162476500Y-93726000D01*
X162730500Y-93726000D01*
X162730500Y-94700250D01*
X162889250Y-94859000D01*
X163479809Y-94859000D01*
X163713198Y-94762327D01*
X163891827Y-94583699D01*
X163988500Y-94350310D01*
X163988500Y-93884750D01*
X163829750Y-93726000D01*
X162730500Y-93726000D01*
X162476500Y-93726000D01*
X162456500Y-93726000D01*
X162456500Y-93472000D01*
X162476500Y-93472000D01*
X162476500Y-93452000D01*
X162730500Y-93452000D01*
X162730500Y-93472000D01*
X163829750Y-93472000D01*
X163988500Y-93313250D01*
X163988500Y-92847690D01*
X163950496Y-92755940D01*
X164213000Y-92755940D01*
X164338000Y-92731076D01*
X164463000Y-92755940D01*
X165013000Y-92755940D01*
X165138000Y-92731076D01*
X165263000Y-92755940D01*
X165689518Y-92755940D01*
X165790071Y-92906429D01*
X165853530Y-92948831D01*
X166803180Y-93898482D01*
X166845581Y-93961939D01*
X167096973Y-94129914D01*
X167318658Y-94174010D01*
X167318662Y-94174010D01*
X167393510Y-94188898D01*
X167468358Y-94174010D01*
X173451211Y-94174010D01*
X175413034Y-96135834D01*
X175014875Y-96401875D01*
X174815500Y-96700261D01*
X174616125Y-96401875D01*
X174124918Y-96073661D01*
X173691756Y-95987500D01*
X173399244Y-95987500D01*
X172966082Y-96073661D01*
X172474875Y-96401875D01*
X172267322Y-96712500D01*
X171772711Y-96712500D01*
X171528280Y-96468069D01*
X171147874Y-96310500D01*
X170736126Y-96310500D01*
X170355720Y-96468069D01*
X170064569Y-96759220D01*
X169907000Y-97139626D01*
X169907000Y-97551374D01*
X170064569Y-97931780D01*
X170355720Y-98222931D01*
X170736126Y-98380500D01*
X171147874Y-98380500D01*
X171505178Y-98232500D01*
X172267322Y-98232500D01*
X172474875Y-98543125D01*
X172775286Y-98743853D01*
X172350317Y-99131142D01*
X172104014Y-99655608D01*
X172224681Y-99885500D01*
X173418500Y-99885500D01*
X173418500Y-99865500D01*
X173672500Y-99865500D01*
X173672500Y-99885500D01*
X173692500Y-99885500D01*
X173692500Y-100139500D01*
X173672500Y-100139500D01*
X173672500Y-100159500D01*
X173418500Y-100159500D01*
X173418500Y-100139500D01*
X172224681Y-100139500D01*
X172104014Y-100369392D01*
X172350317Y-100893858D01*
X172778576Y-101284145D01*
X172895323Y-101332500D01*
X170006211Y-101332500D01*
X170231931Y-101106780D01*
X170389500Y-100726374D01*
X170389500Y-100314626D01*
X170231931Y-99934220D01*
X170120617Y-99822906D01*
X170114500Y-99792152D01*
X170114500Y-99792148D01*
X170070404Y-99570463D01*
X169902429Y-99319071D01*
X169838973Y-99276671D01*
X168820331Y-98258030D01*
X168777929Y-98194571D01*
X168627440Y-98094017D01*
X168627440Y-96842500D01*
X168578157Y-96594735D01*
X168437809Y-96384691D01*
X168227765Y-96244343D01*
X167980000Y-96195060D01*
X165980000Y-96195060D01*
X165732235Y-96244343D01*
X165522191Y-96384691D01*
X165381843Y-96594735D01*
X165332560Y-96842500D01*
X165332560Y-97982500D01*
X162325451Y-97982500D01*
X162278157Y-97744735D01*
X162177073Y-97593453D01*
X162218327Y-97552199D01*
X162315000Y-97318810D01*
X162315000Y-96728250D01*
X162156250Y-96569500D01*
X160807000Y-96569500D01*
X160807000Y-96589500D01*
X160553000Y-96589500D01*
X160553000Y-96569500D01*
X160533000Y-96569500D01*
X160533000Y-96315500D01*
X160553000Y-96315500D01*
X160553000Y-95216250D01*
X160807000Y-95216250D01*
X160807000Y-96315500D01*
X162156250Y-96315500D01*
X162315000Y-96156750D01*
X162315000Y-95566190D01*
X162218327Y-95332801D01*
X162039698Y-95154173D01*
X161806309Y-95057500D01*
X160965750Y-95057500D01*
X160807000Y-95216250D01*
X160553000Y-95216250D01*
X160394250Y-95057500D01*
X159553691Y-95057500D01*
X159320302Y-95154173D01*
X159141673Y-95332801D01*
X159045000Y-95566190D01*
X159045000Y-95750525D01*
X158829000Y-95707560D01*
X156829000Y-95707560D01*
X156581235Y-95756843D01*
X156371191Y-95897191D01*
X156230843Y-96107235D01*
X156181560Y-96355000D01*
X156181560Y-97955000D01*
X156230843Y-98202765D01*
X156371191Y-98412809D01*
X156531611Y-98519999D01*
X155124306Y-98519999D01*
X155188698Y-98493327D01*
X155367327Y-98314699D01*
X155464000Y-98081310D01*
X155464000Y-97440750D01*
X155305250Y-97282000D01*
X153956000Y-97282000D01*
X153956000Y-97302000D01*
X153702000Y-97302000D01*
X153702000Y-97282000D01*
X152352750Y-97282000D01*
X152194000Y-97440750D01*
X152194000Y-98081310D01*
X152290673Y-98314699D01*
X152469302Y-98493327D01*
X152533694Y-98519999D01*
X149760512Y-98519999D01*
X148514168Y-97273656D01*
X148468977Y-97206023D01*
X148201046Y-97026997D01*
X148182440Y-97023296D01*
X148182440Y-96940000D01*
X148133157Y-96692235D01*
X147992809Y-96482191D01*
X147782765Y-96341843D01*
X147535000Y-96292560D01*
X147495000Y-96292560D01*
X147495000Y-96228690D01*
X152194000Y-96228690D01*
X152194000Y-96869250D01*
X152352750Y-97028000D01*
X153702000Y-97028000D01*
X153702000Y-95878750D01*
X153956000Y-95878750D01*
X153956000Y-97028000D01*
X155305250Y-97028000D01*
X155464000Y-96869250D01*
X155464000Y-96228690D01*
X155367327Y-95995301D01*
X155188698Y-95816673D01*
X154955309Y-95720000D01*
X154114750Y-95720000D01*
X153956000Y-95878750D01*
X153702000Y-95878750D01*
X153543250Y-95720000D01*
X152702691Y-95720000D01*
X152469302Y-95816673D01*
X152290673Y-95995301D01*
X152194000Y-96228690D01*
X147495000Y-96228690D01*
X147495000Y-92823350D01*
X151394000Y-92823350D01*
X151394000Y-93413909D01*
X151490673Y-93647298D01*
X151669301Y-93825927D01*
X151902690Y-93922600D01*
X152368250Y-93922600D01*
X152527000Y-93763850D01*
X152527000Y-92664600D01*
X151552750Y-92664600D01*
X151394000Y-92823350D01*
X147495000Y-92823350D01*
X147495000Y-91968010D01*
X153765500Y-85697511D01*
X153765500Y-85968310D01*
X153862173Y-86201699D01*
X154040802Y-86380327D01*
X154274191Y-86477000D01*
X154864750Y-86477000D01*
X155023500Y-86318250D01*
X155023500Y-85344000D01*
X155003500Y-85344000D01*
X155003500Y-85090000D01*
X155023500Y-85090000D01*
X155023500Y-85070000D01*
X155277500Y-85070000D01*
X155277500Y-85090000D01*
X155277500Y-85090000D01*
G37*
X155277500Y-85090000D02*
X155297500Y-85090000D01*
X155297500Y-85344000D01*
X155277500Y-85344000D01*
X155277500Y-86318250D01*
X155436250Y-86477000D01*
X156026809Y-86477000D01*
X156260198Y-86380327D01*
X156401846Y-86238680D01*
X156442691Y-86299809D01*
X156652735Y-86440157D01*
X156883109Y-86485981D01*
X156887498Y-86508046D01*
X156903031Y-86531292D01*
X157066524Y-86775977D01*
X157134154Y-86821166D01*
X157487832Y-87174844D01*
X157533023Y-87242477D01*
X157673098Y-87336072D01*
X157800953Y-87421503D01*
X158117000Y-87484368D01*
X158196774Y-87468500D01*
X158653000Y-87468500D01*
X158653000Y-87585502D01*
X158790226Y-87585502D01*
X158746888Y-87650362D01*
X158664588Y-87732662D01*
X158513310Y-87670000D01*
X157772750Y-87670000D01*
X157614000Y-87828750D01*
X157614000Y-89228000D01*
X157634000Y-89228000D01*
X157634000Y-89482000D01*
X157614000Y-89482000D01*
X157614000Y-89502000D01*
X157360000Y-89502000D01*
X157360000Y-89482000D01*
X157340000Y-89482000D01*
X157340000Y-89228000D01*
X157360000Y-89228000D01*
X157360000Y-87828750D01*
X157201250Y-87670000D01*
X156460690Y-87670000D01*
X156348916Y-87716298D01*
X156334765Y-87706843D01*
X156087000Y-87657560D01*
X154287000Y-87657560D01*
X154039235Y-87706843D01*
X153829191Y-87847191D01*
X153688843Y-88057235D01*
X153639560Y-88305000D01*
X153639560Y-88764811D01*
X153526765Y-88689443D01*
X153279000Y-88640160D01*
X152029000Y-88640160D01*
X151781235Y-88689443D01*
X151571191Y-88829791D01*
X151430843Y-89039835D01*
X151381560Y-89287600D01*
X151381560Y-90787600D01*
X151430843Y-91035365D01*
X151571191Y-91245409D01*
X151632320Y-91286254D01*
X151490673Y-91427902D01*
X151394000Y-91661291D01*
X151394000Y-92251850D01*
X151552750Y-92410600D01*
X152527000Y-92410600D01*
X152527000Y-92390600D01*
X152781000Y-92390600D01*
X152781000Y-92410600D01*
X152801000Y-92410600D01*
X152801000Y-92664600D01*
X152781000Y-92664600D01*
X152781000Y-93763850D01*
X152939750Y-93922600D01*
X153405310Y-93922600D01*
X153638699Y-93825927D01*
X153774300Y-93690325D01*
X153927301Y-93843327D01*
X154160690Y-93940000D01*
X154901250Y-93940000D01*
X155060000Y-93781250D01*
X155060000Y-92382000D01*
X155040000Y-92382000D01*
X155040000Y-92128000D01*
X155060000Y-92128000D01*
X155060000Y-92108000D01*
X155314000Y-92108000D01*
X155314000Y-92128000D01*
X155334000Y-92128000D01*
X155334000Y-92382000D01*
X155314000Y-92382000D01*
X155314000Y-93781250D01*
X155472750Y-93940000D01*
X156213310Y-93940000D01*
X156325084Y-93893702D01*
X156339235Y-93903157D01*
X156587000Y-93952440D01*
X158387000Y-93952440D01*
X158634765Y-93903157D01*
X158706060Y-93855519D01*
X158706060Y-94224000D01*
X158755343Y-94471765D01*
X158895691Y-94681809D01*
X159105735Y-94822157D01*
X159353500Y-94871440D01*
X160853500Y-94871440D01*
X161101265Y-94822157D01*
X161311309Y-94681809D01*
X161352154Y-94620680D01*
X161493802Y-94762327D01*
X161727191Y-94859000D01*
X162317750Y-94859000D01*
X162476500Y-94700250D01*
X162476500Y-93726000D01*
X162730500Y-93726000D01*
X162730500Y-94700250D01*
X162889250Y-94859000D01*
X163479809Y-94859000D01*
X163713198Y-94762327D01*
X163891827Y-94583699D01*
X163988500Y-94350310D01*
X163988500Y-93884750D01*
X163829750Y-93726000D01*
X162730500Y-93726000D01*
X162476500Y-93726000D01*
X162456500Y-93726000D01*
X162456500Y-93472000D01*
X162476500Y-93472000D01*
X162476500Y-93452000D01*
X162730500Y-93452000D01*
X162730500Y-93472000D01*
X163829750Y-93472000D01*
X163988500Y-93313250D01*
X163988500Y-92847690D01*
X163950496Y-92755940D01*
X164213000Y-92755940D01*
X164338000Y-92731076D01*
X164463000Y-92755940D01*
X165013000Y-92755940D01*
X165138000Y-92731076D01*
X165263000Y-92755940D01*
X165689518Y-92755940D01*
X165790071Y-92906429D01*
X165853530Y-92948831D01*
X166803180Y-93898482D01*
X166845581Y-93961939D01*
X167096973Y-94129914D01*
X167318658Y-94174010D01*
X167318662Y-94174010D01*
X167393510Y-94188898D01*
X167468358Y-94174010D01*
X173451211Y-94174010D01*
X175413034Y-96135834D01*
X175014875Y-96401875D01*
X174815500Y-96700261D01*
X174616125Y-96401875D01*
X174124918Y-96073661D01*
X173691756Y-95987500D01*
X173399244Y-95987500D01*
X172966082Y-96073661D01*
X172474875Y-96401875D01*
X172267322Y-96712500D01*
X171772711Y-96712500D01*
X171528280Y-96468069D01*
X171147874Y-96310500D01*
X170736126Y-96310500D01*
X170355720Y-96468069D01*
X170064569Y-96759220D01*
X169907000Y-97139626D01*
X169907000Y-97551374D01*
X170064569Y-97931780D01*
X170355720Y-98222931D01*
X170736126Y-98380500D01*
X171147874Y-98380500D01*
X171505178Y-98232500D01*
X172267322Y-98232500D01*
X172474875Y-98543125D01*
X172775286Y-98743853D01*
X172350317Y-99131142D01*
X172104014Y-99655608D01*
X172224681Y-99885500D01*
X173418500Y-99885500D01*
X173418500Y-99865500D01*
X173672500Y-99865500D01*
X173672500Y-99885500D01*
X173692500Y-99885500D01*
X173692500Y-100139500D01*
X173672500Y-100139500D01*
X173672500Y-100159500D01*
X173418500Y-100159500D01*
X173418500Y-100139500D01*
X172224681Y-100139500D01*
X172104014Y-100369392D01*
X172350317Y-100893858D01*
X172778576Y-101284145D01*
X172895323Y-101332500D01*
X170006211Y-101332500D01*
X170231931Y-101106780D01*
X170389500Y-100726374D01*
X170389500Y-100314626D01*
X170231931Y-99934220D01*
X170120617Y-99822906D01*
X170114500Y-99792152D01*
X170114500Y-99792148D01*
X170070404Y-99570463D01*
X169902429Y-99319071D01*
X169838973Y-99276671D01*
X168820331Y-98258030D01*
X168777929Y-98194571D01*
X168627440Y-98094017D01*
X168627440Y-96842500D01*
X168578157Y-96594735D01*
X168437809Y-96384691D01*
X168227765Y-96244343D01*
X167980000Y-96195060D01*
X165980000Y-96195060D01*
X165732235Y-96244343D01*
X165522191Y-96384691D01*
X165381843Y-96594735D01*
X165332560Y-96842500D01*
X165332560Y-97982500D01*
X162325451Y-97982500D01*
X162278157Y-97744735D01*
X162177073Y-97593453D01*
X162218327Y-97552199D01*
X162315000Y-97318810D01*
X162315000Y-96728250D01*
X162156250Y-96569500D01*
X160807000Y-96569500D01*
X160807000Y-96589500D01*
X160553000Y-96589500D01*
X160553000Y-96569500D01*
X160533000Y-96569500D01*
X160533000Y-96315500D01*
X160553000Y-96315500D01*
X160553000Y-95216250D01*
X160807000Y-95216250D01*
X160807000Y-96315500D01*
X162156250Y-96315500D01*
X162315000Y-96156750D01*
X162315000Y-95566190D01*
X162218327Y-95332801D01*
X162039698Y-95154173D01*
X161806309Y-95057500D01*
X160965750Y-95057500D01*
X160807000Y-95216250D01*
X160553000Y-95216250D01*
X160394250Y-95057500D01*
X159553691Y-95057500D01*
X159320302Y-95154173D01*
X159141673Y-95332801D01*
X159045000Y-95566190D01*
X159045000Y-95750525D01*
X158829000Y-95707560D01*
X156829000Y-95707560D01*
X156581235Y-95756843D01*
X156371191Y-95897191D01*
X156230843Y-96107235D01*
X156181560Y-96355000D01*
X156181560Y-97955000D01*
X156230843Y-98202765D01*
X156371191Y-98412809D01*
X156531611Y-98519999D01*
X155124306Y-98519999D01*
X155188698Y-98493327D01*
X155367327Y-98314699D01*
X155464000Y-98081310D01*
X155464000Y-97440750D01*
X155305250Y-97282000D01*
X153956000Y-97282000D01*
X153956000Y-97302000D01*
X153702000Y-97302000D01*
X153702000Y-97282000D01*
X152352750Y-97282000D01*
X152194000Y-97440750D01*
X152194000Y-98081310D01*
X152290673Y-98314699D01*
X152469302Y-98493327D01*
X152533694Y-98519999D01*
X149760512Y-98519999D01*
X148514168Y-97273656D01*
X148468977Y-97206023D01*
X148201046Y-97026997D01*
X148182440Y-97023296D01*
X148182440Y-96940000D01*
X148133157Y-96692235D01*
X147992809Y-96482191D01*
X147782765Y-96341843D01*
X147535000Y-96292560D01*
X147495000Y-96292560D01*
X147495000Y-96228690D01*
X152194000Y-96228690D01*
X152194000Y-96869250D01*
X152352750Y-97028000D01*
X153702000Y-97028000D01*
X153702000Y-95878750D01*
X153956000Y-95878750D01*
X153956000Y-97028000D01*
X155305250Y-97028000D01*
X155464000Y-96869250D01*
X155464000Y-96228690D01*
X155367327Y-95995301D01*
X155188698Y-95816673D01*
X154955309Y-95720000D01*
X154114750Y-95720000D01*
X153956000Y-95878750D01*
X153702000Y-95878750D01*
X153543250Y-95720000D01*
X152702691Y-95720000D01*
X152469302Y-95816673D01*
X152290673Y-95995301D01*
X152194000Y-96228690D01*
X147495000Y-96228690D01*
X147495000Y-92823350D01*
X151394000Y-92823350D01*
X151394000Y-93413909D01*
X151490673Y-93647298D01*
X151669301Y-93825927D01*
X151902690Y-93922600D01*
X152368250Y-93922600D01*
X152527000Y-93763850D01*
X152527000Y-92664600D01*
X151552750Y-92664600D01*
X151394000Y-92823350D01*
X147495000Y-92823350D01*
X147495000Y-91968010D01*
X153765500Y-85697511D01*
X153765500Y-85968310D01*
X153862173Y-86201699D01*
X154040802Y-86380327D01*
X154274191Y-86477000D01*
X154864750Y-86477000D01*
X155023500Y-86318250D01*
X155023500Y-85344000D01*
X155003500Y-85344000D01*
X155003500Y-85090000D01*
X155023500Y-85090000D01*
X155023500Y-85070000D01*
X155277500Y-85070000D01*
X155277500Y-85090000D01*
G36*
X198058501Y-89087802D02*
X198058500Y-89587652D01*
X198043612Y-89662500D01*
X198058500Y-89737347D01*
X198058500Y-89737351D01*
X198102596Y-89959036D01*
X198270571Y-90210429D01*
X198334029Y-90252831D01*
X199180173Y-91098975D01*
X199222571Y-91162429D01*
X199286024Y-91204827D01*
X199286026Y-91204829D01*
X199373060Y-91262983D01*
X199373060Y-91264500D01*
X199422343Y-91512265D01*
X199562691Y-91722309D01*
X199772735Y-91862657D01*
X200020500Y-91911940D01*
X201520500Y-91911940D01*
X201768265Y-91862657D01*
X201978309Y-91722309D01*
X202118657Y-91512265D01*
X202120500Y-91503000D01*
X202122343Y-91512265D01*
X202186313Y-91608002D01*
X202005691Y-91728691D01*
X201865343Y-91938735D01*
X201816060Y-92186500D01*
X201816060Y-94186500D01*
X201865343Y-94434265D01*
X202005691Y-94644309D01*
X202019772Y-94653717D01*
X196954200Y-99719290D01*
X196993940Y-99519500D01*
X196993940Y-98219500D01*
X196944657Y-97971735D01*
X196804309Y-97761691D01*
X196594265Y-97621343D01*
X196346500Y-97572060D01*
X195273861Y-97572060D01*
X195197000Y-97495199D01*
X195197000Y-95376750D01*
X195224500Y-95376750D01*
X195224500Y-96217309D01*
X195321173Y-96450698D01*
X195499801Y-96629327D01*
X195733190Y-96726000D01*
X196373750Y-96726000D01*
X196532500Y-96567250D01*
X196532500Y-95218000D01*
X196786500Y-95218000D01*
X196786500Y-96567250D01*
X196945250Y-96726000D01*
X197585810Y-96726000D01*
X197819199Y-96629327D01*
X197997827Y-96450698D01*
X198094500Y-96217309D01*
X198094500Y-95376750D01*
X197935750Y-95218000D01*
X196786500Y-95218000D01*
X196532500Y-95218000D01*
X195383250Y-95218000D01*
X195224500Y-95376750D01*
X195197000Y-95376750D01*
X195197000Y-94927560D01*
X195321955Y-94902705D01*
X195383250Y-94964000D01*
X196532500Y-94964000D01*
X196532500Y-93614750D01*
X196786500Y-93614750D01*
X196786500Y-94964000D01*
X197935750Y-94964000D01*
X198094500Y-94805250D01*
X198094500Y-93964691D01*
X197997827Y-93731302D01*
X197819199Y-93552673D01*
X197585810Y-93456000D01*
X196945250Y-93456000D01*
X196786500Y-93614750D01*
X196532500Y-93614750D01*
X196373750Y-93456000D01*
X195734440Y-93456000D01*
X195734440Y-92802000D01*
X195716125Y-92709921D01*
X195859500Y-92738440D01*
X197459500Y-92738440D01*
X197707265Y-92689157D01*
X197917309Y-92548809D01*
X198057657Y-92338765D01*
X198106940Y-92091000D01*
X198106940Y-90091000D01*
X198057657Y-89843235D01*
X197917309Y-89633191D01*
X197707265Y-89492843D01*
X197459500Y-89443560D01*
X197136429Y-89443560D01*
X197250000Y-89169374D01*
X197250000Y-88757626D01*
X197124027Y-88453500D01*
X197424199Y-88453500D01*
X198058501Y-89087802D01*
X198058501Y-89087802D01*
G37*
X198058501Y-89087802D02*
X198058500Y-89587652D01*
X198043612Y-89662500D01*
X198058500Y-89737347D01*
X198058500Y-89737351D01*
X198102596Y-89959036D01*
X198270571Y-90210429D01*
X198334029Y-90252831D01*
X199180173Y-91098975D01*
X199222571Y-91162429D01*
X199286024Y-91204827D01*
X199286026Y-91204829D01*
X199373060Y-91262983D01*
X199373060Y-91264500D01*
X199422343Y-91512265D01*
X199562691Y-91722309D01*
X199772735Y-91862657D01*
X200020500Y-91911940D01*
X201520500Y-91911940D01*
X201768265Y-91862657D01*
X201978309Y-91722309D01*
X202118657Y-91512265D01*
X202120500Y-91503000D01*
X202122343Y-91512265D01*
X202186313Y-91608002D01*
X202005691Y-91728691D01*
X201865343Y-91938735D01*
X201816060Y-92186500D01*
X201816060Y-94186500D01*
X201865343Y-94434265D01*
X202005691Y-94644309D01*
X202019772Y-94653717D01*
X196954200Y-99719290D01*
X196993940Y-99519500D01*
X196993940Y-98219500D01*
X196944657Y-97971735D01*
X196804309Y-97761691D01*
X196594265Y-97621343D01*
X196346500Y-97572060D01*
X195273861Y-97572060D01*
X195197000Y-97495199D01*
X195197000Y-95376750D01*
X195224500Y-95376750D01*
X195224500Y-96217309D01*
X195321173Y-96450698D01*
X195499801Y-96629327D01*
X195733190Y-96726000D01*
X196373750Y-96726000D01*
X196532500Y-96567250D01*
X196532500Y-95218000D01*
X196786500Y-95218000D01*
X196786500Y-96567250D01*
X196945250Y-96726000D01*
X197585810Y-96726000D01*
X197819199Y-96629327D01*
X197997827Y-96450698D01*
X198094500Y-96217309D01*
X198094500Y-95376750D01*
X197935750Y-95218000D01*
X196786500Y-95218000D01*
X196532500Y-95218000D01*
X195383250Y-95218000D01*
X195224500Y-95376750D01*
X195197000Y-95376750D01*
X195197000Y-94927560D01*
X195321955Y-94902705D01*
X195383250Y-94964000D01*
X196532500Y-94964000D01*
X196532500Y-93614750D01*
X196786500Y-93614750D01*
X196786500Y-94964000D01*
X197935750Y-94964000D01*
X198094500Y-94805250D01*
X198094500Y-93964691D01*
X197997827Y-93731302D01*
X197819199Y-93552673D01*
X197585810Y-93456000D01*
X196945250Y-93456000D01*
X196786500Y-93614750D01*
X196532500Y-93614750D01*
X196373750Y-93456000D01*
X195734440Y-93456000D01*
X195734440Y-92802000D01*
X195716125Y-92709921D01*
X195859500Y-92738440D01*
X197459500Y-92738440D01*
X197707265Y-92689157D01*
X197917309Y-92548809D01*
X198057657Y-92338765D01*
X198106940Y-92091000D01*
X198106940Y-90091000D01*
X198057657Y-89843235D01*
X197917309Y-89633191D01*
X197707265Y-89492843D01*
X197459500Y-89443560D01*
X197136429Y-89443560D01*
X197250000Y-89169374D01*
X197250000Y-88757626D01*
X197124027Y-88453500D01*
X197424199Y-88453500D01*
X198058501Y-89087802D01*
G36*
X176780491Y-92713638D02*
X176765602Y-92788490D01*
X176824587Y-93085027D01*
X176938470Y-93255464D01*
X176992562Y-93336419D01*
X177056018Y-93378819D01*
X179696148Y-96018949D01*
X179475500Y-95975060D01*
X179273983Y-95975060D01*
X179173429Y-95824571D01*
X179109973Y-95782171D01*
X175901613Y-92573812D01*
X176051498Y-92511727D01*
X176230127Y-92333099D01*
X176326800Y-92099710D01*
X176326800Y-91979750D01*
X176168050Y-91821000D01*
X174828200Y-91821000D01*
X174828200Y-91841000D01*
X174574200Y-91841000D01*
X174574200Y-91821000D01*
X174554200Y-91821000D01*
X174554200Y-91567000D01*
X174574200Y-91567000D01*
X174574200Y-91547000D01*
X174828200Y-91547000D01*
X174828200Y-91567000D01*
X176168050Y-91567000D01*
X176326800Y-91408250D01*
X176326800Y-91288290D01*
X176230127Y-91054901D01*
X176224441Y-91049215D01*
X176289957Y-90951165D01*
X176339240Y-90703400D01*
X176339240Y-90379500D01*
X176608874Y-90379500D01*
X176780490Y-90308414D01*
X176780491Y-92713638D01*
X176780491Y-92713638D01*
G37*
X176780491Y-92713638D02*
X176765602Y-92788490D01*
X176824587Y-93085027D01*
X176938470Y-93255464D01*
X176992562Y-93336419D01*
X177056018Y-93378819D01*
X179696148Y-96018949D01*
X179475500Y-95975060D01*
X179273983Y-95975060D01*
X179173429Y-95824571D01*
X179109973Y-95782171D01*
X175901613Y-92573812D01*
X176051498Y-92511727D01*
X176230127Y-92333099D01*
X176326800Y-92099710D01*
X176326800Y-91979750D01*
X176168050Y-91821000D01*
X174828200Y-91821000D01*
X174828200Y-91841000D01*
X174574200Y-91841000D01*
X174574200Y-91821000D01*
X174554200Y-91821000D01*
X174554200Y-91567000D01*
X174574200Y-91567000D01*
X174574200Y-91547000D01*
X174828200Y-91547000D01*
X174828200Y-91567000D01*
X176168050Y-91567000D01*
X176326800Y-91408250D01*
X176326800Y-91288290D01*
X176230127Y-91054901D01*
X176224441Y-91049215D01*
X176289957Y-90951165D01*
X176339240Y-90703400D01*
X176339240Y-90379500D01*
X176608874Y-90379500D01*
X176780490Y-90308414D01*
X176780491Y-92713638D01*
G36*
X173075600Y-91821002D02*
X173234348Y-91821002D01*
X173075600Y-91979750D01*
X173075600Y-92099710D01*
X173118798Y-92204000D01*
X169633302Y-92204000D01*
X169366772Y-91937470D01*
X169369280Y-91936431D01*
X169486711Y-91819000D01*
X172750753Y-91819000D01*
X172825600Y-91833888D01*
X172900447Y-91819000D01*
X172900452Y-91819000D01*
X173075600Y-91784161D01*
X173075600Y-91821002D01*
X173075600Y-91821002D01*
G37*
X173075600Y-91821002D02*
X173234348Y-91821002D01*
X173075600Y-91979750D01*
X173075600Y-92099710D01*
X173118798Y-92204000D01*
X169633302Y-92204000D01*
X169366772Y-91937470D01*
X169369280Y-91936431D01*
X169486711Y-91819000D01*
X172750753Y-91819000D01*
X172825600Y-91833888D01*
X172900447Y-91819000D01*
X172900452Y-91819000D01*
X173075600Y-91784161D01*
X173075600Y-91821002D01*
G36*
X182827171Y-83319973D02*
X182869571Y-83383429D01*
X182974595Y-83453604D01*
X182933028Y-83495171D01*
X182869572Y-83537571D01*
X182827172Y-83601027D01*
X182827171Y-83601028D01*
X182701597Y-83788963D01*
X182642612Y-84085500D01*
X182657501Y-84160351D01*
X182657500Y-85449153D01*
X182642612Y-85524000D01*
X182657500Y-85598847D01*
X182657500Y-85598851D01*
X182701596Y-85820536D01*
X182869571Y-86071929D01*
X182933030Y-86114331D01*
X183048169Y-86229470D01*
X183090571Y-86292929D01*
X183280480Y-86419822D01*
X183275402Y-86445348D01*
X183253500Y-86467250D01*
X183253500Y-86498310D01*
X183261180Y-86516850D01*
X183241060Y-86618000D01*
X183241060Y-86872000D01*
X183265526Y-86995000D01*
X183241060Y-87118000D01*
X183241060Y-87372000D01*
X183265526Y-87495000D01*
X183241060Y-87618000D01*
X183241060Y-87872000D01*
X183265526Y-87995000D01*
X183241060Y-88118000D01*
X183241060Y-88372000D01*
X183265526Y-88495000D01*
X183241060Y-88618000D01*
X183241060Y-88872000D01*
X183290343Y-89119765D01*
X183430691Y-89329809D01*
X183640735Y-89470157D01*
X183888500Y-89519440D01*
X185031500Y-89519440D01*
X185279265Y-89470157D01*
X185489309Y-89329809D01*
X185629657Y-89119765D01*
X185678940Y-88872000D01*
X185678940Y-88618000D01*
X185654474Y-88495000D01*
X185678940Y-88372000D01*
X185678940Y-88118000D01*
X185654474Y-87995000D01*
X185678940Y-87872000D01*
X185678940Y-87618000D01*
X185654474Y-87495000D01*
X185678940Y-87372000D01*
X185678940Y-87118000D01*
X185654474Y-86995000D01*
X185678940Y-86872000D01*
X185678940Y-86618000D01*
X185658820Y-86516850D01*
X185663729Y-86505000D01*
X187327000Y-86505000D01*
X187327000Y-86580654D01*
X187312112Y-86655502D01*
X187327000Y-86730349D01*
X187327000Y-86730353D01*
X187371096Y-86952038D01*
X187539071Y-87203431D01*
X187602530Y-87245833D01*
X189632755Y-89276060D01*
X189583000Y-89276060D01*
X189460000Y-89300526D01*
X189337000Y-89276060D01*
X189083000Y-89276060D01*
X188960000Y-89300526D01*
X188837000Y-89276060D01*
X188583000Y-89276060D01*
X188460000Y-89300526D01*
X188337000Y-89276060D01*
X188083000Y-89276060D01*
X187960000Y-89300526D01*
X187837000Y-89276060D01*
X187583000Y-89276060D01*
X187460000Y-89300526D01*
X187337000Y-89276060D01*
X187083000Y-89276060D01*
X186960000Y-89300526D01*
X186837000Y-89276060D01*
X186583000Y-89276060D01*
X186460000Y-89300526D01*
X186337000Y-89276060D01*
X186083000Y-89276060D01*
X185835235Y-89325343D01*
X185625191Y-89465691D01*
X185484843Y-89675735D01*
X185435560Y-89923500D01*
X185435560Y-90631501D01*
X182788113Y-90631501D01*
X181430542Y-89273931D01*
X181388140Y-89210472D01*
X181266840Y-89129422D01*
X181266840Y-88874600D01*
X181217557Y-88626835D01*
X181145503Y-88519000D01*
X181217557Y-88411165D01*
X181266840Y-88163400D01*
X181266840Y-87604600D01*
X181217557Y-87356835D01*
X181145503Y-87249000D01*
X181217557Y-87141165D01*
X181266840Y-86893400D01*
X181266840Y-86334600D01*
X181217557Y-86086835D01*
X181145503Y-85979000D01*
X181217557Y-85871165D01*
X181266840Y-85623400D01*
X181266840Y-85064600D01*
X181217557Y-84816835D01*
X181145503Y-84709000D01*
X181217557Y-84601165D01*
X181266840Y-84353400D01*
X181266840Y-83794600D01*
X181217557Y-83546835D01*
X181145503Y-83439000D01*
X181217557Y-83331165D01*
X181266840Y-83083400D01*
X181266840Y-82524600D01*
X181217557Y-82276835D01*
X181077209Y-82066791D01*
X180867165Y-81926443D01*
X180619400Y-81877160D01*
X178638200Y-81877160D01*
X178390435Y-81926443D01*
X178180391Y-82066791D01*
X178040043Y-82276835D01*
X177990760Y-82524600D01*
X177990760Y-83083400D01*
X178040043Y-83331165D01*
X178112097Y-83439000D01*
X178040043Y-83546835D01*
X177990760Y-83794600D01*
X177990760Y-84353400D01*
X178040043Y-84601165D01*
X178112097Y-84709000D01*
X178040043Y-84816835D01*
X177990760Y-85064600D01*
X177990760Y-85577558D01*
X176339240Y-83926039D01*
X176339240Y-83794600D01*
X176289957Y-83546835D01*
X176217903Y-83439000D01*
X176289957Y-83331165D01*
X176339240Y-83083400D01*
X176339240Y-82524600D01*
X176289957Y-82276835D01*
X176149609Y-82066791D01*
X175939565Y-81926443D01*
X175708152Y-81880413D01*
X175769765Y-81868157D01*
X175979809Y-81727809D01*
X176020654Y-81666680D01*
X176162302Y-81808327D01*
X176395691Y-81905000D01*
X176986250Y-81905000D01*
X177145000Y-81746250D01*
X177145000Y-80772000D01*
X177399000Y-80772000D01*
X177399000Y-81746250D01*
X177557750Y-81905000D01*
X178148309Y-81905000D01*
X178381698Y-81808327D01*
X178560327Y-81629699D01*
X178657000Y-81396310D01*
X178657000Y-80930750D01*
X178498250Y-80772000D01*
X177399000Y-80772000D01*
X177145000Y-80772000D01*
X177125000Y-80772000D01*
X177125000Y-80518000D01*
X177145000Y-80518000D01*
X177145000Y-80498000D01*
X177399000Y-80498000D01*
X177399000Y-80518000D01*
X178498250Y-80518000D01*
X178561251Y-80454999D01*
X179962198Y-80454999D01*
X182827171Y-83319973D01*
X182827171Y-83319973D01*
G37*
X182827171Y-83319973D02*
X182869571Y-83383429D01*
X182974595Y-83453604D01*
X182933028Y-83495171D01*
X182869572Y-83537571D01*
X182827172Y-83601027D01*
X182827171Y-83601028D01*
X182701597Y-83788963D01*
X182642612Y-84085500D01*
X182657501Y-84160351D01*
X182657500Y-85449153D01*
X182642612Y-85524000D01*
X182657500Y-85598847D01*
X182657500Y-85598851D01*
X182701596Y-85820536D01*
X182869571Y-86071929D01*
X182933030Y-86114331D01*
X183048169Y-86229470D01*
X183090571Y-86292929D01*
X183280480Y-86419822D01*
X183275402Y-86445348D01*
X183253500Y-86467250D01*
X183253500Y-86498310D01*
X183261180Y-86516850D01*
X183241060Y-86618000D01*
X183241060Y-86872000D01*
X183265526Y-86995000D01*
X183241060Y-87118000D01*
X183241060Y-87372000D01*
X183265526Y-87495000D01*
X183241060Y-87618000D01*
X183241060Y-87872000D01*
X183265526Y-87995000D01*
X183241060Y-88118000D01*
X183241060Y-88372000D01*
X183265526Y-88495000D01*
X183241060Y-88618000D01*
X183241060Y-88872000D01*
X183290343Y-89119765D01*
X183430691Y-89329809D01*
X183640735Y-89470157D01*
X183888500Y-89519440D01*
X185031500Y-89519440D01*
X185279265Y-89470157D01*
X185489309Y-89329809D01*
X185629657Y-89119765D01*
X185678940Y-88872000D01*
X185678940Y-88618000D01*
X185654474Y-88495000D01*
X185678940Y-88372000D01*
X185678940Y-88118000D01*
X185654474Y-87995000D01*
X185678940Y-87872000D01*
X185678940Y-87618000D01*
X185654474Y-87495000D01*
X185678940Y-87372000D01*
X185678940Y-87118000D01*
X185654474Y-86995000D01*
X185678940Y-86872000D01*
X185678940Y-86618000D01*
X185658820Y-86516850D01*
X185663729Y-86505000D01*
X187327000Y-86505000D01*
X187327000Y-86580654D01*
X187312112Y-86655502D01*
X187327000Y-86730349D01*
X187327000Y-86730353D01*
X187371096Y-86952038D01*
X187539071Y-87203431D01*
X187602530Y-87245833D01*
X189632755Y-89276060D01*
X189583000Y-89276060D01*
X189460000Y-89300526D01*
X189337000Y-89276060D01*
X189083000Y-89276060D01*
X188960000Y-89300526D01*
X188837000Y-89276060D01*
X188583000Y-89276060D01*
X188460000Y-89300526D01*
X188337000Y-89276060D01*
X188083000Y-89276060D01*
X187960000Y-89300526D01*
X187837000Y-89276060D01*
X187583000Y-89276060D01*
X187460000Y-89300526D01*
X187337000Y-89276060D01*
X187083000Y-89276060D01*
X186960000Y-89300526D01*
X186837000Y-89276060D01*
X186583000Y-89276060D01*
X186460000Y-89300526D01*
X186337000Y-89276060D01*
X186083000Y-89276060D01*
X185835235Y-89325343D01*
X185625191Y-89465691D01*
X185484843Y-89675735D01*
X185435560Y-89923500D01*
X185435560Y-90631501D01*
X182788113Y-90631501D01*
X181430542Y-89273931D01*
X181388140Y-89210472D01*
X181266840Y-89129422D01*
X181266840Y-88874600D01*
X181217557Y-88626835D01*
X181145503Y-88519000D01*
X181217557Y-88411165D01*
X181266840Y-88163400D01*
X181266840Y-87604600D01*
X181217557Y-87356835D01*
X181145503Y-87249000D01*
X181217557Y-87141165D01*
X181266840Y-86893400D01*
X181266840Y-86334600D01*
X181217557Y-86086835D01*
X181145503Y-85979000D01*
X181217557Y-85871165D01*
X181266840Y-85623400D01*
X181266840Y-85064600D01*
X181217557Y-84816835D01*
X181145503Y-84709000D01*
X181217557Y-84601165D01*
X181266840Y-84353400D01*
X181266840Y-83794600D01*
X181217557Y-83546835D01*
X181145503Y-83439000D01*
X181217557Y-83331165D01*
X181266840Y-83083400D01*
X181266840Y-82524600D01*
X181217557Y-82276835D01*
X181077209Y-82066791D01*
X180867165Y-81926443D01*
X180619400Y-81877160D01*
X178638200Y-81877160D01*
X178390435Y-81926443D01*
X178180391Y-82066791D01*
X178040043Y-82276835D01*
X177990760Y-82524600D01*
X177990760Y-83083400D01*
X178040043Y-83331165D01*
X178112097Y-83439000D01*
X178040043Y-83546835D01*
X177990760Y-83794600D01*
X177990760Y-84353400D01*
X178040043Y-84601165D01*
X178112097Y-84709000D01*
X178040043Y-84816835D01*
X177990760Y-85064600D01*
X177990760Y-85577558D01*
X176339240Y-83926039D01*
X176339240Y-83794600D01*
X176289957Y-83546835D01*
X176217903Y-83439000D01*
X176289957Y-83331165D01*
X176339240Y-83083400D01*
X176339240Y-82524600D01*
X176289957Y-82276835D01*
X176149609Y-82066791D01*
X175939565Y-81926443D01*
X175708152Y-81880413D01*
X175769765Y-81868157D01*
X175979809Y-81727809D01*
X176020654Y-81666680D01*
X176162302Y-81808327D01*
X176395691Y-81905000D01*
X176986250Y-81905000D01*
X177145000Y-81746250D01*
X177145000Y-80772000D01*
X177399000Y-80772000D01*
X177399000Y-81746250D01*
X177557750Y-81905000D01*
X178148309Y-81905000D01*
X178381698Y-81808327D01*
X178560327Y-81629699D01*
X178657000Y-81396310D01*
X178657000Y-80930750D01*
X178498250Y-80772000D01*
X177399000Y-80772000D01*
X177145000Y-80772000D01*
X177125000Y-80772000D01*
X177125000Y-80518000D01*
X177145000Y-80518000D01*
X177145000Y-80498000D01*
X177399000Y-80498000D01*
X177399000Y-80518000D01*
X178498250Y-80518000D01*
X178561251Y-80454999D01*
X179962198Y-80454999D01*
X182827171Y-83319973D01*
G36*
X193910172Y-88177975D02*
X193952571Y-88241429D01*
X194016024Y-88283827D01*
X194016026Y-88283829D01*
X194141402Y-88367602D01*
X194203963Y-88409404D01*
X194425648Y-88453500D01*
X194425652Y-88453500D01*
X194500499Y-88468388D01*
X194575346Y-88453500D01*
X195305973Y-88453500D01*
X195180000Y-88757626D01*
X195180000Y-89169374D01*
X195317085Y-89500326D01*
X195087000Y-89454560D01*
X195085483Y-89454560D01*
X194984929Y-89304071D01*
X194921473Y-89261671D01*
X193616812Y-87957011D01*
X193689209Y-87957011D01*
X193910172Y-88177975D01*
X193910172Y-88177975D01*
G37*
X193910172Y-88177975D02*
X193952571Y-88241429D01*
X194016024Y-88283827D01*
X194016026Y-88283829D01*
X194141402Y-88367602D01*
X194203963Y-88409404D01*
X194425648Y-88453500D01*
X194425652Y-88453500D01*
X194500499Y-88468388D01*
X194575346Y-88453500D01*
X195305973Y-88453500D01*
X195180000Y-88757626D01*
X195180000Y-89169374D01*
X195317085Y-89500326D01*
X195087000Y-89454560D01*
X195085483Y-89454560D01*
X194984929Y-89304071D01*
X194921473Y-89261671D01*
X193616812Y-87957011D01*
X193689209Y-87957011D01*
X193910172Y-88177975D01*
G36*
X166863000Y-84255940D02*
X167140560Y-84255940D01*
X167140560Y-84533500D01*
X167165424Y-84658500D01*
X167140560Y-84783500D01*
X167140560Y-85333500D01*
X167165424Y-85458500D01*
X167140560Y-85583500D01*
X167140560Y-86133500D01*
X167161217Y-86237352D01*
X167153000Y-86257190D01*
X167153000Y-86372750D01*
X167246888Y-86466638D01*
X167290226Y-86531498D01*
X167153000Y-86531498D01*
X167153000Y-86648500D01*
X162373513Y-86648500D01*
X161892169Y-86167156D01*
X161846978Y-86099524D01*
X161831991Y-86089510D01*
X161821977Y-86074523D01*
X161554046Y-85895497D01*
X161317774Y-85848500D01*
X161317773Y-85848500D01*
X161273421Y-85839678D01*
X161345809Y-85791309D01*
X161429112Y-85666638D01*
X161523000Y-85572750D01*
X161523000Y-85457190D01*
X161514783Y-85437352D01*
X161535440Y-85333500D01*
X161535440Y-84783500D01*
X161510576Y-84658500D01*
X161535440Y-84533500D01*
X161535440Y-84255940D01*
X161813000Y-84255940D01*
X161938000Y-84231076D01*
X162063000Y-84255940D01*
X162613000Y-84255940D01*
X162738000Y-84231076D01*
X162863000Y-84255940D01*
X163140493Y-84255940D01*
X162985500Y-84630126D01*
X162985500Y-85041874D01*
X163143069Y-85422280D01*
X163434220Y-85713431D01*
X163814626Y-85871000D01*
X164226374Y-85871000D01*
X164606780Y-85713431D01*
X164897931Y-85422280D01*
X165055500Y-85041874D01*
X165055500Y-84630126D01*
X164900507Y-84255940D01*
X165013000Y-84255940D01*
X165138000Y-84231076D01*
X165263000Y-84255940D01*
X165813000Y-84255940D01*
X165938000Y-84231076D01*
X166063000Y-84255940D01*
X166613000Y-84255940D01*
X166738000Y-84231076D01*
X166863000Y-84255940D01*
X166863000Y-84255940D01*
G37*
X166863000Y-84255940D02*
X167140560Y-84255940D01*
X167140560Y-84533500D01*
X167165424Y-84658500D01*
X167140560Y-84783500D01*
X167140560Y-85333500D01*
X167165424Y-85458500D01*
X167140560Y-85583500D01*
X167140560Y-86133500D01*
X167161217Y-86237352D01*
X167153000Y-86257190D01*
X167153000Y-86372750D01*
X167246888Y-86466638D01*
X167290226Y-86531498D01*
X167153000Y-86531498D01*
X167153000Y-86648500D01*
X162373513Y-86648500D01*
X161892169Y-86167156D01*
X161846978Y-86099524D01*
X161831991Y-86089510D01*
X161821977Y-86074523D01*
X161554046Y-85895497D01*
X161317774Y-85848500D01*
X161317773Y-85848500D01*
X161273421Y-85839678D01*
X161345809Y-85791309D01*
X161429112Y-85666638D01*
X161523000Y-85572750D01*
X161523000Y-85457190D01*
X161514783Y-85437352D01*
X161535440Y-85333500D01*
X161535440Y-84783500D01*
X161510576Y-84658500D01*
X161535440Y-84533500D01*
X161535440Y-84255940D01*
X161813000Y-84255940D01*
X161938000Y-84231076D01*
X162063000Y-84255940D01*
X162613000Y-84255940D01*
X162738000Y-84231076D01*
X162863000Y-84255940D01*
X163140493Y-84255940D01*
X162985500Y-84630126D01*
X162985500Y-85041874D01*
X163143069Y-85422280D01*
X163434220Y-85713431D01*
X163814626Y-85871000D01*
X164226374Y-85871000D01*
X164606780Y-85713431D01*
X164897931Y-85422280D01*
X165055500Y-85041874D01*
X165055500Y-84630126D01*
X164900507Y-84255940D01*
X165013000Y-84255940D01*
X165138000Y-84231076D01*
X165263000Y-84255940D01*
X165813000Y-84255940D01*
X165938000Y-84231076D01*
X166063000Y-84255940D01*
X166613000Y-84255940D01*
X166738000Y-84231076D01*
X166863000Y-84255940D01*
M02*
