%TF.GenerationSoftware,KiCad,Pcbnew,(5.0.0)*%
%TF.CreationDate,2018-10-21T12:48:55-07:00*%
%TF.ProjectId,USB_Host_Midi_Adapter,5553425F486F73745F4D6964695F4164,rev?*%
%TF.SameCoordinates,Original*%
%TF.FileFunction,Paste,Top*%
%TF.FilePolarity,Positive*%
%FSLAX46Y46*%
G04 Gerber Fmt 4.6, Leading zero omitted, Abs format (unit mm)*
G04 Created by KiCad (PCBNEW (5.0.0)) date 10/21/18 12:48:55*
%MOMM*%
%LPD*%
G01*
G04 APERTURE LIST*
%ADD10R,1.500000X1.250000*%
%ADD11R,2.000000X1.600000*%
%ADD12R,1.600000X2.000000*%
%ADD13R,1.250000X1.500000*%
%ADD14R,2.500000X2.000000*%
%ADD15R,2.300000X0.500000*%
%ADD16R,1.500000X1.300000*%
%ADD17R,1.300000X1.500000*%
%ADD18R,0.550000X1.600000*%
%ADD19R,1.600000X0.550000*%
%ADD20R,2.000000X1.500000*%
%ADD21R,2.000000X3.800000*%
%ADD22R,1.143000X0.254000*%
%ADD23R,0.254000X1.143000*%
%ADD24R,1.981200X0.558800*%
%ADD25R,2.100000X1.800000*%
%ADD26R,1.800000X2.100000*%
G04 APERTURE END LIST*
D10*
X155150500Y-85217000D03*
X157650500Y-85217000D03*
X158095000Y-100330000D03*
X155595000Y-100330000D03*
D11*
X153829000Y-97155000D03*
X157829000Y-97155000D03*
D12*
X184467500Y-82835500D03*
X184467500Y-78835500D03*
X203263500Y-97186500D03*
X203263500Y-93186500D03*
D13*
X189293500Y-78569500D03*
X189293500Y-81069500D03*
X197866000Y-83165000D03*
X197866000Y-80665000D03*
D12*
X196659500Y-95091000D03*
X196659500Y-91091000D03*
D10*
X177272000Y-80645000D03*
X174772000Y-80645000D03*
X160103500Y-93599000D03*
X162603500Y-93599000D03*
D13*
X152654000Y-92537600D03*
X152654000Y-90037600D03*
D14*
X134360000Y-103510000D03*
X139860000Y-103510000D03*
X134360000Y-94610000D03*
X139860000Y-94610000D03*
D15*
X139960000Y-100660000D03*
X139960000Y-99860000D03*
X139960000Y-99060000D03*
X139960000Y-98260000D03*
X139960000Y-97460000D03*
D16*
X203407000Y-88582500D03*
X200707000Y-88582500D03*
X200770500Y-90614500D03*
X203470500Y-90614500D03*
D17*
X159194500Y-78947000D03*
X159194500Y-76247000D03*
X194437000Y-90852000D03*
X194437000Y-93552000D03*
D16*
X153018500Y-80010000D03*
X155718500Y-80010000D03*
X152955000Y-77533500D03*
X155655000Y-77533500D03*
X192896500Y-98869500D03*
X195596500Y-98869500D03*
D18*
X161538000Y-82808500D03*
X162338000Y-82808500D03*
X163138000Y-82808500D03*
X163938000Y-82808500D03*
X164738000Y-82808500D03*
X165538000Y-82808500D03*
X166338000Y-82808500D03*
X167138000Y-82808500D03*
D19*
X168588000Y-84258500D03*
X168588000Y-85058500D03*
X168588000Y-85858500D03*
X168588000Y-86658500D03*
X168588000Y-87458500D03*
X168588000Y-88258500D03*
X168588000Y-89058500D03*
X168588000Y-89858500D03*
D18*
X167138000Y-91308500D03*
X166338000Y-91308500D03*
X165538000Y-91308500D03*
X164738000Y-91308500D03*
X163938000Y-91308500D03*
X163138000Y-91308500D03*
X162338000Y-91308500D03*
X161538000Y-91308500D03*
D19*
X160088000Y-89858500D03*
X160088000Y-89058500D03*
X160088000Y-88258500D03*
X160088000Y-87458500D03*
X160088000Y-86658500D03*
X160088000Y-85858500D03*
X160088000Y-85058500D03*
X160088000Y-84258500D03*
D20*
X160680000Y-96442500D03*
X160680000Y-101042500D03*
X160680000Y-98742500D03*
D21*
X166980000Y-98742500D03*
D22*
X184460000Y-85245000D03*
X184460000Y-85745000D03*
X184460000Y-86245000D03*
X184460000Y-86745000D03*
X184460000Y-87245000D03*
X184460000Y-87745000D03*
X184460000Y-88245000D03*
X184460000Y-88745000D03*
D23*
X186210000Y-90495000D03*
X186710000Y-90495000D03*
X187210000Y-90495000D03*
X187710000Y-90495000D03*
X188210000Y-90495000D03*
X188710000Y-90495000D03*
X189210000Y-90495000D03*
X189710000Y-90495000D03*
D22*
X191460000Y-88745000D03*
X191460000Y-88245000D03*
X191460000Y-87745000D03*
X191460000Y-87245000D03*
X191460000Y-86745000D03*
X191460000Y-86245000D03*
X191460000Y-85745000D03*
X191460000Y-85245000D03*
D23*
X189710000Y-83495000D03*
X189210000Y-83495000D03*
X188710000Y-83495000D03*
X188210000Y-83495000D03*
X187710000Y-83495000D03*
X187210000Y-83495000D03*
X186710000Y-83495000D03*
X186210000Y-83495000D03*
D24*
X174701200Y-82804000D03*
X174701200Y-84074000D03*
X174701200Y-85344000D03*
X174701200Y-86614000D03*
X174701200Y-87884000D03*
X174701200Y-89154000D03*
X174701200Y-90424000D03*
X174701200Y-91694000D03*
X179628800Y-91694000D03*
X179628800Y-90424000D03*
X179628800Y-89154000D03*
X179628800Y-87884000D03*
X179628800Y-86614000D03*
X179628800Y-85344000D03*
X179628800Y-84074000D03*
X179628800Y-82804000D03*
D16*
X193976000Y-76263500D03*
X196676000Y-76263500D03*
D25*
X192161500Y-80701500D03*
X195061500Y-80701500D03*
X195061500Y-83001500D03*
X192161500Y-83001500D03*
D26*
X157487000Y-92255000D03*
X157487000Y-89355000D03*
X155187000Y-89355000D03*
X155187000Y-92255000D03*
M02*
