%TF.GenerationSoftware,KiCad,Pcbnew,(5.0.0)*%
%TF.CreationDate,2018-10-21T12:48:55-07:00*%
%TF.ProjectId,USB_Host_Midi_Adapter,5553425F486F73745F4D6964695F4164,rev?*%
%TF.SameCoordinates,Original*%
%TF.FileFunction,Copper,L2,Bot,Signal*%
%TF.FilePolarity,Positive*%
%FSLAX46Y46*%
G04 Gerber Fmt 4.6, Leading zero omitted, Abs format (unit mm)*
G04 Created by KiCad (PCBNEW (5.0.0)) date 10/21/18 12:48:55*
%MOMM*%
%LPD*%
G01*
G04 APERTURE LIST*
%ADD10C,2.500000*%
%ADD11C,3.000000*%
%ADD12C,1.500000*%
%ADD13O,1.700000X1.700000*%
%ADD14R,1.700000X1.700000*%
%ADD15C,1.700000*%
%ADD16C,1.800000*%
%ADD17R,1.800000X1.800000*%
%ADD18C,0.800000*%
%ADD19C,0.250000*%
%ADD20C,0.254000*%
G04 APERTURE END LIST*
D10*
X144732000Y-74923000D03*
X147232000Y-87423000D03*
X144732000Y-82423000D03*
X144732000Y-89923000D03*
X147232000Y-77423000D03*
X134732000Y-87423000D03*
X134732000Y-77423000D03*
D11*
X208854500Y-96714500D03*
X208854500Y-82994500D03*
D12*
X206184500Y-93154500D03*
X206184500Y-90614500D03*
X206184500Y-88584500D03*
X206184500Y-86044500D03*
D13*
X173545500Y-100012500D03*
X173545500Y-97472500D03*
X176085500Y-100012500D03*
X176085500Y-97472500D03*
X178625500Y-100012500D03*
D14*
X178625500Y-97472500D03*
D13*
X189801500Y-98869500D03*
X187261500Y-98869500D03*
D14*
X184721500Y-98869500D03*
D13*
X146685000Y-100330000D03*
D14*
X146685000Y-97790000D03*
D15*
X161544000Y-74485500D03*
X168044000Y-74485500D03*
X161544000Y-78985500D03*
X168044000Y-78985500D03*
D16*
X202444501Y-76300001D03*
D17*
X199904501Y-76300001D03*
D18*
X162052000Y-85725000D03*
X166370000Y-86042500D03*
X173228000Y-91757500D03*
X182499000Y-86296500D03*
X193797347Y-88015653D03*
X199263000Y-93662500D03*
X169354500Y-100520500D03*
X195516500Y-101155500D03*
X193802000Y-85598000D03*
X196215000Y-88963500D03*
X168783000Y-91059000D03*
X166306500Y-89471500D03*
X179832000Y-93091000D03*
X170434000Y-90106500D03*
X170942000Y-97345500D03*
X164020500Y-84836000D03*
X158305500Y-80772000D03*
X157289500Y-76390500D03*
X170624500Y-88392000D03*
X165417500Y-88709500D03*
X176403000Y-89344500D03*
X190944500Y-90424000D03*
D19*
X195484499Y-101187501D02*
X195516500Y-101155500D01*
X169354500Y-100520500D02*
X170021501Y-101187501D01*
X170021501Y-101187501D02*
X195484499Y-101187501D01*
X193802000Y-85598000D02*
X196215000Y-88011000D01*
X196215000Y-88011000D02*
X196215000Y-88963500D01*
X168783000Y-91059000D02*
X167894000Y-91059000D01*
X167894000Y-91059000D02*
X166306500Y-89471500D01*
X176085500Y-97472500D02*
X179832000Y-93726000D01*
X179832000Y-93726000D02*
X179832000Y-93091000D01*
X176085500Y-96270419D02*
X170434000Y-90618919D01*
X176085500Y-97472500D02*
X176085500Y-96270419D01*
X170434000Y-90618919D02*
X170434000Y-90106500D01*
X170376315Y-97345500D02*
X170249315Y-97472500D01*
X170942000Y-97345500D02*
X170376315Y-97345500D01*
X170249315Y-97472500D02*
X165798500Y-97472500D01*
X165798500Y-97472500D02*
X164020500Y-95694500D01*
X164020500Y-95694500D02*
X164020500Y-84836000D01*
X158305500Y-80772000D02*
X157289500Y-79756000D01*
X157289500Y-79756000D02*
X157289500Y-76390500D01*
X170624500Y-88392000D02*
X165735000Y-88392000D01*
X165735000Y-88392000D02*
X165417500Y-88709500D01*
X176802999Y-89744499D02*
X190391999Y-89744499D01*
X176403000Y-89344500D02*
X176802999Y-89744499D01*
X190391999Y-89744499D02*
X190944500Y-90297000D01*
X190944500Y-90297000D02*
X190944500Y-90424000D01*
D20*
G36*
X218138364Y-71884985D02*
X218444928Y-72024372D01*
X218700050Y-72244199D01*
X218883218Y-72526792D01*
X218986743Y-72872959D01*
X219000001Y-73051363D01*
X219000000Y-104724420D01*
X218945015Y-105108364D01*
X218805628Y-105414928D01*
X218585804Y-105670047D01*
X218303207Y-105853218D01*
X217957043Y-105956743D01*
X217778649Y-105970000D01*
X133400580Y-105970000D01*
X133016636Y-105915015D01*
X132710072Y-105775628D01*
X132454953Y-105555804D01*
X132271782Y-105273207D01*
X132168257Y-104927043D01*
X132155000Y-104748649D01*
X132155000Y-103794887D01*
X152570000Y-103794887D01*
X152570000Y-104485113D01*
X152834138Y-105122799D01*
X153322201Y-105610862D01*
X153959887Y-105875000D01*
X154650113Y-105875000D01*
X155287799Y-105610862D01*
X155775862Y-105122799D01*
X156040000Y-104485113D01*
X156040000Y-103794887D01*
X184003000Y-103794887D01*
X184003000Y-104485113D01*
X184267138Y-105122799D01*
X184755201Y-105610862D01*
X185392887Y-105875000D01*
X186083113Y-105875000D01*
X186720799Y-105610862D01*
X187208862Y-105122799D01*
X187473000Y-104485113D01*
X187473000Y-103794887D01*
X215435000Y-103794887D01*
X215435000Y-104485113D01*
X215699138Y-105122799D01*
X216187201Y-105610862D01*
X216824887Y-105875000D01*
X217515113Y-105875000D01*
X218152799Y-105610862D01*
X218640862Y-105122799D01*
X218905000Y-104485113D01*
X218905000Y-103794887D01*
X218640862Y-103157201D01*
X218152799Y-102669138D01*
X217515113Y-102405000D01*
X216824887Y-102405000D01*
X216187201Y-102669138D01*
X215699138Y-103157201D01*
X215435000Y-103794887D01*
X187473000Y-103794887D01*
X187208862Y-103157201D01*
X186720799Y-102669138D01*
X186083113Y-102405000D01*
X185392887Y-102405000D01*
X184755201Y-102669138D01*
X184267138Y-103157201D01*
X184003000Y-103794887D01*
X156040000Y-103794887D01*
X155775862Y-103157201D01*
X155287799Y-102669138D01*
X154650113Y-102405000D01*
X153959887Y-102405000D01*
X153322201Y-102669138D01*
X152834138Y-103157201D01*
X152570000Y-103794887D01*
X132155000Y-103794887D01*
X132155000Y-101044180D01*
X136275000Y-101044180D01*
X136275000Y-101475820D01*
X136440182Y-101874603D01*
X136745397Y-102179818D01*
X137144180Y-102345000D01*
X137575820Y-102345000D01*
X137974603Y-102179818D01*
X138279818Y-101874603D01*
X138445000Y-101475820D01*
X138445000Y-101044180D01*
X138297006Y-100686890D01*
X145243524Y-100686890D01*
X145413355Y-101096924D01*
X145803642Y-101525183D01*
X146328108Y-101771486D01*
X146558000Y-101650819D01*
X146558000Y-100457000D01*
X146812000Y-100457000D01*
X146812000Y-101650819D01*
X147041892Y-101771486D01*
X147566358Y-101525183D01*
X147956645Y-101096924D01*
X148126476Y-100686890D01*
X148005155Y-100457000D01*
X146812000Y-100457000D01*
X146558000Y-100457000D01*
X145364845Y-100457000D01*
X145243524Y-100686890D01*
X138297006Y-100686890D01*
X138279818Y-100645397D01*
X137974603Y-100340182D01*
X137575820Y-100175000D01*
X137144180Y-100175000D01*
X136745397Y-100340182D01*
X136440182Y-100645397D01*
X136275000Y-101044180D01*
X132155000Y-101044180D01*
X132155000Y-96644180D01*
X136275000Y-96644180D01*
X136275000Y-97075820D01*
X136440182Y-97474603D01*
X136745397Y-97779818D01*
X137144180Y-97945000D01*
X137575820Y-97945000D01*
X137974603Y-97779818D01*
X138279818Y-97474603D01*
X138445000Y-97075820D01*
X138445000Y-96940000D01*
X145187560Y-96940000D01*
X145187560Y-98640000D01*
X145236843Y-98887765D01*
X145377191Y-99097809D01*
X145587235Y-99238157D01*
X145690708Y-99258739D01*
X145413355Y-99563076D01*
X145243524Y-99973110D01*
X145364845Y-100203000D01*
X146558000Y-100203000D01*
X146558000Y-100183000D01*
X146812000Y-100183000D01*
X146812000Y-100203000D01*
X148005155Y-100203000D01*
X148126476Y-99973110D01*
X147956645Y-99563076D01*
X147679292Y-99258739D01*
X147782765Y-99238157D01*
X147992809Y-99097809D01*
X148133157Y-98887765D01*
X148182440Y-98640000D01*
X148182440Y-96940000D01*
X148133157Y-96692235D01*
X147992809Y-96482191D01*
X147782765Y-96341843D01*
X147535000Y-96292560D01*
X145835000Y-96292560D01*
X145587235Y-96341843D01*
X145377191Y-96482191D01*
X145236843Y-96692235D01*
X145187560Y-96940000D01*
X138445000Y-96940000D01*
X138445000Y-96644180D01*
X138279818Y-96245397D01*
X137974603Y-95940182D01*
X137575820Y-95775000D01*
X137144180Y-95775000D01*
X136745397Y-95940182D01*
X136440182Y-96245397D01*
X136275000Y-96644180D01*
X132155000Y-96644180D01*
X132155000Y-89548050D01*
X142847000Y-89548050D01*
X142847000Y-90297950D01*
X143133974Y-90990767D01*
X143664233Y-91521026D01*
X144357050Y-91808000D01*
X145106950Y-91808000D01*
X145799767Y-91521026D01*
X146330026Y-90990767D01*
X146617000Y-90297950D01*
X146617000Y-89548050D01*
X146447259Y-89138259D01*
X146857050Y-89308000D01*
X147606950Y-89308000D01*
X148299767Y-89021026D01*
X148830026Y-88490767D01*
X149117000Y-87797950D01*
X149117000Y-87048050D01*
X148830026Y-86355233D01*
X148299767Y-85824974D01*
X147606950Y-85538000D01*
X146857050Y-85538000D01*
X146164233Y-85824974D01*
X145633974Y-86355233D01*
X145347000Y-87048050D01*
X145347000Y-87797950D01*
X145516741Y-88207741D01*
X145106950Y-88038000D01*
X144357050Y-88038000D01*
X143664233Y-88324974D01*
X143133974Y-88855233D01*
X142847000Y-89548050D01*
X132155000Y-89548050D01*
X132155000Y-87048050D01*
X132847000Y-87048050D01*
X132847000Y-87797950D01*
X133133974Y-88490767D01*
X133664233Y-89021026D01*
X134357050Y-89308000D01*
X135106950Y-89308000D01*
X135799767Y-89021026D01*
X136330026Y-88490767D01*
X136617000Y-87797950D01*
X136617000Y-87048050D01*
X136330026Y-86355233D01*
X135799767Y-85824974D01*
X135106950Y-85538000D01*
X134357050Y-85538000D01*
X133664233Y-85824974D01*
X133133974Y-86355233D01*
X132847000Y-87048050D01*
X132155000Y-87048050D01*
X132155000Y-84630126D01*
X162985500Y-84630126D01*
X162985500Y-85041874D01*
X163143069Y-85422280D01*
X163260501Y-85539712D01*
X163260500Y-95619653D01*
X163245612Y-95694500D01*
X163260500Y-95769347D01*
X163260500Y-95769351D01*
X163304596Y-95991036D01*
X163472571Y-96242429D01*
X163536030Y-96284831D01*
X165208171Y-97956973D01*
X165250571Y-98020429D01*
X165314027Y-98062829D01*
X165501962Y-98188404D01*
X165550105Y-98197980D01*
X165723648Y-98232500D01*
X165723652Y-98232500D01*
X165798500Y-98247388D01*
X165873348Y-98232500D01*
X170174468Y-98232500D01*
X170249315Y-98247388D01*
X170324162Y-98232500D01*
X170324167Y-98232500D01*
X170361090Y-98225155D01*
X170736126Y-98380500D01*
X171147874Y-98380500D01*
X171528280Y-98222931D01*
X171819431Y-97931780D01*
X171977000Y-97551374D01*
X171977000Y-97139626D01*
X171819431Y-96759220D01*
X171528280Y-96468069D01*
X171147874Y-96310500D01*
X170736126Y-96310500D01*
X170355720Y-96468069D01*
X170222603Y-96601186D01*
X170079778Y-96629596D01*
X169955704Y-96712500D01*
X166113302Y-96712500D01*
X164780500Y-95379699D01*
X164780500Y-89536211D01*
X164831220Y-89586931D01*
X165211626Y-89744500D01*
X165299304Y-89744500D01*
X165429069Y-90057780D01*
X165720220Y-90348931D01*
X166100626Y-90506500D01*
X166266699Y-90506500D01*
X167303671Y-91543473D01*
X167346071Y-91606929D01*
X167597463Y-91774904D01*
X167819148Y-91819000D01*
X167819152Y-91819000D01*
X167893999Y-91833888D01*
X167968846Y-91819000D01*
X168079289Y-91819000D01*
X168196720Y-91936431D01*
X168577126Y-92094000D01*
X168988874Y-92094000D01*
X169369280Y-91936431D01*
X169660431Y-91645280D01*
X169818000Y-91264874D01*
X169818000Y-91064972D01*
X169886071Y-91166848D01*
X169949530Y-91209250D01*
X175091173Y-96350894D01*
X175014875Y-96401875D01*
X174815500Y-96700261D01*
X174616125Y-96401875D01*
X174124918Y-96073661D01*
X173691756Y-95987500D01*
X173399244Y-95987500D01*
X172966082Y-96073661D01*
X172474875Y-96401875D01*
X172146661Y-96893082D01*
X172031408Y-97472500D01*
X172146661Y-98051918D01*
X172474875Y-98543125D01*
X172775286Y-98743853D01*
X172350317Y-99131142D01*
X172104014Y-99655608D01*
X172224681Y-99885500D01*
X173418500Y-99885500D01*
X173418500Y-99865500D01*
X173672500Y-99865500D01*
X173672500Y-99885500D01*
X173692500Y-99885500D01*
X173692500Y-100139500D01*
X173672500Y-100139500D01*
X173672500Y-100159500D01*
X173418500Y-100159500D01*
X173418500Y-100139500D01*
X172224681Y-100139500D01*
X172104014Y-100369392D01*
X172131304Y-100427501D01*
X170389500Y-100427501D01*
X170389500Y-100314626D01*
X170231931Y-99934220D01*
X169940780Y-99643069D01*
X169560374Y-99485500D01*
X169148626Y-99485500D01*
X168768220Y-99643069D01*
X168477069Y-99934220D01*
X168319500Y-100314626D01*
X168319500Y-100726374D01*
X168477069Y-101106780D01*
X168768220Y-101397931D01*
X169148626Y-101555500D01*
X169314698Y-101555500D01*
X169431172Y-101671974D01*
X169473572Y-101735430D01*
X169724964Y-101903405D01*
X169946649Y-101947501D01*
X169946654Y-101947501D01*
X170021501Y-101962389D01*
X170096348Y-101947501D01*
X194844790Y-101947501D01*
X194930220Y-102032931D01*
X195310626Y-102190500D01*
X195722374Y-102190500D01*
X196102780Y-102032931D01*
X196393931Y-101741780D01*
X196551500Y-101361374D01*
X196551500Y-100949626D01*
X196393931Y-100569220D01*
X196102780Y-100278069D01*
X195722374Y-100120500D01*
X195310626Y-100120500D01*
X194930220Y-100278069D01*
X194780788Y-100427501D01*
X180057043Y-100427501D01*
X180139592Y-100012500D01*
X180024339Y-99433082D01*
X179696125Y-98941875D01*
X179677881Y-98929684D01*
X179723265Y-98920657D01*
X179933309Y-98780309D01*
X180073657Y-98570265D01*
X180122940Y-98322500D01*
X180122940Y-98019500D01*
X183224060Y-98019500D01*
X183224060Y-99719500D01*
X183273343Y-99967265D01*
X183413691Y-100177309D01*
X183623735Y-100317657D01*
X183871500Y-100366940D01*
X185571500Y-100366940D01*
X185819265Y-100317657D01*
X186029309Y-100177309D01*
X186169657Y-99967265D01*
X186178684Y-99921881D01*
X186190875Y-99940125D01*
X186682082Y-100268339D01*
X187115244Y-100354500D01*
X187407756Y-100354500D01*
X187840918Y-100268339D01*
X188332125Y-99940125D01*
X188531500Y-99641739D01*
X188730875Y-99940125D01*
X189222082Y-100268339D01*
X189655244Y-100354500D01*
X189947756Y-100354500D01*
X190380918Y-100268339D01*
X190872125Y-99940125D01*
X191200339Y-99448918D01*
X191315592Y-98869500D01*
X191200339Y-98290082D01*
X191159172Y-98228470D01*
X207520135Y-98228470D01*
X207679918Y-98547239D01*
X208470687Y-98857223D01*
X209319887Y-98840997D01*
X210029082Y-98547239D01*
X210188865Y-98228470D01*
X208854500Y-96894105D01*
X207520135Y-98228470D01*
X191159172Y-98228470D01*
X190872125Y-97798875D01*
X190380918Y-97470661D01*
X189947756Y-97384500D01*
X189655244Y-97384500D01*
X189222082Y-97470661D01*
X188730875Y-97798875D01*
X188531500Y-98097261D01*
X188332125Y-97798875D01*
X187840918Y-97470661D01*
X187407756Y-97384500D01*
X187115244Y-97384500D01*
X186682082Y-97470661D01*
X186190875Y-97798875D01*
X186178684Y-97817119D01*
X186169657Y-97771735D01*
X186029309Y-97561691D01*
X185819265Y-97421343D01*
X185571500Y-97372060D01*
X183871500Y-97372060D01*
X183623735Y-97421343D01*
X183413691Y-97561691D01*
X183273343Y-97771735D01*
X183224060Y-98019500D01*
X180122940Y-98019500D01*
X180122940Y-96622500D01*
X180073657Y-96374735D01*
X180044225Y-96330687D01*
X206711777Y-96330687D01*
X206728003Y-97179887D01*
X207021761Y-97889082D01*
X207340530Y-98048865D01*
X208674895Y-96714500D01*
X209034105Y-96714500D01*
X210368470Y-98048865D01*
X210687239Y-97889082D01*
X210997223Y-97098313D01*
X210980997Y-96249113D01*
X210687239Y-95539918D01*
X210368470Y-95380135D01*
X209034105Y-96714500D01*
X208674895Y-96714500D01*
X207340530Y-95380135D01*
X207021761Y-95539918D01*
X206711777Y-96330687D01*
X180044225Y-96330687D01*
X179933309Y-96164691D01*
X179723265Y-96024343D01*
X179475500Y-95975060D01*
X178657742Y-95975060D01*
X179432272Y-95200530D01*
X207520135Y-95200530D01*
X208854500Y-96534895D01*
X210188865Y-95200530D01*
X210029082Y-94881761D01*
X209238313Y-94571777D01*
X208389113Y-94588003D01*
X207679918Y-94881761D01*
X207520135Y-95200530D01*
X179432272Y-95200530D01*
X180316473Y-94316329D01*
X180379929Y-94273929D01*
X180547904Y-94022537D01*
X180592000Y-93800852D01*
X180592000Y-93800848D01*
X180593524Y-93793187D01*
X180709431Y-93677280D01*
X180867000Y-93296874D01*
X180867000Y-92885126D01*
X180709431Y-92504720D01*
X180418280Y-92213569D01*
X180037874Y-92056000D01*
X179626126Y-92056000D01*
X179245720Y-92213569D01*
X178954569Y-92504720D01*
X178797000Y-92885126D01*
X178797000Y-93296874D01*
X178911030Y-93572168D01*
X176684410Y-95798789D01*
X176633429Y-95722490D01*
X176569973Y-95680090D01*
X171390873Y-90500991D01*
X171469000Y-90312374D01*
X171469000Y-89900626D01*
X171311431Y-89520220D01*
X171104616Y-89313405D01*
X171210780Y-89269431D01*
X171341585Y-89138626D01*
X175368000Y-89138626D01*
X175368000Y-89550374D01*
X175525569Y-89930780D01*
X175816720Y-90221931D01*
X176197126Y-90379500D01*
X176385382Y-90379500D01*
X176506462Y-90460403D01*
X176728147Y-90504499D01*
X176728151Y-90504499D01*
X176802998Y-90519387D01*
X176877845Y-90504499D01*
X189909500Y-90504499D01*
X189909500Y-90629874D01*
X190067069Y-91010280D01*
X190358220Y-91301431D01*
X190738626Y-91459000D01*
X191150374Y-91459000D01*
X191530780Y-91301431D01*
X191821931Y-91010280D01*
X191979500Y-90629874D01*
X191979500Y-90218126D01*
X191821931Y-89837720D01*
X191530780Y-89546569D01*
X191150374Y-89389000D01*
X191111302Y-89389000D01*
X190982329Y-89260028D01*
X190939928Y-89196570D01*
X190688536Y-89028595D01*
X190466851Y-88984499D01*
X190466846Y-88984499D01*
X190391999Y-88969611D01*
X190317152Y-88984499D01*
X177374159Y-88984499D01*
X177280431Y-88758220D01*
X176989280Y-88467069D01*
X176608874Y-88309500D01*
X176197126Y-88309500D01*
X175816720Y-88467069D01*
X175525569Y-88758220D01*
X175368000Y-89138626D01*
X171341585Y-89138626D01*
X171501931Y-88978280D01*
X171659500Y-88597874D01*
X171659500Y-88186126D01*
X171501931Y-87805720D01*
X171210780Y-87514569D01*
X170830374Y-87357000D01*
X170418626Y-87357000D01*
X170038220Y-87514569D01*
X169920789Y-87632000D01*
X165809848Y-87632000D01*
X165735000Y-87617112D01*
X165660152Y-87632000D01*
X165660148Y-87632000D01*
X165486605Y-87666520D01*
X165446486Y-87674500D01*
X165211626Y-87674500D01*
X164831220Y-87832069D01*
X164780500Y-87882789D01*
X164780500Y-85539711D01*
X164897931Y-85422280D01*
X164910421Y-85392126D01*
X192767000Y-85392126D01*
X192767000Y-85803874D01*
X192924569Y-86184280D01*
X193215720Y-86475431D01*
X193596126Y-86633000D01*
X193762199Y-86633000D01*
X195421993Y-88292796D01*
X195337569Y-88377220D01*
X195180000Y-88757626D01*
X195180000Y-89169374D01*
X195337569Y-89549780D01*
X195628720Y-89840931D01*
X196009126Y-89998500D01*
X196420874Y-89998500D01*
X196801280Y-89840931D01*
X197092431Y-89549780D01*
X197250000Y-89169374D01*
X197250000Y-88757626D01*
X197092431Y-88377220D01*
X197024217Y-88309006D01*
X204799500Y-88309006D01*
X204799500Y-88859994D01*
X205010353Y-89369040D01*
X205240813Y-89599500D01*
X205010353Y-89829960D01*
X204799500Y-90339006D01*
X204799500Y-90889994D01*
X205010353Y-91399040D01*
X205399960Y-91788647D01*
X205631370Y-91884500D01*
X205399960Y-91980353D01*
X205010353Y-92369960D01*
X204799500Y-92879006D01*
X204799500Y-93429994D01*
X205010353Y-93939040D01*
X205399960Y-94328647D01*
X205909006Y-94539500D01*
X206459994Y-94539500D01*
X206969040Y-94328647D01*
X207358647Y-93939040D01*
X207569500Y-93429994D01*
X207569500Y-92879006D01*
X207358647Y-92369960D01*
X206969040Y-91980353D01*
X206737630Y-91884500D01*
X206969040Y-91788647D01*
X207358647Y-91399040D01*
X207569500Y-90889994D01*
X207569500Y-90339006D01*
X207358647Y-89829960D01*
X207128187Y-89599500D01*
X207358647Y-89369040D01*
X207569500Y-88859994D01*
X207569500Y-88309006D01*
X207358647Y-87799960D01*
X206969040Y-87410353D01*
X206753570Y-87321103D01*
X206908423Y-87256960D01*
X206976412Y-87016017D01*
X206184500Y-86224105D01*
X205392588Y-87016017D01*
X205460577Y-87256960D01*
X205627158Y-87316245D01*
X205399960Y-87410353D01*
X205010353Y-87799960D01*
X204799500Y-88309006D01*
X197024217Y-88309006D01*
X196975000Y-88259789D01*
X196975000Y-88085846D01*
X196989888Y-88010999D01*
X196975000Y-87936152D01*
X196975000Y-87936148D01*
X196930904Y-87714463D01*
X196865856Y-87617112D01*
X196805329Y-87526526D01*
X196805327Y-87526524D01*
X196762929Y-87463071D01*
X196699476Y-87420673D01*
X195118473Y-85839671D01*
X204787299Y-85839671D01*
X204815270Y-86389948D01*
X204972040Y-86768423D01*
X205212983Y-86836412D01*
X206004895Y-86044500D01*
X206364105Y-86044500D01*
X207156017Y-86836412D01*
X207396960Y-86768423D01*
X207581701Y-86249329D01*
X207553730Y-85699052D01*
X207396960Y-85320577D01*
X207156017Y-85252588D01*
X206364105Y-86044500D01*
X206004895Y-86044500D01*
X205212983Y-85252588D01*
X204972040Y-85320577D01*
X204787299Y-85839671D01*
X195118473Y-85839671D01*
X194837000Y-85558199D01*
X194837000Y-85392126D01*
X194704807Y-85072983D01*
X205392588Y-85072983D01*
X206184500Y-85864895D01*
X206976412Y-85072983D01*
X206908423Y-84832040D01*
X206389329Y-84647299D01*
X205839052Y-84675270D01*
X205460577Y-84832040D01*
X205392588Y-85072983D01*
X194704807Y-85072983D01*
X194679431Y-85011720D01*
X194388280Y-84720569D01*
X194007874Y-84563000D01*
X193596126Y-84563000D01*
X193215720Y-84720569D01*
X192924569Y-85011720D01*
X192767000Y-85392126D01*
X164910421Y-85392126D01*
X165055500Y-85041874D01*
X165055500Y-84630126D01*
X165005109Y-84508470D01*
X207520135Y-84508470D01*
X207679918Y-84827239D01*
X208470687Y-85137223D01*
X209319887Y-85120997D01*
X210029082Y-84827239D01*
X210188865Y-84508470D01*
X208854500Y-83174105D01*
X207520135Y-84508470D01*
X165005109Y-84508470D01*
X164897931Y-84249720D01*
X164606780Y-83958569D01*
X164226374Y-83801000D01*
X163814626Y-83801000D01*
X163434220Y-83958569D01*
X163143069Y-84249720D01*
X162985500Y-84630126D01*
X132155000Y-84630126D01*
X132155000Y-83756320D01*
X143578285Y-83756320D01*
X143707533Y-84049123D01*
X144407806Y-84317388D01*
X145157435Y-84297250D01*
X145756467Y-84049123D01*
X145885715Y-83756320D01*
X144732000Y-82602605D01*
X143578285Y-83756320D01*
X132155000Y-83756320D01*
X132155000Y-82098806D01*
X142837612Y-82098806D01*
X142857750Y-82848435D01*
X143105877Y-83447467D01*
X143398680Y-83576715D01*
X144552395Y-82423000D01*
X144911605Y-82423000D01*
X146065320Y-83576715D01*
X146358123Y-83447467D01*
X146626388Y-82747194D01*
X146622721Y-82610687D01*
X206711777Y-82610687D01*
X206728003Y-83459887D01*
X207021761Y-84169082D01*
X207340530Y-84328865D01*
X208674895Y-82994500D01*
X209034105Y-82994500D01*
X210368470Y-84328865D01*
X210687239Y-84169082D01*
X210997223Y-83378313D01*
X210980997Y-82529113D01*
X210687239Y-81819918D01*
X210368470Y-81660135D01*
X209034105Y-82994500D01*
X208674895Y-82994500D01*
X207340530Y-81660135D01*
X207021761Y-81819918D01*
X206711777Y-82610687D01*
X146622721Y-82610687D01*
X146606250Y-81997565D01*
X146358123Y-81398533D01*
X146065320Y-81269285D01*
X144911605Y-82423000D01*
X144552395Y-82423000D01*
X143398680Y-81269285D01*
X143105877Y-81398533D01*
X142837612Y-82098806D01*
X132155000Y-82098806D01*
X132155000Y-81089680D01*
X143578285Y-81089680D01*
X144732000Y-82243395D01*
X145885715Y-81089680D01*
X145756467Y-80796877D01*
X145056194Y-80528612D01*
X144306565Y-80548750D01*
X143707533Y-80796877D01*
X143578285Y-81089680D01*
X132155000Y-81089680D01*
X132155000Y-77048050D01*
X132847000Y-77048050D01*
X132847000Y-77797950D01*
X133133974Y-78490767D01*
X133664233Y-79021026D01*
X134357050Y-79308000D01*
X135106950Y-79308000D01*
X135799767Y-79021026D01*
X136330026Y-78490767D01*
X136617000Y-77797950D01*
X136617000Y-77048050D01*
X136330026Y-76355233D01*
X135799767Y-75824974D01*
X135106950Y-75538000D01*
X134357050Y-75538000D01*
X133664233Y-75824974D01*
X133133974Y-76355233D01*
X132847000Y-77048050D01*
X132155000Y-77048050D01*
X132155000Y-74548050D01*
X142847000Y-74548050D01*
X142847000Y-75297950D01*
X143133974Y-75990767D01*
X143664233Y-76521026D01*
X144357050Y-76808000D01*
X145106950Y-76808000D01*
X145516741Y-76638259D01*
X145347000Y-77048050D01*
X145347000Y-77797950D01*
X145633974Y-78490767D01*
X146164233Y-79021026D01*
X146857050Y-79308000D01*
X147606950Y-79308000D01*
X148299767Y-79021026D01*
X148830026Y-78490767D01*
X149117000Y-77797950D01*
X149117000Y-77048050D01*
X148830026Y-76355233D01*
X148659419Y-76184626D01*
X156254500Y-76184626D01*
X156254500Y-76596374D01*
X156412069Y-76976780D01*
X156529501Y-77094212D01*
X156529500Y-79681153D01*
X156514612Y-79756000D01*
X156529500Y-79830847D01*
X156529500Y-79830851D01*
X156573596Y-80052536D01*
X156741571Y-80303929D01*
X156805030Y-80346331D01*
X157270500Y-80811802D01*
X157270500Y-80977874D01*
X157428069Y-81358280D01*
X157719220Y-81649431D01*
X158099626Y-81807000D01*
X158511374Y-81807000D01*
X158891780Y-81649431D01*
X159060681Y-81480530D01*
X207520135Y-81480530D01*
X208854500Y-82814895D01*
X210188865Y-81480530D01*
X210029082Y-81161761D01*
X209238313Y-80851777D01*
X208389113Y-80868003D01*
X207679918Y-81161761D01*
X207520135Y-81480530D01*
X159060681Y-81480530D01*
X159182931Y-81358280D01*
X159340500Y-80977874D01*
X159340500Y-80566126D01*
X159182931Y-80185720D01*
X158891780Y-79894569D01*
X158511374Y-79737000D01*
X158345302Y-79737000D01*
X158049500Y-79441199D01*
X158049500Y-78690115D01*
X160059000Y-78690115D01*
X160059000Y-79280885D01*
X160285078Y-79826685D01*
X160702815Y-80244422D01*
X161248615Y-80470500D01*
X161839385Y-80470500D01*
X162385185Y-80244422D01*
X162802922Y-79826685D01*
X163029000Y-79280885D01*
X163029000Y-78690115D01*
X166559000Y-78690115D01*
X166559000Y-79280885D01*
X166785078Y-79826685D01*
X167202815Y-80244422D01*
X167748615Y-80470500D01*
X168339385Y-80470500D01*
X168885185Y-80244422D01*
X169302922Y-79826685D01*
X169529000Y-79280885D01*
X169529000Y-78690115D01*
X169302922Y-78144315D01*
X168885185Y-77726578D01*
X168339385Y-77500500D01*
X167748615Y-77500500D01*
X167202815Y-77726578D01*
X166785078Y-78144315D01*
X166559000Y-78690115D01*
X163029000Y-78690115D01*
X162802922Y-78144315D01*
X162385185Y-77726578D01*
X161839385Y-77500500D01*
X161248615Y-77500500D01*
X160702815Y-77726578D01*
X160285078Y-78144315D01*
X160059000Y-78690115D01*
X158049500Y-78690115D01*
X158049500Y-77094211D01*
X158166931Y-76976780D01*
X158324500Y-76596374D01*
X158324500Y-76184626D01*
X158166931Y-75804220D01*
X157892169Y-75529458D01*
X160679647Y-75529458D01*
X160759920Y-75780759D01*
X161315279Y-75982218D01*
X161905458Y-75955815D01*
X162328080Y-75780759D01*
X162408353Y-75529458D01*
X161544000Y-74665105D01*
X160679647Y-75529458D01*
X157892169Y-75529458D01*
X157875780Y-75513069D01*
X157495374Y-75355500D01*
X157083626Y-75355500D01*
X156703220Y-75513069D01*
X156412069Y-75804220D01*
X156254500Y-76184626D01*
X148659419Y-76184626D01*
X148299767Y-75824974D01*
X147606950Y-75538000D01*
X146857050Y-75538000D01*
X146447259Y-75707741D01*
X146617000Y-75297950D01*
X146617000Y-74548050D01*
X146330026Y-73855233D01*
X145799767Y-73324974D01*
X145775415Y-73314887D01*
X152570000Y-73314887D01*
X152570000Y-74005113D01*
X152834138Y-74642799D01*
X153322201Y-75130862D01*
X153959887Y-75395000D01*
X154650113Y-75395000D01*
X155287799Y-75130862D01*
X155775862Y-74642799D01*
X155935756Y-74256779D01*
X160047282Y-74256779D01*
X160073685Y-74846958D01*
X160248741Y-75269580D01*
X160500042Y-75349853D01*
X161364395Y-74485500D01*
X161723605Y-74485500D01*
X162587958Y-75349853D01*
X162839259Y-75269580D01*
X163040718Y-74714221D01*
X163017271Y-74190115D01*
X166559000Y-74190115D01*
X166559000Y-74780885D01*
X166785078Y-75326685D01*
X167202815Y-75744422D01*
X167748615Y-75970500D01*
X168339385Y-75970500D01*
X168885185Y-75744422D01*
X169229606Y-75400001D01*
X198357061Y-75400001D01*
X198357061Y-77200001D01*
X198406344Y-77447766D01*
X198546692Y-77657810D01*
X198756736Y-77798158D01*
X199004501Y-77847441D01*
X200804501Y-77847441D01*
X201052266Y-77798158D01*
X201262310Y-77657810D01*
X201402658Y-77447766D01*
X201405776Y-77432093D01*
X201574994Y-77601311D01*
X202139171Y-77835001D01*
X202749831Y-77835001D01*
X203314008Y-77601311D01*
X203745811Y-77169508D01*
X203979501Y-76605331D01*
X203979501Y-75994671D01*
X203745811Y-75430494D01*
X203314008Y-74998691D01*
X202749831Y-74765001D01*
X202139171Y-74765001D01*
X201574994Y-74998691D01*
X201405776Y-75167909D01*
X201402658Y-75152236D01*
X201262310Y-74942192D01*
X201052266Y-74801844D01*
X200804501Y-74752561D01*
X199004501Y-74752561D01*
X198756736Y-74801844D01*
X198546692Y-74942192D01*
X198406344Y-75152236D01*
X198357061Y-75400001D01*
X169229606Y-75400001D01*
X169302922Y-75326685D01*
X169529000Y-74780885D01*
X169529000Y-74190115D01*
X169302922Y-73644315D01*
X168973494Y-73314887D01*
X184003000Y-73314887D01*
X184003000Y-74005113D01*
X184267138Y-74642799D01*
X184755201Y-75130862D01*
X185392887Y-75395000D01*
X186083113Y-75395000D01*
X186720799Y-75130862D01*
X187208862Y-74642799D01*
X187473000Y-74005113D01*
X187473000Y-73314887D01*
X215435000Y-73314887D01*
X215435000Y-74005113D01*
X215699138Y-74642799D01*
X216187201Y-75130862D01*
X216824887Y-75395000D01*
X217515113Y-75395000D01*
X218152799Y-75130862D01*
X218640862Y-74642799D01*
X218905000Y-74005113D01*
X218905000Y-73314887D01*
X218640862Y-72677201D01*
X218152799Y-72189138D01*
X217515113Y-71925000D01*
X216824887Y-71925000D01*
X216187201Y-72189138D01*
X215699138Y-72677201D01*
X215435000Y-73314887D01*
X187473000Y-73314887D01*
X187208862Y-72677201D01*
X186720799Y-72189138D01*
X186083113Y-71925000D01*
X185392887Y-71925000D01*
X184755201Y-72189138D01*
X184267138Y-72677201D01*
X184003000Y-73314887D01*
X168973494Y-73314887D01*
X168885185Y-73226578D01*
X168339385Y-73000500D01*
X167748615Y-73000500D01*
X167202815Y-73226578D01*
X166785078Y-73644315D01*
X166559000Y-74190115D01*
X163017271Y-74190115D01*
X163014315Y-74124042D01*
X162839259Y-73701420D01*
X162587958Y-73621147D01*
X161723605Y-74485500D01*
X161364395Y-74485500D01*
X160500042Y-73621147D01*
X160248741Y-73701420D01*
X160047282Y-74256779D01*
X155935756Y-74256779D01*
X156040000Y-74005113D01*
X156040000Y-73441542D01*
X160679647Y-73441542D01*
X161544000Y-74305895D01*
X162408353Y-73441542D01*
X162328080Y-73190241D01*
X161772721Y-72988782D01*
X161182542Y-73015185D01*
X160759920Y-73190241D01*
X160679647Y-73441542D01*
X156040000Y-73441542D01*
X156040000Y-73314887D01*
X155775862Y-72677201D01*
X155287799Y-72189138D01*
X154650113Y-71925000D01*
X153959887Y-71925000D01*
X153322201Y-72189138D01*
X152834138Y-72677201D01*
X152570000Y-73314887D01*
X145775415Y-73314887D01*
X145106950Y-73038000D01*
X144357050Y-73038000D01*
X143664233Y-73324974D01*
X143133974Y-73855233D01*
X142847000Y-74548050D01*
X132155000Y-74548050D01*
X132155000Y-73075580D01*
X132209985Y-72691636D01*
X132349372Y-72385072D01*
X132569199Y-72129950D01*
X132851792Y-71946782D01*
X133197959Y-71843257D01*
X133376350Y-71830000D01*
X217754420Y-71830000D01*
X218138364Y-71884985D01*
X218138364Y-71884985D01*
G37*
X218138364Y-71884985D02*
X218444928Y-72024372D01*
X218700050Y-72244199D01*
X218883218Y-72526792D01*
X218986743Y-72872959D01*
X219000001Y-73051363D01*
X219000000Y-104724420D01*
X218945015Y-105108364D01*
X218805628Y-105414928D01*
X218585804Y-105670047D01*
X218303207Y-105853218D01*
X217957043Y-105956743D01*
X217778649Y-105970000D01*
X133400580Y-105970000D01*
X133016636Y-105915015D01*
X132710072Y-105775628D01*
X132454953Y-105555804D01*
X132271782Y-105273207D01*
X132168257Y-104927043D01*
X132155000Y-104748649D01*
X132155000Y-103794887D01*
X152570000Y-103794887D01*
X152570000Y-104485113D01*
X152834138Y-105122799D01*
X153322201Y-105610862D01*
X153959887Y-105875000D01*
X154650113Y-105875000D01*
X155287799Y-105610862D01*
X155775862Y-105122799D01*
X156040000Y-104485113D01*
X156040000Y-103794887D01*
X184003000Y-103794887D01*
X184003000Y-104485113D01*
X184267138Y-105122799D01*
X184755201Y-105610862D01*
X185392887Y-105875000D01*
X186083113Y-105875000D01*
X186720799Y-105610862D01*
X187208862Y-105122799D01*
X187473000Y-104485113D01*
X187473000Y-103794887D01*
X215435000Y-103794887D01*
X215435000Y-104485113D01*
X215699138Y-105122799D01*
X216187201Y-105610862D01*
X216824887Y-105875000D01*
X217515113Y-105875000D01*
X218152799Y-105610862D01*
X218640862Y-105122799D01*
X218905000Y-104485113D01*
X218905000Y-103794887D01*
X218640862Y-103157201D01*
X218152799Y-102669138D01*
X217515113Y-102405000D01*
X216824887Y-102405000D01*
X216187201Y-102669138D01*
X215699138Y-103157201D01*
X215435000Y-103794887D01*
X187473000Y-103794887D01*
X187208862Y-103157201D01*
X186720799Y-102669138D01*
X186083113Y-102405000D01*
X185392887Y-102405000D01*
X184755201Y-102669138D01*
X184267138Y-103157201D01*
X184003000Y-103794887D01*
X156040000Y-103794887D01*
X155775862Y-103157201D01*
X155287799Y-102669138D01*
X154650113Y-102405000D01*
X153959887Y-102405000D01*
X153322201Y-102669138D01*
X152834138Y-103157201D01*
X152570000Y-103794887D01*
X132155000Y-103794887D01*
X132155000Y-101044180D01*
X136275000Y-101044180D01*
X136275000Y-101475820D01*
X136440182Y-101874603D01*
X136745397Y-102179818D01*
X137144180Y-102345000D01*
X137575820Y-102345000D01*
X137974603Y-102179818D01*
X138279818Y-101874603D01*
X138445000Y-101475820D01*
X138445000Y-101044180D01*
X138297006Y-100686890D01*
X145243524Y-100686890D01*
X145413355Y-101096924D01*
X145803642Y-101525183D01*
X146328108Y-101771486D01*
X146558000Y-101650819D01*
X146558000Y-100457000D01*
X146812000Y-100457000D01*
X146812000Y-101650819D01*
X147041892Y-101771486D01*
X147566358Y-101525183D01*
X147956645Y-101096924D01*
X148126476Y-100686890D01*
X148005155Y-100457000D01*
X146812000Y-100457000D01*
X146558000Y-100457000D01*
X145364845Y-100457000D01*
X145243524Y-100686890D01*
X138297006Y-100686890D01*
X138279818Y-100645397D01*
X137974603Y-100340182D01*
X137575820Y-100175000D01*
X137144180Y-100175000D01*
X136745397Y-100340182D01*
X136440182Y-100645397D01*
X136275000Y-101044180D01*
X132155000Y-101044180D01*
X132155000Y-96644180D01*
X136275000Y-96644180D01*
X136275000Y-97075820D01*
X136440182Y-97474603D01*
X136745397Y-97779818D01*
X137144180Y-97945000D01*
X137575820Y-97945000D01*
X137974603Y-97779818D01*
X138279818Y-97474603D01*
X138445000Y-97075820D01*
X138445000Y-96940000D01*
X145187560Y-96940000D01*
X145187560Y-98640000D01*
X145236843Y-98887765D01*
X145377191Y-99097809D01*
X145587235Y-99238157D01*
X145690708Y-99258739D01*
X145413355Y-99563076D01*
X145243524Y-99973110D01*
X145364845Y-100203000D01*
X146558000Y-100203000D01*
X146558000Y-100183000D01*
X146812000Y-100183000D01*
X146812000Y-100203000D01*
X148005155Y-100203000D01*
X148126476Y-99973110D01*
X147956645Y-99563076D01*
X147679292Y-99258739D01*
X147782765Y-99238157D01*
X147992809Y-99097809D01*
X148133157Y-98887765D01*
X148182440Y-98640000D01*
X148182440Y-96940000D01*
X148133157Y-96692235D01*
X147992809Y-96482191D01*
X147782765Y-96341843D01*
X147535000Y-96292560D01*
X145835000Y-96292560D01*
X145587235Y-96341843D01*
X145377191Y-96482191D01*
X145236843Y-96692235D01*
X145187560Y-96940000D01*
X138445000Y-96940000D01*
X138445000Y-96644180D01*
X138279818Y-96245397D01*
X137974603Y-95940182D01*
X137575820Y-95775000D01*
X137144180Y-95775000D01*
X136745397Y-95940182D01*
X136440182Y-96245397D01*
X136275000Y-96644180D01*
X132155000Y-96644180D01*
X132155000Y-89548050D01*
X142847000Y-89548050D01*
X142847000Y-90297950D01*
X143133974Y-90990767D01*
X143664233Y-91521026D01*
X144357050Y-91808000D01*
X145106950Y-91808000D01*
X145799767Y-91521026D01*
X146330026Y-90990767D01*
X146617000Y-90297950D01*
X146617000Y-89548050D01*
X146447259Y-89138259D01*
X146857050Y-89308000D01*
X147606950Y-89308000D01*
X148299767Y-89021026D01*
X148830026Y-88490767D01*
X149117000Y-87797950D01*
X149117000Y-87048050D01*
X148830026Y-86355233D01*
X148299767Y-85824974D01*
X147606950Y-85538000D01*
X146857050Y-85538000D01*
X146164233Y-85824974D01*
X145633974Y-86355233D01*
X145347000Y-87048050D01*
X145347000Y-87797950D01*
X145516741Y-88207741D01*
X145106950Y-88038000D01*
X144357050Y-88038000D01*
X143664233Y-88324974D01*
X143133974Y-88855233D01*
X142847000Y-89548050D01*
X132155000Y-89548050D01*
X132155000Y-87048050D01*
X132847000Y-87048050D01*
X132847000Y-87797950D01*
X133133974Y-88490767D01*
X133664233Y-89021026D01*
X134357050Y-89308000D01*
X135106950Y-89308000D01*
X135799767Y-89021026D01*
X136330026Y-88490767D01*
X136617000Y-87797950D01*
X136617000Y-87048050D01*
X136330026Y-86355233D01*
X135799767Y-85824974D01*
X135106950Y-85538000D01*
X134357050Y-85538000D01*
X133664233Y-85824974D01*
X133133974Y-86355233D01*
X132847000Y-87048050D01*
X132155000Y-87048050D01*
X132155000Y-84630126D01*
X162985500Y-84630126D01*
X162985500Y-85041874D01*
X163143069Y-85422280D01*
X163260501Y-85539712D01*
X163260500Y-95619653D01*
X163245612Y-95694500D01*
X163260500Y-95769347D01*
X163260500Y-95769351D01*
X163304596Y-95991036D01*
X163472571Y-96242429D01*
X163536030Y-96284831D01*
X165208171Y-97956973D01*
X165250571Y-98020429D01*
X165314027Y-98062829D01*
X165501962Y-98188404D01*
X165550105Y-98197980D01*
X165723648Y-98232500D01*
X165723652Y-98232500D01*
X165798500Y-98247388D01*
X165873348Y-98232500D01*
X170174468Y-98232500D01*
X170249315Y-98247388D01*
X170324162Y-98232500D01*
X170324167Y-98232500D01*
X170361090Y-98225155D01*
X170736126Y-98380500D01*
X171147874Y-98380500D01*
X171528280Y-98222931D01*
X171819431Y-97931780D01*
X171977000Y-97551374D01*
X171977000Y-97139626D01*
X171819431Y-96759220D01*
X171528280Y-96468069D01*
X171147874Y-96310500D01*
X170736126Y-96310500D01*
X170355720Y-96468069D01*
X170222603Y-96601186D01*
X170079778Y-96629596D01*
X169955704Y-96712500D01*
X166113302Y-96712500D01*
X164780500Y-95379699D01*
X164780500Y-89536211D01*
X164831220Y-89586931D01*
X165211626Y-89744500D01*
X165299304Y-89744500D01*
X165429069Y-90057780D01*
X165720220Y-90348931D01*
X166100626Y-90506500D01*
X166266699Y-90506500D01*
X167303671Y-91543473D01*
X167346071Y-91606929D01*
X167597463Y-91774904D01*
X167819148Y-91819000D01*
X167819152Y-91819000D01*
X167893999Y-91833888D01*
X167968846Y-91819000D01*
X168079289Y-91819000D01*
X168196720Y-91936431D01*
X168577126Y-92094000D01*
X168988874Y-92094000D01*
X169369280Y-91936431D01*
X169660431Y-91645280D01*
X169818000Y-91264874D01*
X169818000Y-91064972D01*
X169886071Y-91166848D01*
X169949530Y-91209250D01*
X175091173Y-96350894D01*
X175014875Y-96401875D01*
X174815500Y-96700261D01*
X174616125Y-96401875D01*
X174124918Y-96073661D01*
X173691756Y-95987500D01*
X173399244Y-95987500D01*
X172966082Y-96073661D01*
X172474875Y-96401875D01*
X172146661Y-96893082D01*
X172031408Y-97472500D01*
X172146661Y-98051918D01*
X172474875Y-98543125D01*
X172775286Y-98743853D01*
X172350317Y-99131142D01*
X172104014Y-99655608D01*
X172224681Y-99885500D01*
X173418500Y-99885500D01*
X173418500Y-99865500D01*
X173672500Y-99865500D01*
X173672500Y-99885500D01*
X173692500Y-99885500D01*
X173692500Y-100139500D01*
X173672500Y-100139500D01*
X173672500Y-100159500D01*
X173418500Y-100159500D01*
X173418500Y-100139500D01*
X172224681Y-100139500D01*
X172104014Y-100369392D01*
X172131304Y-100427501D01*
X170389500Y-100427501D01*
X170389500Y-100314626D01*
X170231931Y-99934220D01*
X169940780Y-99643069D01*
X169560374Y-99485500D01*
X169148626Y-99485500D01*
X168768220Y-99643069D01*
X168477069Y-99934220D01*
X168319500Y-100314626D01*
X168319500Y-100726374D01*
X168477069Y-101106780D01*
X168768220Y-101397931D01*
X169148626Y-101555500D01*
X169314698Y-101555500D01*
X169431172Y-101671974D01*
X169473572Y-101735430D01*
X169724964Y-101903405D01*
X169946649Y-101947501D01*
X169946654Y-101947501D01*
X170021501Y-101962389D01*
X170096348Y-101947501D01*
X194844790Y-101947501D01*
X194930220Y-102032931D01*
X195310626Y-102190500D01*
X195722374Y-102190500D01*
X196102780Y-102032931D01*
X196393931Y-101741780D01*
X196551500Y-101361374D01*
X196551500Y-100949626D01*
X196393931Y-100569220D01*
X196102780Y-100278069D01*
X195722374Y-100120500D01*
X195310626Y-100120500D01*
X194930220Y-100278069D01*
X194780788Y-100427501D01*
X180057043Y-100427501D01*
X180139592Y-100012500D01*
X180024339Y-99433082D01*
X179696125Y-98941875D01*
X179677881Y-98929684D01*
X179723265Y-98920657D01*
X179933309Y-98780309D01*
X180073657Y-98570265D01*
X180122940Y-98322500D01*
X180122940Y-98019500D01*
X183224060Y-98019500D01*
X183224060Y-99719500D01*
X183273343Y-99967265D01*
X183413691Y-100177309D01*
X183623735Y-100317657D01*
X183871500Y-100366940D01*
X185571500Y-100366940D01*
X185819265Y-100317657D01*
X186029309Y-100177309D01*
X186169657Y-99967265D01*
X186178684Y-99921881D01*
X186190875Y-99940125D01*
X186682082Y-100268339D01*
X187115244Y-100354500D01*
X187407756Y-100354500D01*
X187840918Y-100268339D01*
X188332125Y-99940125D01*
X188531500Y-99641739D01*
X188730875Y-99940125D01*
X189222082Y-100268339D01*
X189655244Y-100354500D01*
X189947756Y-100354500D01*
X190380918Y-100268339D01*
X190872125Y-99940125D01*
X191200339Y-99448918D01*
X191315592Y-98869500D01*
X191200339Y-98290082D01*
X191159172Y-98228470D01*
X207520135Y-98228470D01*
X207679918Y-98547239D01*
X208470687Y-98857223D01*
X209319887Y-98840997D01*
X210029082Y-98547239D01*
X210188865Y-98228470D01*
X208854500Y-96894105D01*
X207520135Y-98228470D01*
X191159172Y-98228470D01*
X190872125Y-97798875D01*
X190380918Y-97470661D01*
X189947756Y-97384500D01*
X189655244Y-97384500D01*
X189222082Y-97470661D01*
X188730875Y-97798875D01*
X188531500Y-98097261D01*
X188332125Y-97798875D01*
X187840918Y-97470661D01*
X187407756Y-97384500D01*
X187115244Y-97384500D01*
X186682082Y-97470661D01*
X186190875Y-97798875D01*
X186178684Y-97817119D01*
X186169657Y-97771735D01*
X186029309Y-97561691D01*
X185819265Y-97421343D01*
X185571500Y-97372060D01*
X183871500Y-97372060D01*
X183623735Y-97421343D01*
X183413691Y-97561691D01*
X183273343Y-97771735D01*
X183224060Y-98019500D01*
X180122940Y-98019500D01*
X180122940Y-96622500D01*
X180073657Y-96374735D01*
X180044225Y-96330687D01*
X206711777Y-96330687D01*
X206728003Y-97179887D01*
X207021761Y-97889082D01*
X207340530Y-98048865D01*
X208674895Y-96714500D01*
X209034105Y-96714500D01*
X210368470Y-98048865D01*
X210687239Y-97889082D01*
X210997223Y-97098313D01*
X210980997Y-96249113D01*
X210687239Y-95539918D01*
X210368470Y-95380135D01*
X209034105Y-96714500D01*
X208674895Y-96714500D01*
X207340530Y-95380135D01*
X207021761Y-95539918D01*
X206711777Y-96330687D01*
X180044225Y-96330687D01*
X179933309Y-96164691D01*
X179723265Y-96024343D01*
X179475500Y-95975060D01*
X178657742Y-95975060D01*
X179432272Y-95200530D01*
X207520135Y-95200530D01*
X208854500Y-96534895D01*
X210188865Y-95200530D01*
X210029082Y-94881761D01*
X209238313Y-94571777D01*
X208389113Y-94588003D01*
X207679918Y-94881761D01*
X207520135Y-95200530D01*
X179432272Y-95200530D01*
X180316473Y-94316329D01*
X180379929Y-94273929D01*
X180547904Y-94022537D01*
X180592000Y-93800852D01*
X180592000Y-93800848D01*
X180593524Y-93793187D01*
X180709431Y-93677280D01*
X180867000Y-93296874D01*
X180867000Y-92885126D01*
X180709431Y-92504720D01*
X180418280Y-92213569D01*
X180037874Y-92056000D01*
X179626126Y-92056000D01*
X179245720Y-92213569D01*
X178954569Y-92504720D01*
X178797000Y-92885126D01*
X178797000Y-93296874D01*
X178911030Y-93572168D01*
X176684410Y-95798789D01*
X176633429Y-95722490D01*
X176569973Y-95680090D01*
X171390873Y-90500991D01*
X171469000Y-90312374D01*
X171469000Y-89900626D01*
X171311431Y-89520220D01*
X171104616Y-89313405D01*
X171210780Y-89269431D01*
X171341585Y-89138626D01*
X175368000Y-89138626D01*
X175368000Y-89550374D01*
X175525569Y-89930780D01*
X175816720Y-90221931D01*
X176197126Y-90379500D01*
X176385382Y-90379500D01*
X176506462Y-90460403D01*
X176728147Y-90504499D01*
X176728151Y-90504499D01*
X176802998Y-90519387D01*
X176877845Y-90504499D01*
X189909500Y-90504499D01*
X189909500Y-90629874D01*
X190067069Y-91010280D01*
X190358220Y-91301431D01*
X190738626Y-91459000D01*
X191150374Y-91459000D01*
X191530780Y-91301431D01*
X191821931Y-91010280D01*
X191979500Y-90629874D01*
X191979500Y-90218126D01*
X191821931Y-89837720D01*
X191530780Y-89546569D01*
X191150374Y-89389000D01*
X191111302Y-89389000D01*
X190982329Y-89260028D01*
X190939928Y-89196570D01*
X190688536Y-89028595D01*
X190466851Y-88984499D01*
X190466846Y-88984499D01*
X190391999Y-88969611D01*
X190317152Y-88984499D01*
X177374159Y-88984499D01*
X177280431Y-88758220D01*
X176989280Y-88467069D01*
X176608874Y-88309500D01*
X176197126Y-88309500D01*
X175816720Y-88467069D01*
X175525569Y-88758220D01*
X175368000Y-89138626D01*
X171341585Y-89138626D01*
X171501931Y-88978280D01*
X171659500Y-88597874D01*
X171659500Y-88186126D01*
X171501931Y-87805720D01*
X171210780Y-87514569D01*
X170830374Y-87357000D01*
X170418626Y-87357000D01*
X170038220Y-87514569D01*
X169920789Y-87632000D01*
X165809848Y-87632000D01*
X165735000Y-87617112D01*
X165660152Y-87632000D01*
X165660148Y-87632000D01*
X165486605Y-87666520D01*
X165446486Y-87674500D01*
X165211626Y-87674500D01*
X164831220Y-87832069D01*
X164780500Y-87882789D01*
X164780500Y-85539711D01*
X164897931Y-85422280D01*
X164910421Y-85392126D01*
X192767000Y-85392126D01*
X192767000Y-85803874D01*
X192924569Y-86184280D01*
X193215720Y-86475431D01*
X193596126Y-86633000D01*
X193762199Y-86633000D01*
X195421993Y-88292796D01*
X195337569Y-88377220D01*
X195180000Y-88757626D01*
X195180000Y-89169374D01*
X195337569Y-89549780D01*
X195628720Y-89840931D01*
X196009126Y-89998500D01*
X196420874Y-89998500D01*
X196801280Y-89840931D01*
X197092431Y-89549780D01*
X197250000Y-89169374D01*
X197250000Y-88757626D01*
X197092431Y-88377220D01*
X197024217Y-88309006D01*
X204799500Y-88309006D01*
X204799500Y-88859994D01*
X205010353Y-89369040D01*
X205240813Y-89599500D01*
X205010353Y-89829960D01*
X204799500Y-90339006D01*
X204799500Y-90889994D01*
X205010353Y-91399040D01*
X205399960Y-91788647D01*
X205631370Y-91884500D01*
X205399960Y-91980353D01*
X205010353Y-92369960D01*
X204799500Y-92879006D01*
X204799500Y-93429994D01*
X205010353Y-93939040D01*
X205399960Y-94328647D01*
X205909006Y-94539500D01*
X206459994Y-94539500D01*
X206969040Y-94328647D01*
X207358647Y-93939040D01*
X207569500Y-93429994D01*
X207569500Y-92879006D01*
X207358647Y-92369960D01*
X206969040Y-91980353D01*
X206737630Y-91884500D01*
X206969040Y-91788647D01*
X207358647Y-91399040D01*
X207569500Y-90889994D01*
X207569500Y-90339006D01*
X207358647Y-89829960D01*
X207128187Y-89599500D01*
X207358647Y-89369040D01*
X207569500Y-88859994D01*
X207569500Y-88309006D01*
X207358647Y-87799960D01*
X206969040Y-87410353D01*
X206753570Y-87321103D01*
X206908423Y-87256960D01*
X206976412Y-87016017D01*
X206184500Y-86224105D01*
X205392588Y-87016017D01*
X205460577Y-87256960D01*
X205627158Y-87316245D01*
X205399960Y-87410353D01*
X205010353Y-87799960D01*
X204799500Y-88309006D01*
X197024217Y-88309006D01*
X196975000Y-88259789D01*
X196975000Y-88085846D01*
X196989888Y-88010999D01*
X196975000Y-87936152D01*
X196975000Y-87936148D01*
X196930904Y-87714463D01*
X196865856Y-87617112D01*
X196805329Y-87526526D01*
X196805327Y-87526524D01*
X196762929Y-87463071D01*
X196699476Y-87420673D01*
X195118473Y-85839671D01*
X204787299Y-85839671D01*
X204815270Y-86389948D01*
X204972040Y-86768423D01*
X205212983Y-86836412D01*
X206004895Y-86044500D01*
X206364105Y-86044500D01*
X207156017Y-86836412D01*
X207396960Y-86768423D01*
X207581701Y-86249329D01*
X207553730Y-85699052D01*
X207396960Y-85320577D01*
X207156017Y-85252588D01*
X206364105Y-86044500D01*
X206004895Y-86044500D01*
X205212983Y-85252588D01*
X204972040Y-85320577D01*
X204787299Y-85839671D01*
X195118473Y-85839671D01*
X194837000Y-85558199D01*
X194837000Y-85392126D01*
X194704807Y-85072983D01*
X205392588Y-85072983D01*
X206184500Y-85864895D01*
X206976412Y-85072983D01*
X206908423Y-84832040D01*
X206389329Y-84647299D01*
X205839052Y-84675270D01*
X205460577Y-84832040D01*
X205392588Y-85072983D01*
X194704807Y-85072983D01*
X194679431Y-85011720D01*
X194388280Y-84720569D01*
X194007874Y-84563000D01*
X193596126Y-84563000D01*
X193215720Y-84720569D01*
X192924569Y-85011720D01*
X192767000Y-85392126D01*
X164910421Y-85392126D01*
X165055500Y-85041874D01*
X165055500Y-84630126D01*
X165005109Y-84508470D01*
X207520135Y-84508470D01*
X207679918Y-84827239D01*
X208470687Y-85137223D01*
X209319887Y-85120997D01*
X210029082Y-84827239D01*
X210188865Y-84508470D01*
X208854500Y-83174105D01*
X207520135Y-84508470D01*
X165005109Y-84508470D01*
X164897931Y-84249720D01*
X164606780Y-83958569D01*
X164226374Y-83801000D01*
X163814626Y-83801000D01*
X163434220Y-83958569D01*
X163143069Y-84249720D01*
X162985500Y-84630126D01*
X132155000Y-84630126D01*
X132155000Y-83756320D01*
X143578285Y-83756320D01*
X143707533Y-84049123D01*
X144407806Y-84317388D01*
X145157435Y-84297250D01*
X145756467Y-84049123D01*
X145885715Y-83756320D01*
X144732000Y-82602605D01*
X143578285Y-83756320D01*
X132155000Y-83756320D01*
X132155000Y-82098806D01*
X142837612Y-82098806D01*
X142857750Y-82848435D01*
X143105877Y-83447467D01*
X143398680Y-83576715D01*
X144552395Y-82423000D01*
X144911605Y-82423000D01*
X146065320Y-83576715D01*
X146358123Y-83447467D01*
X146626388Y-82747194D01*
X146622721Y-82610687D01*
X206711777Y-82610687D01*
X206728003Y-83459887D01*
X207021761Y-84169082D01*
X207340530Y-84328865D01*
X208674895Y-82994500D01*
X209034105Y-82994500D01*
X210368470Y-84328865D01*
X210687239Y-84169082D01*
X210997223Y-83378313D01*
X210980997Y-82529113D01*
X210687239Y-81819918D01*
X210368470Y-81660135D01*
X209034105Y-82994500D01*
X208674895Y-82994500D01*
X207340530Y-81660135D01*
X207021761Y-81819918D01*
X206711777Y-82610687D01*
X146622721Y-82610687D01*
X146606250Y-81997565D01*
X146358123Y-81398533D01*
X146065320Y-81269285D01*
X144911605Y-82423000D01*
X144552395Y-82423000D01*
X143398680Y-81269285D01*
X143105877Y-81398533D01*
X142837612Y-82098806D01*
X132155000Y-82098806D01*
X132155000Y-81089680D01*
X143578285Y-81089680D01*
X144732000Y-82243395D01*
X145885715Y-81089680D01*
X145756467Y-80796877D01*
X145056194Y-80528612D01*
X144306565Y-80548750D01*
X143707533Y-80796877D01*
X143578285Y-81089680D01*
X132155000Y-81089680D01*
X132155000Y-77048050D01*
X132847000Y-77048050D01*
X132847000Y-77797950D01*
X133133974Y-78490767D01*
X133664233Y-79021026D01*
X134357050Y-79308000D01*
X135106950Y-79308000D01*
X135799767Y-79021026D01*
X136330026Y-78490767D01*
X136617000Y-77797950D01*
X136617000Y-77048050D01*
X136330026Y-76355233D01*
X135799767Y-75824974D01*
X135106950Y-75538000D01*
X134357050Y-75538000D01*
X133664233Y-75824974D01*
X133133974Y-76355233D01*
X132847000Y-77048050D01*
X132155000Y-77048050D01*
X132155000Y-74548050D01*
X142847000Y-74548050D01*
X142847000Y-75297950D01*
X143133974Y-75990767D01*
X143664233Y-76521026D01*
X144357050Y-76808000D01*
X145106950Y-76808000D01*
X145516741Y-76638259D01*
X145347000Y-77048050D01*
X145347000Y-77797950D01*
X145633974Y-78490767D01*
X146164233Y-79021026D01*
X146857050Y-79308000D01*
X147606950Y-79308000D01*
X148299767Y-79021026D01*
X148830026Y-78490767D01*
X149117000Y-77797950D01*
X149117000Y-77048050D01*
X148830026Y-76355233D01*
X148659419Y-76184626D01*
X156254500Y-76184626D01*
X156254500Y-76596374D01*
X156412069Y-76976780D01*
X156529501Y-77094212D01*
X156529500Y-79681153D01*
X156514612Y-79756000D01*
X156529500Y-79830847D01*
X156529500Y-79830851D01*
X156573596Y-80052536D01*
X156741571Y-80303929D01*
X156805030Y-80346331D01*
X157270500Y-80811802D01*
X157270500Y-80977874D01*
X157428069Y-81358280D01*
X157719220Y-81649431D01*
X158099626Y-81807000D01*
X158511374Y-81807000D01*
X158891780Y-81649431D01*
X159060681Y-81480530D01*
X207520135Y-81480530D01*
X208854500Y-82814895D01*
X210188865Y-81480530D01*
X210029082Y-81161761D01*
X209238313Y-80851777D01*
X208389113Y-80868003D01*
X207679918Y-81161761D01*
X207520135Y-81480530D01*
X159060681Y-81480530D01*
X159182931Y-81358280D01*
X159340500Y-80977874D01*
X159340500Y-80566126D01*
X159182931Y-80185720D01*
X158891780Y-79894569D01*
X158511374Y-79737000D01*
X158345302Y-79737000D01*
X158049500Y-79441199D01*
X158049500Y-78690115D01*
X160059000Y-78690115D01*
X160059000Y-79280885D01*
X160285078Y-79826685D01*
X160702815Y-80244422D01*
X161248615Y-80470500D01*
X161839385Y-80470500D01*
X162385185Y-80244422D01*
X162802922Y-79826685D01*
X163029000Y-79280885D01*
X163029000Y-78690115D01*
X166559000Y-78690115D01*
X166559000Y-79280885D01*
X166785078Y-79826685D01*
X167202815Y-80244422D01*
X167748615Y-80470500D01*
X168339385Y-80470500D01*
X168885185Y-80244422D01*
X169302922Y-79826685D01*
X169529000Y-79280885D01*
X169529000Y-78690115D01*
X169302922Y-78144315D01*
X168885185Y-77726578D01*
X168339385Y-77500500D01*
X167748615Y-77500500D01*
X167202815Y-77726578D01*
X166785078Y-78144315D01*
X166559000Y-78690115D01*
X163029000Y-78690115D01*
X162802922Y-78144315D01*
X162385185Y-77726578D01*
X161839385Y-77500500D01*
X161248615Y-77500500D01*
X160702815Y-77726578D01*
X160285078Y-78144315D01*
X160059000Y-78690115D01*
X158049500Y-78690115D01*
X158049500Y-77094211D01*
X158166931Y-76976780D01*
X158324500Y-76596374D01*
X158324500Y-76184626D01*
X158166931Y-75804220D01*
X157892169Y-75529458D01*
X160679647Y-75529458D01*
X160759920Y-75780759D01*
X161315279Y-75982218D01*
X161905458Y-75955815D01*
X162328080Y-75780759D01*
X162408353Y-75529458D01*
X161544000Y-74665105D01*
X160679647Y-75529458D01*
X157892169Y-75529458D01*
X157875780Y-75513069D01*
X157495374Y-75355500D01*
X157083626Y-75355500D01*
X156703220Y-75513069D01*
X156412069Y-75804220D01*
X156254500Y-76184626D01*
X148659419Y-76184626D01*
X148299767Y-75824974D01*
X147606950Y-75538000D01*
X146857050Y-75538000D01*
X146447259Y-75707741D01*
X146617000Y-75297950D01*
X146617000Y-74548050D01*
X146330026Y-73855233D01*
X145799767Y-73324974D01*
X145775415Y-73314887D01*
X152570000Y-73314887D01*
X152570000Y-74005113D01*
X152834138Y-74642799D01*
X153322201Y-75130862D01*
X153959887Y-75395000D01*
X154650113Y-75395000D01*
X155287799Y-75130862D01*
X155775862Y-74642799D01*
X155935756Y-74256779D01*
X160047282Y-74256779D01*
X160073685Y-74846958D01*
X160248741Y-75269580D01*
X160500042Y-75349853D01*
X161364395Y-74485500D01*
X161723605Y-74485500D01*
X162587958Y-75349853D01*
X162839259Y-75269580D01*
X163040718Y-74714221D01*
X163017271Y-74190115D01*
X166559000Y-74190115D01*
X166559000Y-74780885D01*
X166785078Y-75326685D01*
X167202815Y-75744422D01*
X167748615Y-75970500D01*
X168339385Y-75970500D01*
X168885185Y-75744422D01*
X169229606Y-75400001D01*
X198357061Y-75400001D01*
X198357061Y-77200001D01*
X198406344Y-77447766D01*
X198546692Y-77657810D01*
X198756736Y-77798158D01*
X199004501Y-77847441D01*
X200804501Y-77847441D01*
X201052266Y-77798158D01*
X201262310Y-77657810D01*
X201402658Y-77447766D01*
X201405776Y-77432093D01*
X201574994Y-77601311D01*
X202139171Y-77835001D01*
X202749831Y-77835001D01*
X203314008Y-77601311D01*
X203745811Y-77169508D01*
X203979501Y-76605331D01*
X203979501Y-75994671D01*
X203745811Y-75430494D01*
X203314008Y-74998691D01*
X202749831Y-74765001D01*
X202139171Y-74765001D01*
X201574994Y-74998691D01*
X201405776Y-75167909D01*
X201402658Y-75152236D01*
X201262310Y-74942192D01*
X201052266Y-74801844D01*
X200804501Y-74752561D01*
X199004501Y-74752561D01*
X198756736Y-74801844D01*
X198546692Y-74942192D01*
X198406344Y-75152236D01*
X198357061Y-75400001D01*
X169229606Y-75400001D01*
X169302922Y-75326685D01*
X169529000Y-74780885D01*
X169529000Y-74190115D01*
X169302922Y-73644315D01*
X168973494Y-73314887D01*
X184003000Y-73314887D01*
X184003000Y-74005113D01*
X184267138Y-74642799D01*
X184755201Y-75130862D01*
X185392887Y-75395000D01*
X186083113Y-75395000D01*
X186720799Y-75130862D01*
X187208862Y-74642799D01*
X187473000Y-74005113D01*
X187473000Y-73314887D01*
X215435000Y-73314887D01*
X215435000Y-74005113D01*
X215699138Y-74642799D01*
X216187201Y-75130862D01*
X216824887Y-75395000D01*
X217515113Y-75395000D01*
X218152799Y-75130862D01*
X218640862Y-74642799D01*
X218905000Y-74005113D01*
X218905000Y-73314887D01*
X218640862Y-72677201D01*
X218152799Y-72189138D01*
X217515113Y-71925000D01*
X216824887Y-71925000D01*
X216187201Y-72189138D01*
X215699138Y-72677201D01*
X215435000Y-73314887D01*
X187473000Y-73314887D01*
X187208862Y-72677201D01*
X186720799Y-72189138D01*
X186083113Y-71925000D01*
X185392887Y-71925000D01*
X184755201Y-72189138D01*
X184267138Y-72677201D01*
X184003000Y-73314887D01*
X168973494Y-73314887D01*
X168885185Y-73226578D01*
X168339385Y-73000500D01*
X167748615Y-73000500D01*
X167202815Y-73226578D01*
X166785078Y-73644315D01*
X166559000Y-74190115D01*
X163017271Y-74190115D01*
X163014315Y-74124042D01*
X162839259Y-73701420D01*
X162587958Y-73621147D01*
X161723605Y-74485500D01*
X161364395Y-74485500D01*
X160500042Y-73621147D01*
X160248741Y-73701420D01*
X160047282Y-74256779D01*
X155935756Y-74256779D01*
X156040000Y-74005113D01*
X156040000Y-73441542D01*
X160679647Y-73441542D01*
X161544000Y-74305895D01*
X162408353Y-73441542D01*
X162328080Y-73190241D01*
X161772721Y-72988782D01*
X161182542Y-73015185D01*
X160759920Y-73190241D01*
X160679647Y-73441542D01*
X156040000Y-73441542D01*
X156040000Y-73314887D01*
X155775862Y-72677201D01*
X155287799Y-72189138D01*
X154650113Y-71925000D01*
X153959887Y-71925000D01*
X153322201Y-72189138D01*
X152834138Y-72677201D01*
X152570000Y-73314887D01*
X145775415Y-73314887D01*
X145106950Y-73038000D01*
X144357050Y-73038000D01*
X143664233Y-73324974D01*
X143133974Y-73855233D01*
X142847000Y-74548050D01*
X132155000Y-74548050D01*
X132155000Y-73075580D01*
X132209985Y-72691636D01*
X132349372Y-72385072D01*
X132569199Y-72129950D01*
X132851792Y-71946782D01*
X133197959Y-71843257D01*
X133376350Y-71830000D01*
X217754420Y-71830000D01*
X218138364Y-71884985D01*
M02*
